G75*
G70*
%OFA0B0*%
%FSLAX24Y24*%
%IPPOS*%
%LPD*%
%AMOC8*
5,1,8,0,0,1.08239X$1,22.5*
%
%ADD10OC8,0.0630*%
%ADD11R,0.0500X0.1000*%
%ADD12C,0.0560*%
%ADD13C,0.0516*%
%ADD14C,0.0594*%
%ADD15C,0.1266*%
%ADD16C,0.1580*%
%ADD17C,0.0560*%
%ADD18C,0.0080*%
%ADD19C,0.0400*%
%ADD20C,0.0100*%
D10*
X002151Y001806D03*
X003151Y001806D03*
X004151Y001806D03*
X005151Y001806D03*
X006151Y001806D03*
X007151Y001806D03*
X008151Y001806D03*
X009151Y001806D03*
X010151Y001806D03*
X011151Y001806D03*
X012151Y001806D03*
X013151Y001806D03*
X014151Y001806D03*
X015151Y001806D03*
X016151Y001806D03*
X017151Y001806D03*
X018151Y001806D03*
X019151Y001806D03*
X020151Y001806D03*
X021151Y001806D03*
X021151Y007456D03*
X020151Y007456D03*
X019151Y007456D03*
X018151Y007456D03*
X017151Y007456D03*
X016151Y007456D03*
X015151Y007456D03*
X014151Y007456D03*
X013151Y007456D03*
X012151Y007456D03*
X011151Y007456D03*
X010151Y007456D03*
X009151Y007456D03*
X008151Y007456D03*
X007151Y007456D03*
X006151Y007456D03*
X005151Y007456D03*
X004151Y007456D03*
X003151Y007456D03*
X002151Y007456D03*
D11*
X002151Y014806D03*
X001151Y014806D03*
X003151Y014806D03*
X004151Y014806D03*
X005151Y014806D03*
X006151Y014806D03*
X007151Y014806D03*
X008151Y014806D03*
X009151Y014806D03*
X010151Y014806D03*
X011151Y014806D03*
X012151Y014806D03*
X013151Y014806D03*
X014151Y014806D03*
X015151Y014806D03*
X016651Y014806D03*
X018151Y014806D03*
X019151Y014806D03*
X020151Y014806D03*
X021151Y014806D03*
X022151Y014806D03*
X023151Y014806D03*
X024151Y014806D03*
D12*
X023901Y013036D02*
X023901Y012476D01*
X022901Y012476D02*
X022901Y013036D01*
X021901Y013036D02*
X021901Y012476D01*
X020901Y012476D02*
X020901Y013036D01*
X019901Y013036D02*
X019901Y012476D01*
X018901Y012476D02*
X018901Y013036D01*
X017901Y013036D02*
X017901Y012476D01*
X016401Y012476D02*
X016401Y013036D01*
X015401Y013036D02*
X015401Y012476D01*
X014401Y012476D02*
X014401Y013036D01*
X013401Y013036D02*
X013401Y012476D01*
X012401Y012476D02*
X012401Y013036D01*
X011401Y013036D02*
X011401Y012476D01*
X010401Y012476D02*
X010401Y013036D01*
X009401Y013036D02*
X009401Y012476D01*
X007901Y012476D02*
X007901Y013036D01*
X006901Y013036D02*
X006901Y012476D01*
X005901Y012476D02*
X005901Y013036D01*
X004901Y013036D02*
X004901Y012476D01*
X003901Y012476D02*
X003901Y013036D01*
X002901Y013036D02*
X002901Y012476D01*
X001901Y012476D02*
X001901Y013036D01*
X000901Y013036D02*
X000901Y012476D01*
X000901Y010036D02*
X000901Y009476D01*
X001901Y009476D02*
X001901Y010036D01*
X002901Y010036D02*
X002901Y009476D01*
X003901Y009476D02*
X003901Y010036D01*
X004901Y010036D02*
X004901Y009476D01*
X005901Y009476D02*
X005901Y010036D01*
X006901Y010036D02*
X006901Y009476D01*
X007901Y009476D02*
X007901Y010036D01*
X009401Y010036D02*
X009401Y009476D01*
X010401Y009476D02*
X010401Y010036D01*
X011401Y010036D02*
X011401Y009476D01*
X012401Y009476D02*
X012401Y010036D01*
X013401Y010036D02*
X013401Y009476D01*
X014401Y009476D02*
X014401Y010036D01*
X015401Y010036D02*
X015401Y009476D01*
X016401Y009476D02*
X016401Y010036D01*
X017901Y010036D02*
X017901Y009476D01*
X018901Y009476D02*
X018901Y010036D01*
X019901Y010036D02*
X019901Y009476D01*
X020901Y009476D02*
X020901Y010036D01*
X021901Y010036D02*
X021901Y009476D01*
X022901Y009476D02*
X022901Y010036D01*
X023901Y010036D02*
X023901Y009476D01*
X024901Y009476D02*
X024901Y010036D01*
X024901Y012476D02*
X024901Y013036D01*
X024651Y006386D02*
X024651Y005826D01*
X023651Y005826D02*
X023651Y006386D01*
X022651Y006386D02*
X022651Y005826D01*
X021651Y005826D02*
X021651Y006386D01*
X020651Y006386D02*
X020651Y005826D01*
X019651Y005826D02*
X019651Y006386D01*
X018651Y006386D02*
X018651Y005826D01*
X016151Y005826D02*
X016151Y006386D01*
X015151Y006386D02*
X015151Y005826D01*
X014151Y005826D02*
X014151Y006386D01*
X013151Y006386D02*
X013151Y005826D01*
X012151Y005826D02*
X012151Y006386D01*
X011151Y006386D02*
X011151Y005826D01*
X010151Y005826D02*
X010151Y006386D01*
X007651Y006386D02*
X007651Y005826D01*
X006651Y005826D02*
X006651Y006386D01*
X005651Y006386D02*
X005651Y005826D01*
X004651Y005826D02*
X004651Y006386D01*
X003651Y006386D02*
X003651Y005826D01*
X002651Y005826D02*
X002651Y006386D01*
X001651Y006386D02*
X001651Y005826D01*
X001651Y003386D02*
X001651Y002826D01*
X002651Y002826D02*
X002651Y003386D01*
X003651Y003386D02*
X003651Y002826D01*
X004651Y002826D02*
X004651Y003386D01*
X005651Y003386D02*
X005651Y002826D01*
X006651Y002826D02*
X006651Y003386D01*
X007651Y003386D02*
X007651Y002826D01*
X010151Y002826D02*
X010151Y003386D01*
X011151Y003386D02*
X011151Y002826D01*
X012151Y002826D02*
X012151Y003386D01*
X013151Y003386D02*
X013151Y002826D01*
X014151Y002826D02*
X014151Y003386D01*
X015151Y003386D02*
X015151Y002826D01*
X016151Y002826D02*
X016151Y003386D01*
X018651Y003386D02*
X018651Y002826D01*
X019651Y002826D02*
X019651Y003386D01*
X020651Y003386D02*
X020651Y002826D01*
X021651Y002826D02*
X021651Y003386D01*
X022651Y003386D02*
X022651Y002826D01*
X023651Y002826D02*
X023651Y003386D01*
X024651Y003386D02*
X024651Y002826D01*
D13*
X017651Y005106D03*
X017651Y006106D03*
X022601Y007356D03*
X023701Y007356D03*
X023701Y008356D03*
X022601Y008356D03*
X009151Y006106D03*
X009151Y005106D03*
X000701Y005056D03*
X000701Y006056D03*
D14*
X026620Y004244D03*
X027605Y004244D03*
X027605Y003417D03*
X027605Y002394D03*
X027605Y001567D03*
X026620Y001567D03*
X026620Y011867D03*
X027605Y011867D03*
X027605Y012694D03*
X027605Y013717D03*
X027605Y014544D03*
X026620Y014544D03*
D15*
X029101Y013206D03*
X029101Y002906D03*
D16*
X028270Y007706D03*
X025907Y007706D03*
X027089Y009556D03*
D17*
X024701Y001606D03*
X023701Y001606D03*
D18*
X023511Y001666D01*
X022711Y002466D01*
X022711Y002626D01*
X022651Y003106D01*
X022711Y003586D01*
X022711Y005666D01*
X022651Y006106D01*
X022711Y006626D01*
X022711Y007106D01*
X022601Y007356D01*
X022071Y007266D02*
X022071Y005186D01*
X023191Y004546D02*
X024151Y003586D01*
X024151Y001346D01*
X023991Y001186D01*
X015671Y001186D01*
X015671Y002146D01*
X015191Y002626D01*
X015151Y003106D01*
X014151Y003106D02*
X014231Y003586D01*
X014231Y003906D01*
X017911Y003906D01*
X017911Y002946D01*
X018551Y002306D01*
X021431Y002306D01*
X021431Y002786D01*
X021651Y003106D01*
X022651Y003106D01*
X024151Y004066D02*
X024151Y006466D01*
X024311Y006626D01*
X024311Y014466D01*
X024151Y014806D01*
X023351Y014466D02*
X023151Y014806D01*
X023351Y014466D02*
X023351Y008546D01*
X023191Y008386D01*
X023191Y006946D01*
X023511Y006626D01*
X023651Y006106D01*
X023191Y006466D02*
X023191Y004546D01*
X024631Y003586D02*
X024651Y003106D01*
X024631Y003586D02*
X024631Y005666D01*
X024651Y006106D01*
X023191Y006466D02*
X023031Y006626D01*
X023031Y008546D01*
X022391Y009186D01*
X022391Y010146D01*
X022071Y010466D01*
X022071Y011266D01*
X022391Y011586D01*
X022391Y014466D01*
X022151Y014806D01*
X021151Y014806D02*
X020951Y014466D01*
X020471Y013986D01*
X020471Y010946D01*
X020631Y010786D01*
X020631Y010466D01*
X020471Y010306D01*
X020471Y007906D01*
X020631Y007746D01*
X020631Y006946D01*
X020151Y006466D01*
X020151Y005506D01*
X019031Y004386D01*
X015351Y004386D01*
X015351Y005666D01*
X015151Y006106D01*
X014151Y006106D02*
X014231Y005666D01*
X014231Y003906D01*
X014551Y004066D02*
X014551Y004386D01*
X014551Y004066D02*
X018071Y004066D01*
X018551Y003586D01*
X018651Y003106D01*
X019351Y003746D02*
X019511Y003586D01*
X019651Y003106D01*
X019351Y003746D02*
X019351Y004226D01*
X019191Y005026D02*
X019191Y006626D01*
X019671Y007106D01*
X019671Y009346D01*
X019901Y009756D01*
X018901Y009756D02*
X018711Y009346D01*
X018711Y008706D01*
X017271Y008226D02*
X016631Y007586D01*
X016631Y007106D01*
X016151Y006626D01*
X016151Y006106D01*
X015671Y004706D02*
X017591Y006626D01*
X017591Y007746D01*
X017431Y007906D01*
X017431Y013506D01*
X018071Y013506D01*
X019031Y014466D01*
X019151Y014806D01*
X018151Y014806D02*
X017911Y014466D01*
X017271Y013826D01*
X017271Y008226D01*
X016151Y008386D02*
X015351Y007586D01*
X015151Y007456D01*
X014711Y008226D02*
X014551Y008386D01*
X014551Y009346D01*
X014401Y009756D01*
X014391Y010306D01*
X014391Y011746D01*
X013911Y012226D01*
X013911Y013826D01*
X013271Y014466D01*
X013151Y014806D01*
X012311Y014466D02*
X012151Y014806D01*
X012311Y014466D02*
X012951Y013826D01*
X012951Y011746D01*
X013911Y011746D01*
X012951Y011746D02*
X012951Y010786D01*
X013431Y010306D01*
X013401Y009756D01*
X012401Y009756D02*
X012151Y010146D01*
X011511Y010786D01*
X006711Y010786D01*
X006711Y011266D01*
X005911Y012066D01*
X003991Y012066D01*
X003991Y012226D01*
X003901Y012756D01*
X003991Y013186D01*
X003991Y014466D01*
X004151Y014806D01*
X005151Y014806D02*
X005111Y014466D01*
X005111Y013186D01*
X004901Y012756D01*
X005901Y012756D02*
X006071Y013186D01*
X006071Y014466D01*
X006151Y014806D01*
X007031Y014466D02*
X007151Y014806D01*
X007031Y014466D02*
X007031Y013186D01*
X006901Y012756D01*
X007031Y012226D01*
X007031Y011266D01*
X007511Y011266D02*
X007511Y011586D01*
X007511Y011266D02*
X008151Y011266D01*
X008311Y011426D01*
X008311Y013826D01*
X008951Y014466D01*
X009151Y014806D01*
X008151Y014806D02*
X007991Y014466D01*
X007991Y013186D01*
X007901Y012756D01*
X007991Y012226D01*
X007991Y011586D01*
X009431Y011586D02*
X010231Y012386D01*
X010401Y012756D01*
X011401Y012756D02*
X011351Y012226D01*
X011191Y012066D01*
X011191Y011106D01*
X010871Y011586D02*
X010871Y013986D01*
X010391Y014466D01*
X010151Y014806D01*
X011151Y014806D02*
X011351Y014466D01*
X011991Y013826D01*
X011991Y011586D01*
X009911Y010146D02*
X009431Y010626D01*
X003671Y010626D01*
X003671Y011106D01*
X003351Y011906D02*
X003031Y012226D01*
X002901Y012756D01*
X003031Y013186D01*
X003031Y014466D01*
X003151Y014806D01*
X002151Y014806D02*
X002071Y014466D01*
X002071Y013186D01*
X001901Y012756D01*
X001111Y013186D02*
X000901Y012756D01*
X001111Y013186D02*
X001111Y014466D01*
X001151Y014806D01*
X003351Y011906D02*
X003351Y009346D01*
X004631Y008066D01*
X004631Y006786D01*
X009111Y006786D01*
X009591Y007266D01*
X009591Y007746D01*
X011191Y009346D01*
X011401Y009756D01*
X010401Y009756D02*
X010231Y010146D01*
X009911Y010146D01*
X011671Y008706D02*
X012631Y008706D01*
X012631Y004066D01*
X013111Y003586D01*
X013151Y003106D01*
X014151Y003106D01*
X015031Y004386D02*
X014711Y004706D01*
X014711Y008226D01*
X014871Y008546D02*
X014871Y011906D01*
X015351Y011906D02*
X014871Y012386D01*
X014871Y013986D01*
X014391Y014466D01*
X014151Y014806D01*
X015151Y014806D02*
X015351Y014466D01*
X015991Y013826D01*
X015991Y011906D01*
X015991Y010626D01*
X016311Y010306D01*
X016401Y009756D01*
X016951Y009346D02*
X016631Y009026D01*
X015511Y009026D01*
X015511Y009346D01*
X015401Y009756D01*
X015351Y010306D01*
X015351Y011906D01*
X015511Y012226D02*
X015401Y012756D01*
X016401Y012756D02*
X016311Y012226D01*
X016311Y011106D01*
X016951Y011266D02*
X016951Y009346D01*
X017751Y010626D02*
X017751Y012066D01*
X017911Y012226D01*
X017901Y012756D01*
X018901Y012756D02*
X018871Y012226D01*
X018871Y010946D01*
X019351Y010946D02*
X019351Y007586D01*
X019151Y007456D01*
X018391Y007586D02*
X018151Y007456D01*
X018391Y007586D02*
X018391Y011266D01*
X016951Y011746D02*
X016951Y014306D01*
X016791Y014466D01*
X016651Y014806D01*
X020151Y014806D02*
X020311Y014466D01*
X020311Y011106D01*
X019831Y010626D01*
X020311Y010626D02*
X020311Y007586D01*
X020151Y007456D01*
X021431Y007906D02*
X022071Y007266D01*
X021431Y007906D02*
X021431Y011746D01*
X021911Y012226D01*
X021901Y012756D01*
X022901Y012756D02*
X022871Y012226D01*
X022711Y012066D01*
X022711Y011426D01*
X022391Y011106D01*
X022871Y010946D02*
X022871Y010306D01*
X022901Y009756D01*
X021901Y009756D02*
X021911Y010306D01*
X021751Y010466D01*
X021751Y011106D01*
X024471Y011906D02*
X024791Y012226D01*
X024901Y012756D01*
X026071Y012866D02*
X026071Y008386D01*
X025907Y007706D01*
X026231Y006946D01*
X026231Y005506D01*
X027351Y004386D01*
X027605Y004244D01*
X028151Y002306D02*
X028151Y006946D01*
X028270Y007706D01*
X028151Y008386D01*
X028151Y011106D01*
X027671Y011586D01*
X027605Y011867D01*
X026071Y012866D02*
X027511Y014306D01*
X027605Y014544D01*
X024471Y011906D02*
X024471Y007746D01*
X025111Y007106D01*
X025111Y002146D01*
X024791Y001826D01*
X024701Y001606D01*
X027605Y001567D02*
X027671Y001826D01*
X028151Y002306D01*
X018651Y006106D02*
X018391Y006146D01*
X017751Y006146D01*
X017651Y006106D01*
X014231Y008226D02*
X013591Y007586D01*
X013591Y004866D01*
X011671Y005666D02*
X010071Y004066D01*
X008151Y004066D01*
X008151Y002466D01*
X007671Y001986D01*
X007671Y001666D01*
X007351Y001346D01*
X006711Y001346D01*
X006711Y002626D01*
X006651Y003106D01*
X007191Y003426D02*
X006711Y003906D01*
X006071Y003906D01*
X006071Y002626D01*
X005751Y002306D01*
X003831Y002306D01*
X003831Y002626D01*
X003651Y003106D01*
X004471Y003586D02*
X004651Y003106D01*
X005651Y003106D01*
X005591Y003586D01*
X005591Y005666D01*
X005651Y006106D01*
X004651Y006106D02*
X004471Y006466D01*
X003351Y007586D01*
X003151Y007456D01*
X002391Y007266D02*
X002151Y007456D01*
X001911Y007266D01*
X001111Y006466D01*
X001111Y005506D01*
X000791Y005186D01*
X000701Y005056D01*
X001751Y005666D02*
X001651Y006106D01*
X001751Y005666D02*
X002071Y005346D01*
X002071Y001986D01*
X002151Y001806D01*
X004151Y001806D02*
X004151Y001186D01*
X008151Y001186D01*
X008631Y001666D01*
X008631Y002786D01*
X009911Y002786D01*
X010151Y003106D01*
X010551Y003586D02*
X010231Y003906D01*
X008311Y003906D01*
X008311Y001986D01*
X008151Y001806D01*
X007191Y001986D02*
X007151Y001806D01*
X007191Y001986D02*
X007191Y003426D01*
X007651Y003106D02*
X007831Y003586D01*
X007991Y003746D01*
X007991Y005506D01*
X007831Y005666D01*
X007651Y006106D01*
X006871Y005666D02*
X006651Y006106D01*
X006871Y005666D02*
X006871Y005346D01*
X007671Y004546D01*
X009151Y005106D02*
X009271Y005346D01*
X010711Y005346D01*
X010711Y007746D01*
X011671Y008706D01*
X012311Y008386D02*
X011671Y007746D01*
X011671Y005666D01*
X010151Y006106D02*
X009911Y006146D01*
X009271Y006146D01*
X009151Y006106D01*
X009151Y007456D02*
X009111Y007746D01*
X009111Y007906D01*
X007831Y007906D01*
X006391Y009346D01*
X006071Y009346D01*
X005901Y009756D01*
X006901Y009756D02*
X007031Y009346D01*
X008151Y008226D01*
X007031Y007746D02*
X007151Y007456D01*
X007031Y007746D02*
X006551Y008226D01*
X006551Y008866D01*
X004631Y008866D01*
X004151Y009346D01*
X003901Y009756D01*
X002391Y007266D02*
X003191Y006466D01*
X003191Y004866D01*
X004471Y003586D01*
X010551Y003586D02*
X011031Y003586D01*
X011151Y003106D01*
X013151Y007456D02*
X013271Y007746D01*
X013271Y007906D01*
X014071Y008706D01*
X015671Y010786D02*
X015511Y010946D01*
X015511Y012226D01*
D19*
X015991Y011906D03*
X016951Y011746D03*
X016951Y011266D03*
X016311Y011106D03*
X015671Y010786D03*
X013911Y011746D03*
X014871Y011906D03*
X011991Y011586D03*
X011191Y011106D03*
X010871Y011586D03*
X009431Y011586D03*
X007991Y011586D03*
X007511Y011586D03*
X007031Y011266D03*
X003671Y011106D03*
X008151Y008226D03*
X012311Y008386D03*
X014071Y008706D03*
X014871Y008546D03*
X014231Y008226D03*
X016151Y008386D03*
X018711Y008706D03*
X017751Y010626D03*
X018391Y011266D03*
X018871Y010946D03*
X019351Y010946D03*
X019831Y010626D03*
X020311Y010626D03*
X021751Y011106D03*
X022391Y011106D03*
X022871Y010946D03*
X022071Y005186D03*
X024151Y004066D03*
X019351Y004226D03*
X019191Y005026D03*
X015671Y004706D03*
X015031Y004386D03*
X014551Y004386D03*
X013591Y004866D03*
X007671Y004546D03*
D20*
X000321Y004907D02*
X000321Y000875D01*
X028151Y000875D01*
X028151Y002065D01*
X027931Y001845D01*
X027967Y001809D01*
X028032Y001652D01*
X028032Y001482D01*
X027967Y001325D01*
X027847Y001205D01*
X027690Y001140D01*
X027520Y001140D01*
X027363Y001205D01*
X027243Y001325D01*
X027178Y001482D01*
X027178Y001652D01*
X027243Y001809D01*
X027363Y001929D01*
X027487Y001980D01*
X027363Y002032D01*
X027243Y002152D01*
X027178Y002309D01*
X027178Y002479D01*
X025281Y002479D01*
X025281Y002381D02*
X027178Y002381D01*
X027178Y002479D02*
X027243Y002636D01*
X027363Y002756D01*
X027520Y002821D01*
X027690Y002821D01*
X027847Y002756D01*
X027967Y002636D01*
X027981Y002601D01*
X027981Y003210D01*
X027967Y003175D01*
X027847Y003055D01*
X027690Y002990D01*
X027520Y002990D01*
X027363Y003055D01*
X027243Y003175D01*
X027178Y003332D01*
X027178Y003502D01*
X027243Y003659D01*
X027363Y003779D01*
X027460Y003820D01*
X027351Y003865D01*
X027226Y003991D01*
X027158Y004155D01*
X027158Y004205D01*
X027566Y004205D01*
X027566Y004283D01*
X027566Y004691D01*
X027516Y004691D01*
X027351Y004623D01*
X027226Y004497D01*
X027158Y004333D01*
X027158Y004283D01*
X027566Y004283D01*
X027643Y004283D01*
X027643Y004691D01*
X027694Y004691D01*
X027858Y004623D01*
X027981Y004500D01*
X027981Y005206D01*
X025851Y005206D01*
X025851Y006766D01*
X025720Y006766D01*
X025375Y006909D01*
X025281Y007003D01*
X025281Y002075D01*
X025182Y001976D01*
X025046Y001840D01*
X025049Y001838D01*
X025111Y001687D01*
X025111Y001524D01*
X025049Y001373D01*
X024933Y001258D01*
X024783Y001196D01*
X024620Y001196D01*
X024469Y001258D01*
X024354Y001373D01*
X024321Y001452D01*
X024321Y001416D01*
X024321Y001275D01*
X024161Y001115D01*
X024062Y001016D01*
X015742Y001016D01*
X015601Y001016D01*
X015501Y001115D01*
X015501Y001526D01*
X015335Y001361D01*
X014967Y001361D01*
X014706Y001621D01*
X014706Y001990D01*
X014967Y002250D01*
X015326Y002250D01*
X015161Y002416D01*
X015070Y002416D01*
X014919Y002478D01*
X014804Y002593D01*
X014741Y002744D01*
X014741Y003467D01*
X014804Y003618D01*
X014919Y003733D01*
X015070Y003795D01*
X015233Y003795D01*
X015383Y003733D01*
X015499Y003618D01*
X015561Y003467D01*
X015561Y002744D01*
X015499Y002593D01*
X015481Y002576D01*
X015841Y002216D01*
X015841Y002125D01*
X015967Y002250D01*
X016335Y002250D01*
X016596Y001990D01*
X016596Y001621D01*
X016335Y001361D01*
X015967Y001361D01*
X015841Y001486D01*
X015841Y001355D01*
X023343Y001355D01*
X023337Y001362D01*
X023271Y001520D01*
X023271Y001575D01*
X023671Y001575D01*
X023671Y001636D01*
X023671Y002035D01*
X023616Y002035D01*
X023458Y001970D01*
X023337Y001849D01*
X023271Y001691D01*
X021596Y001691D01*
X021596Y001621D02*
X021335Y001361D01*
X020967Y001361D01*
X020706Y001621D01*
X020706Y001990D01*
X020967Y002250D01*
X021335Y002250D01*
X021596Y001990D01*
X021596Y001621D01*
X021567Y001592D02*
X023671Y001592D01*
X023671Y001636D02*
X023271Y001636D01*
X023271Y001691D01*
X023312Y001789D02*
X021596Y001789D01*
X021596Y001888D02*
X023376Y001888D01*
X023498Y001987D02*
X021596Y001987D01*
X021501Y002085D02*
X023981Y002085D01*
X023981Y001987D02*
X023905Y001987D01*
X023945Y001970D02*
X023787Y002035D01*
X023731Y002035D01*
X023731Y001636D01*
X023671Y001636D01*
X023671Y001691D02*
X023731Y001691D01*
X023731Y001789D02*
X023671Y001789D01*
X023671Y001888D02*
X023731Y001888D01*
X023731Y001987D02*
X023671Y001987D01*
X023945Y001970D02*
X023981Y001934D01*
X023981Y002576D01*
X023883Y002478D01*
X023733Y002416D01*
X023570Y002416D01*
X023419Y002478D01*
X023304Y002593D01*
X023241Y002744D01*
X023241Y003467D01*
X023304Y003618D01*
X023419Y003733D01*
X023570Y003795D01*
X023701Y003795D01*
X023021Y004475D01*
X023021Y004616D01*
X023021Y005595D01*
X023016Y005582D01*
X022895Y005461D01*
X022737Y005396D01*
X022681Y005396D01*
X022681Y006075D01*
X022621Y006075D01*
X022621Y005396D01*
X022566Y005396D01*
X022408Y005461D01*
X022287Y005582D01*
X022241Y005692D01*
X022241Y005472D01*
X022258Y005465D01*
X022351Y005372D01*
X022401Y005251D01*
X022401Y005120D01*
X022351Y004999D01*
X022258Y004906D01*
X022137Y004856D01*
X022006Y004856D01*
X021884Y004906D01*
X021791Y004999D01*
X021741Y005120D01*
X021741Y005251D01*
X021791Y005372D01*
X021884Y005465D01*
X021901Y005472D01*
X021901Y005496D01*
X021883Y005478D01*
X021733Y005416D01*
X021570Y005416D01*
X021419Y005478D01*
X021304Y005593D01*
X021241Y005744D01*
X021241Y006467D01*
X021304Y006618D01*
X020998Y006618D01*
X020999Y006618D02*
X020883Y006733D01*
X020733Y006795D01*
X020721Y006795D01*
X020801Y006875D01*
X020801Y007016D01*
X020801Y007176D01*
X020967Y007011D01*
X021335Y007011D01*
X021596Y007271D01*
X021596Y007500D01*
X021901Y007195D01*
X021901Y006715D01*
X021883Y006733D01*
X021733Y006795D01*
X021570Y006795D01*
X021419Y006733D01*
X021304Y006618D01*
X021263Y006520D02*
X021039Y006520D01*
X021061Y006467D02*
X020999Y006618D01*
X020900Y006717D02*
X021403Y006717D01*
X021061Y006467D02*
X021061Y005744D01*
X020999Y005593D01*
X020883Y005478D01*
X020733Y005416D01*
X020570Y005416D01*
X020419Y005478D01*
X020321Y005576D01*
X020321Y005435D01*
X019434Y004548D01*
X019538Y004505D01*
X019631Y004412D01*
X019681Y004291D01*
X019681Y004160D01*
X019631Y004039D01*
X019538Y003946D01*
X019521Y003939D01*
X019521Y003816D01*
X019550Y003787D01*
X019570Y003795D01*
X019733Y003795D01*
X019883Y003733D01*
X019999Y003618D01*
X020061Y003467D01*
X020061Y002744D01*
X019999Y002593D01*
X019883Y002478D01*
X019733Y002416D01*
X019570Y002416D01*
X019419Y002478D01*
X019304Y002593D01*
X019241Y002744D01*
X019241Y003467D01*
X019285Y003572D01*
X019281Y003576D01*
X019181Y003675D01*
X019181Y003939D01*
X019164Y003946D01*
X019071Y004039D01*
X019021Y004160D01*
X019021Y004216D01*
X018161Y004216D01*
X018241Y004136D01*
X018582Y003795D01*
X018733Y003795D01*
X018883Y003733D01*
X018999Y003618D01*
X019061Y003467D01*
X019061Y002744D01*
X018999Y002593D01*
X018883Y002478D01*
X018733Y002416D01*
X018570Y002416D01*
X018419Y002478D01*
X018304Y002593D01*
X018241Y002744D01*
X018241Y003467D01*
X018296Y003600D01*
X018001Y003896D01*
X014622Y003896D01*
X014481Y003896D01*
X014381Y003995D01*
X014381Y004099D01*
X014364Y004106D01*
X014271Y004199D01*
X014221Y004320D01*
X014221Y004451D01*
X014271Y004572D01*
X014364Y004665D01*
X014486Y004715D01*
X014541Y004715D01*
X014541Y005644D01*
X014516Y005582D01*
X014395Y005461D01*
X014237Y005396D01*
X014181Y005396D01*
X014181Y006075D01*
X014121Y006075D01*
X014121Y005396D01*
X014066Y005396D01*
X013908Y005461D01*
X013787Y005582D01*
X013761Y005644D01*
X013761Y005152D01*
X013778Y005145D01*
X013871Y005052D01*
X013921Y004931D01*
X013921Y004800D01*
X013871Y004679D01*
X013778Y004586D01*
X013657Y004536D01*
X013526Y004536D01*
X013404Y004586D01*
X013311Y004679D01*
X013261Y004800D01*
X013261Y004931D01*
X013311Y005052D01*
X013404Y005145D01*
X013421Y005152D01*
X013421Y005516D01*
X013383Y005478D01*
X013233Y005416D01*
X013070Y005416D01*
X012919Y005478D01*
X012804Y005593D01*
X012741Y005744D01*
X012741Y006467D01*
X012804Y006618D01*
X012498Y006618D01*
X012499Y006618D02*
X012383Y006733D01*
X012233Y006795D01*
X012070Y006795D01*
X011919Y006733D01*
X011841Y006655D01*
X011841Y007136D01*
X011967Y007011D01*
X012335Y007011D01*
X012596Y007271D01*
X012596Y007640D01*
X012335Y007900D01*
X012066Y007900D01*
X012229Y008063D01*
X012246Y008056D01*
X012377Y008056D01*
X012498Y008106D01*
X012591Y008199D01*
X012641Y008320D01*
X012641Y008451D01*
X012591Y008572D01*
X012498Y008665D01*
X012377Y008715D01*
X012246Y008715D01*
X012124Y008665D01*
X012031Y008572D01*
X011981Y008451D01*
X011981Y008320D01*
X011988Y008303D01*
X011601Y007915D01*
X011501Y007816D01*
X011501Y007735D01*
X011335Y007900D01*
X010967Y007900D01*
X010706Y007640D01*
X010706Y007271D01*
X010967Y007011D01*
X011335Y007011D01*
X011501Y007176D01*
X011501Y006612D01*
X011499Y006618D01*
X011383Y006733D01*
X011233Y006795D01*
X011070Y006795D01*
X010919Y006733D01*
X010804Y006618D01*
X010498Y006618D01*
X010499Y006618D02*
X010383Y006733D01*
X010233Y006795D01*
X010070Y006795D01*
X009919Y006733D01*
X009804Y006618D01*
X009184Y006618D01*
X009182Y006616D02*
X009761Y007195D01*
X009761Y007216D01*
X009967Y007011D01*
X010335Y007011D01*
X010596Y007271D01*
X010596Y007640D01*
X010335Y007900D01*
X009986Y007900D01*
X011201Y009115D01*
X011320Y009066D01*
X011483Y009066D01*
X011633Y009128D01*
X011749Y009243D01*
X011811Y009394D01*
X011811Y010117D01*
X011749Y010268D01*
X011633Y010383D01*
X011483Y010445D01*
X011320Y010445D01*
X011169Y010383D01*
X011054Y010268D01*
X010991Y010117D01*
X010991Y009394D01*
X010994Y009388D01*
X009521Y007915D01*
X009421Y007816D01*
X009421Y007815D01*
X009335Y007900D01*
X009281Y007900D01*
X009281Y007976D01*
X009182Y008075D01*
X009041Y008075D01*
X008446Y008075D01*
X008481Y008160D01*
X008481Y008291D01*
X008431Y008412D01*
X008338Y008505D01*
X008217Y008555D01*
X008086Y008555D01*
X008069Y008548D01*
X007285Y009332D01*
X007311Y009394D01*
X007311Y010117D01*
X007249Y010268D01*
X007133Y010383D01*
X006983Y010445D01*
X006820Y010445D01*
X006669Y010383D01*
X006554Y010268D01*
X006491Y010117D01*
X006491Y009486D01*
X006462Y009515D01*
X006321Y009515D01*
X006311Y009515D01*
X006311Y010117D01*
X006249Y010268D01*
X006133Y010383D01*
X005983Y010445D01*
X005820Y010445D01*
X005669Y010383D01*
X005554Y010268D01*
X005491Y010117D01*
X005491Y009394D01*
X005554Y009243D01*
X005669Y009128D01*
X005820Y009066D01*
X005983Y009066D01*
X006133Y009128D01*
X006181Y009176D01*
X006321Y009176D01*
X006461Y009035D01*
X004702Y009035D01*
X004311Y009426D01*
X004311Y010117D01*
X004249Y010268D01*
X004133Y010383D01*
X003983Y010445D01*
X003820Y010445D01*
X003669Y010383D01*
X003554Y010268D01*
X003521Y010189D01*
X003521Y010535D01*
X003601Y010456D01*
X003742Y010456D01*
X009361Y010456D01*
X009371Y010445D01*
X009320Y010445D01*
X009169Y010383D01*
X009054Y010268D01*
X008991Y010117D01*
X008991Y009394D01*
X009054Y009243D01*
X009169Y009128D01*
X009320Y009066D01*
X009483Y009066D01*
X009633Y009128D01*
X009749Y009243D01*
X009811Y009394D01*
X009811Y010005D01*
X009841Y009976D01*
X009982Y009976D01*
X009991Y009976D01*
X009991Y009394D01*
X010054Y009243D01*
X010169Y009128D01*
X010320Y009066D01*
X010483Y009066D01*
X010633Y009128D01*
X010749Y009243D01*
X010811Y009394D01*
X010811Y010117D01*
X010749Y010268D01*
X010633Y010383D01*
X010483Y010445D01*
X010320Y010445D01*
X010169Y010383D01*
X010101Y010315D01*
X009982Y010315D01*
X009681Y010616D01*
X011441Y010616D01*
X011991Y010065D01*
X011991Y009394D01*
X012054Y009243D01*
X012169Y009128D01*
X012320Y009066D01*
X012483Y009066D01*
X012633Y009128D01*
X012749Y009243D01*
X012811Y009394D01*
X012811Y010117D01*
X012749Y010268D01*
X012633Y010383D01*
X012483Y010445D01*
X012320Y010445D01*
X012169Y010383D01*
X012161Y010376D01*
X011681Y010856D01*
X011582Y010955D01*
X011486Y010955D01*
X011521Y011040D01*
X011521Y011171D01*
X011471Y011292D01*
X011378Y011385D01*
X011361Y011392D01*
X011361Y011995D01*
X011432Y012066D01*
X011483Y012066D01*
X011633Y012128D01*
X011749Y012243D01*
X011811Y012394D01*
X011811Y013117D01*
X011749Y013268D01*
X011633Y013383D01*
X011483Y013445D01*
X011320Y013445D01*
X011169Y013383D01*
X011054Y013268D01*
X011041Y013238D01*
X011041Y013706D01*
X011821Y013706D01*
X011821Y011872D01*
X011804Y011865D01*
X011711Y011772D01*
X011661Y011651D01*
X011661Y011520D01*
X011711Y011399D01*
X011804Y011306D01*
X011926Y011256D01*
X012057Y011256D01*
X012178Y011306D01*
X012271Y011399D01*
X012321Y011520D01*
X012321Y011651D01*
X012271Y011772D01*
X012178Y011865D01*
X012161Y011872D01*
X012161Y012136D01*
X012169Y012128D01*
X012320Y012066D01*
X012483Y012066D01*
X012633Y012128D01*
X012749Y012243D01*
X012781Y012322D01*
X012781Y011816D01*
X012781Y011675D01*
X012781Y010856D01*
X012781Y010715D01*
X013141Y010355D01*
X013054Y010268D01*
X012991Y010117D01*
X012991Y009394D01*
X013054Y009243D01*
X013169Y009128D01*
X013320Y009066D01*
X013483Y009066D01*
X013633Y009128D01*
X013749Y009243D01*
X013811Y009394D01*
X013811Y010117D01*
X013749Y010268D01*
X013633Y010383D01*
X013566Y010411D01*
X013555Y010422D01*
X013511Y010471D01*
X013505Y010472D01*
X013121Y010856D01*
X013121Y011576D01*
X013624Y011576D01*
X013631Y011559D01*
X013724Y011466D01*
X013846Y011416D01*
X013977Y011416D01*
X014098Y011466D01*
X014191Y011559D01*
X014221Y011632D01*
X014221Y010405D01*
X014169Y010383D01*
X014054Y010268D01*
X013991Y010117D01*
X013991Y009394D01*
X014054Y009243D01*
X014169Y009128D01*
X014320Y009066D01*
X014381Y009066D01*
X014381Y008819D01*
X014351Y008892D01*
X014258Y008985D01*
X014137Y009035D01*
X014006Y009035D01*
X013884Y008985D01*
X013791Y008892D01*
X013741Y008771D01*
X013741Y008640D01*
X013748Y008623D01*
X013201Y008075D01*
X013101Y007976D01*
X013101Y007900D01*
X012967Y007900D01*
X012706Y007640D01*
X012706Y007271D01*
X012967Y007011D01*
X013335Y007011D01*
X013421Y007096D01*
X013421Y006695D01*
X013383Y006733D01*
X013233Y006795D01*
X013070Y006795D01*
X012919Y006733D01*
X012804Y006618D01*
X012763Y006520D02*
X012539Y006520D01*
X012561Y006467D02*
X012499Y006618D01*
X012400Y006717D02*
X012903Y006717D01*
X012561Y006467D02*
X012561Y005744D01*
X012499Y005593D01*
X012383Y005478D01*
X012233Y005416D01*
X012070Y005416D01*
X011919Y005478D01*
X011821Y005575D01*
X010312Y004066D01*
X010401Y003976D01*
X010622Y003755D01*
X010973Y003755D01*
X011070Y003795D01*
X011233Y003795D01*
X011383Y003733D01*
X011499Y003618D01*
X011561Y003467D01*
X011561Y002744D01*
X011499Y002593D01*
X011383Y002478D01*
X011233Y002416D01*
X011070Y002416D01*
X010919Y002478D01*
X010804Y002593D01*
X010741Y002744D01*
X010741Y003416D01*
X010622Y003416D01*
X010561Y003416D01*
X010561Y002744D01*
X010499Y002593D01*
X010383Y002478D01*
X010233Y002416D01*
X010070Y002416D01*
X009919Y002478D01*
X009804Y002593D01*
X009794Y002616D01*
X008801Y002616D01*
X008801Y002085D01*
X008802Y002085D01*
X008801Y002085D02*
X008967Y002250D01*
X009335Y002250D01*
X009596Y001990D01*
X009596Y001621D01*
X009335Y001361D01*
X008967Y001361D01*
X008767Y001561D01*
X008321Y001115D01*
X008222Y001016D01*
X004222Y001016D01*
X004081Y001016D01*
X003981Y001115D01*
X003981Y001361D01*
X003967Y001361D01*
X003706Y001621D01*
X003706Y001990D01*
X003852Y002136D01*
X003761Y002136D01*
X003661Y002235D01*
X003661Y002416D01*
X003570Y002416D01*
X003419Y002478D01*
X003304Y002593D01*
X003241Y002744D01*
X003241Y003467D01*
X003304Y003618D01*
X003419Y003733D01*
X003570Y003795D01*
X003733Y003795D01*
X003883Y003733D01*
X003999Y003618D01*
X004061Y003467D01*
X004061Y002744D01*
X004012Y002626D01*
X004015Y002619D01*
X004001Y002589D01*
X004001Y002475D01*
X004393Y002475D01*
X004287Y002582D01*
X004221Y002740D01*
X004221Y003075D01*
X004621Y003075D01*
X004621Y003136D01*
X004621Y003815D01*
X004566Y003815D01*
X004408Y003750D01*
X004287Y003629D01*
X004221Y003471D01*
X004221Y003136D01*
X004621Y003136D01*
X004681Y003136D01*
X004681Y003815D01*
X004737Y003815D01*
X004895Y003750D01*
X005016Y003629D01*
X005081Y003471D01*
X005081Y003136D01*
X004681Y003136D01*
X004681Y003075D01*
X005081Y003075D01*
X005081Y002740D01*
X005016Y002582D01*
X004909Y002475D01*
X005393Y002475D01*
X005287Y002582D01*
X005221Y002740D01*
X005221Y003075D01*
X005621Y003075D01*
X005621Y003136D01*
X005621Y003815D01*
X005566Y003815D01*
X005408Y003750D01*
X005287Y003629D01*
X005221Y003471D01*
X005221Y003136D01*
X005621Y003136D01*
X005681Y003136D01*
X005681Y003815D01*
X005737Y003815D01*
X005895Y003750D01*
X005901Y003744D01*
X005901Y003976D01*
X006001Y004075D01*
X006142Y004075D01*
X006782Y004075D01*
X006881Y003976D01*
X007285Y003572D01*
X007304Y003618D01*
X007419Y003733D01*
X007570Y003795D01*
X007733Y003795D01*
X007781Y003776D01*
X007821Y003816D01*
X007821Y004250D01*
X007737Y004216D01*
X007606Y004216D01*
X007484Y004266D01*
X007391Y004359D01*
X007341Y004480D01*
X007341Y004611D01*
X007348Y004628D01*
X006801Y005176D01*
X006701Y005275D01*
X006701Y005416D01*
X006570Y005416D01*
X006419Y005478D01*
X006304Y005593D01*
X006241Y005744D01*
X006241Y006467D01*
X006303Y006616D01*
X006021Y006616D01*
X006081Y006471D01*
X006081Y006136D01*
X005681Y006136D01*
X005681Y006075D01*
X005681Y005396D01*
X005737Y005396D01*
X005895Y005461D01*
X006016Y005582D01*
X006081Y005740D01*
X006081Y006075D01*
X005681Y006075D01*
X005621Y006075D01*
X005621Y005396D01*
X005566Y005396D01*
X005408Y005461D01*
X005287Y005582D01*
X005221Y005740D01*
X005221Y006075D01*
X005621Y006075D01*
X005621Y006136D01*
X005221Y006136D01*
X005221Y006471D01*
X005281Y006616D01*
X005000Y006616D01*
X005061Y006467D01*
X005061Y005744D01*
X004999Y005593D01*
X004883Y005478D01*
X004733Y005416D01*
X004570Y005416D01*
X004419Y005478D01*
X004304Y005593D01*
X004241Y005744D01*
X004241Y006455D01*
X003511Y007186D01*
X003335Y007011D01*
X002967Y007011D01*
X002706Y007271D01*
X002706Y007640D01*
X002967Y007900D01*
X003335Y007900D01*
X003596Y007640D01*
X003596Y007581D01*
X003706Y007471D01*
X003706Y007640D01*
X003967Y007900D01*
X004335Y007900D01*
X004461Y007775D01*
X004461Y007995D01*
X003281Y009176D01*
X003231Y009225D01*
X003133Y009128D01*
X002983Y009066D01*
X002820Y009066D01*
X002669Y009128D01*
X002554Y009243D01*
X002491Y009394D01*
X002491Y010117D01*
X002554Y010268D01*
X002669Y010383D01*
X002820Y010445D01*
X002983Y010445D01*
X003133Y010383D01*
X003181Y010335D01*
X003181Y011835D01*
X002951Y012066D01*
X002820Y012066D01*
X002669Y012128D01*
X002554Y012243D01*
X002491Y012394D01*
X002491Y013117D01*
X002554Y013268D01*
X002669Y013383D01*
X002820Y013445D01*
X002861Y013445D01*
X002861Y013706D01*
X002241Y013706D01*
X002241Y013275D01*
X002249Y013268D01*
X002311Y013117D01*
X002311Y012394D01*
X002249Y012243D01*
X002133Y012128D01*
X001983Y012066D01*
X001820Y012066D01*
X001669Y012128D01*
X001554Y012243D01*
X001491Y012394D01*
X001491Y013117D01*
X001554Y013268D01*
X001669Y013383D01*
X001820Y013445D01*
X001901Y013445D01*
X001901Y013706D01*
X001281Y013706D01*
X001281Y013214D01*
X001295Y013174D01*
X001291Y013166D01*
X001311Y013117D01*
X001311Y012394D01*
X001249Y012243D01*
X001133Y012128D01*
X000983Y012066D01*
X000820Y012066D01*
X000669Y012128D01*
X000554Y012243D01*
X000491Y012394D01*
X000491Y013117D01*
X000554Y013268D01*
X000669Y013383D01*
X000820Y013445D01*
X000941Y013445D01*
X000941Y013706D01*
X000321Y013706D01*
X000321Y006151D01*
X000372Y006275D01*
X000481Y006384D01*
X000624Y006443D01*
X000778Y006443D01*
X000921Y006384D01*
X001030Y006275D01*
X001089Y006133D01*
X001089Y005978D01*
X001030Y005836D01*
X000921Y005727D01*
X000778Y005668D01*
X000624Y005668D01*
X000481Y005727D01*
X000372Y005836D01*
X000321Y005960D01*
X000321Y005204D01*
X000355Y005286D01*
X000470Y005401D01*
X000620Y005463D01*
X000682Y005463D01*
X000682Y005075D01*
X000720Y005075D01*
X000720Y005463D01*
X000782Y005463D01*
X000932Y005401D01*
X001047Y005286D01*
X001109Y005137D01*
X001109Y005074D01*
X000720Y005074D01*
X000720Y005037D01*
X001109Y005037D01*
X001109Y004974D01*
X001047Y004824D01*
X000932Y004710D01*
X000782Y004648D01*
X000720Y004648D01*
X000720Y005036D01*
X000682Y005036D01*
X000682Y004648D01*
X000620Y004648D01*
X000470Y004710D01*
X000355Y004824D01*
X000321Y004907D01*
X000321Y004844D02*
X000347Y004844D01*
X000321Y004746D02*
X000434Y004746D01*
X000321Y004647D02*
X001901Y004647D01*
X001901Y004549D02*
X000321Y004549D01*
X000321Y004450D02*
X001901Y004450D01*
X001901Y004352D02*
X000321Y004352D01*
X000321Y004253D02*
X001901Y004253D01*
X001901Y004155D02*
X000321Y004155D01*
X000321Y004056D02*
X001901Y004056D01*
X001901Y003957D02*
X000321Y003957D01*
X000321Y003859D02*
X001901Y003859D01*
X001901Y003760D02*
X001818Y003760D01*
X001883Y003733D02*
X001733Y003795D01*
X001570Y003795D01*
X001419Y003733D01*
X001304Y003618D01*
X001241Y003467D01*
X001241Y002744D01*
X001304Y002593D01*
X001419Y002478D01*
X001570Y002416D01*
X001733Y002416D01*
X001883Y002478D01*
X001901Y002496D01*
X001901Y002185D01*
X001706Y001990D01*
X001706Y001621D01*
X001967Y001361D01*
X002335Y001361D01*
X002596Y001621D01*
X002596Y001990D01*
X002335Y002250D01*
X002241Y002250D01*
X002241Y005275D01*
X002241Y005416D01*
X002018Y005639D01*
X002061Y005744D01*
X002061Y006467D01*
X001999Y006618D01*
X001883Y006733D01*
X001733Y006795D01*
X001570Y006795D01*
X001419Y006733D01*
X001304Y006618D01*
X000321Y006618D01*
X000321Y006520D02*
X001263Y006520D01*
X001241Y006467D02*
X001304Y006618D01*
X001403Y006717D02*
X000321Y006717D01*
X000321Y006815D02*
X003881Y006815D01*
X003883Y006733D02*
X003733Y006795D01*
X003570Y006795D01*
X003419Y006733D01*
X003304Y006618D01*
X002998Y006618D01*
X002999Y006618D02*
X002883Y006733D01*
X002733Y006795D01*
X002570Y006795D01*
X002419Y006733D01*
X002304Y006618D01*
X001998Y006618D01*
X002039Y006520D02*
X002263Y006520D01*
X002241Y006467D02*
X002304Y006618D01*
X002403Y006717D02*
X001900Y006717D01*
X001959Y006991D02*
X002111Y006991D01*
X002111Y007415D01*
X002191Y007415D01*
X002191Y006991D01*
X002344Y006991D01*
X002616Y007263D01*
X002616Y007415D01*
X002191Y007415D01*
X002191Y007496D01*
X002111Y007496D01*
X002111Y007920D01*
X001959Y007920D01*
X001686Y007648D01*
X001686Y007496D01*
X002111Y007496D01*
X002111Y007415D01*
X001686Y007415D01*
X001686Y007263D01*
X001959Y006991D01*
X001937Y007012D02*
X000321Y007012D01*
X000321Y006914D02*
X003783Y006914D01*
X003684Y007012D02*
X003337Y007012D01*
X003436Y007111D02*
X003585Y007111D01*
X003672Y007505D02*
X003706Y007505D01*
X003706Y007604D02*
X003596Y007604D01*
X003534Y007702D02*
X003768Y007702D01*
X003867Y007801D02*
X003435Y007801D01*
X003337Y007899D02*
X003966Y007899D01*
X004337Y007899D02*
X004461Y007899D01*
X004461Y007801D02*
X004435Y007801D01*
X004459Y007998D02*
X000321Y007998D01*
X000321Y008096D02*
X004360Y008096D01*
X004261Y008195D02*
X000321Y008195D01*
X000321Y008293D02*
X004163Y008293D01*
X004064Y008392D02*
X000321Y008392D01*
X000321Y008490D02*
X003966Y008490D01*
X003867Y008589D02*
X000321Y008589D01*
X000321Y008688D02*
X003769Y008688D01*
X003670Y008786D02*
X000321Y008786D01*
X000321Y008885D02*
X003572Y008885D01*
X003473Y008983D02*
X000321Y008983D01*
X000321Y009082D02*
X000781Y009082D01*
X000820Y009066D02*
X000983Y009066D01*
X001133Y009128D01*
X001249Y009243D01*
X001311Y009394D01*
X001311Y010117D01*
X001249Y010268D01*
X001133Y010383D01*
X000983Y010445D01*
X000820Y010445D01*
X000669Y010383D01*
X000554Y010268D01*
X000491Y010117D01*
X000491Y009394D01*
X000554Y009243D01*
X000669Y009128D01*
X000820Y009066D01*
X001022Y009082D02*
X001781Y009082D01*
X001820Y009066D02*
X001983Y009066D01*
X002133Y009128D01*
X002249Y009243D01*
X002311Y009394D01*
X002311Y010117D01*
X002249Y010268D01*
X002133Y010383D01*
X001983Y010445D01*
X001820Y010445D01*
X001669Y010383D01*
X001554Y010268D01*
X001491Y010117D01*
X001491Y009394D01*
X001554Y009243D01*
X001669Y009128D01*
X001820Y009066D01*
X002022Y009082D02*
X002781Y009082D01*
X002617Y009180D02*
X002186Y009180D01*
X002263Y009279D02*
X002539Y009279D01*
X002498Y009377D02*
X002304Y009377D01*
X002311Y009476D02*
X002491Y009476D01*
X002491Y009574D02*
X002311Y009574D01*
X002311Y009673D02*
X002491Y009673D01*
X002491Y009771D02*
X002311Y009771D01*
X002311Y009870D02*
X002491Y009870D01*
X002491Y009969D02*
X002311Y009969D01*
X002311Y010067D02*
X002491Y010067D01*
X002511Y010166D02*
X002291Y010166D01*
X002250Y010264D02*
X002552Y010264D01*
X002649Y010363D02*
X002154Y010363D01*
X001649Y010363D02*
X001154Y010363D01*
X001250Y010264D02*
X001552Y010264D01*
X001511Y010166D02*
X001291Y010166D01*
X001311Y010067D02*
X001491Y010067D01*
X001491Y009969D02*
X001311Y009969D01*
X001311Y009870D02*
X001491Y009870D01*
X001491Y009771D02*
X001311Y009771D01*
X001311Y009673D02*
X001491Y009673D01*
X001491Y009574D02*
X001311Y009574D01*
X001311Y009476D02*
X001491Y009476D01*
X001498Y009377D02*
X001304Y009377D01*
X001263Y009279D02*
X001539Y009279D01*
X001617Y009180D02*
X001186Y009180D01*
X000617Y009180D02*
X000321Y009180D01*
X000321Y009279D02*
X000539Y009279D01*
X000498Y009377D02*
X000321Y009377D01*
X000321Y009476D02*
X000491Y009476D01*
X000491Y009574D02*
X000321Y009574D01*
X000321Y009673D02*
X000491Y009673D01*
X000491Y009771D02*
X000321Y009771D01*
X000321Y009870D02*
X000491Y009870D01*
X000491Y009969D02*
X000321Y009969D01*
X000321Y010067D02*
X000491Y010067D01*
X000511Y010166D02*
X000321Y010166D01*
X000321Y010264D02*
X000552Y010264D01*
X000649Y010363D02*
X000321Y010363D01*
X000321Y010461D02*
X003181Y010461D01*
X003181Y010363D02*
X003154Y010363D01*
X003181Y010560D02*
X000321Y010560D01*
X000321Y010658D02*
X003181Y010658D01*
X003181Y010757D02*
X000321Y010757D01*
X000321Y010855D02*
X003181Y010855D01*
X003181Y010954D02*
X000321Y010954D01*
X000321Y011053D02*
X003181Y011053D01*
X003181Y011151D02*
X000321Y011151D01*
X000321Y011250D02*
X003181Y011250D01*
X003181Y011348D02*
X000321Y011348D01*
X000321Y011447D02*
X003181Y011447D01*
X003181Y011545D02*
X000321Y011545D01*
X000321Y011644D02*
X003181Y011644D01*
X003181Y011742D02*
X000321Y011742D01*
X000321Y011841D02*
X003175Y011841D01*
X003077Y011939D02*
X000321Y011939D01*
X000321Y012038D02*
X002978Y012038D01*
X002660Y012137D02*
X002142Y012137D01*
X002241Y012235D02*
X002562Y012235D01*
X002516Y012334D02*
X002286Y012334D01*
X002311Y012432D02*
X002491Y012432D01*
X002491Y012531D02*
X002311Y012531D01*
X002311Y012629D02*
X002491Y012629D01*
X002491Y012728D02*
X002311Y012728D01*
X002311Y012826D02*
X002491Y012826D01*
X002491Y012925D02*
X002311Y012925D01*
X002311Y013023D02*
X002491Y013023D01*
X002493Y013122D02*
X002309Y013122D01*
X002268Y013221D02*
X002534Y013221D01*
X002605Y013319D02*
X002241Y013319D01*
X002241Y013418D02*
X002752Y013418D01*
X002861Y013516D02*
X002241Y013516D01*
X002241Y013615D02*
X002861Y013615D01*
X001901Y013615D02*
X001281Y013615D01*
X001281Y013516D02*
X001901Y013516D01*
X001752Y013418D02*
X001281Y013418D01*
X001281Y013319D02*
X001605Y013319D01*
X001534Y013221D02*
X001281Y013221D01*
X001309Y013122D02*
X001493Y013122D01*
X001491Y013023D02*
X001311Y013023D01*
X001311Y012925D02*
X001491Y012925D01*
X001491Y012826D02*
X001311Y012826D01*
X001311Y012728D02*
X001491Y012728D01*
X001491Y012629D02*
X001311Y012629D01*
X001311Y012531D02*
X001491Y012531D01*
X001491Y012432D02*
X001311Y012432D01*
X001286Y012334D02*
X001516Y012334D01*
X001562Y012235D02*
X001241Y012235D01*
X001142Y012137D02*
X001660Y012137D01*
X000660Y012137D02*
X000321Y012137D01*
X000321Y012235D02*
X000562Y012235D01*
X000516Y012334D02*
X000321Y012334D01*
X000321Y012432D02*
X000491Y012432D01*
X000491Y012531D02*
X000321Y012531D01*
X000321Y012629D02*
X000491Y012629D01*
X000491Y012728D02*
X000321Y012728D01*
X000321Y012826D02*
X000491Y012826D01*
X000491Y012925D02*
X000321Y012925D01*
X000321Y013023D02*
X000491Y013023D01*
X000493Y013122D02*
X000321Y013122D01*
X000321Y013221D02*
X000534Y013221D01*
X000605Y013319D02*
X000321Y013319D01*
X000321Y013418D02*
X000752Y013418D01*
X000941Y013516D02*
X000321Y013516D01*
X000321Y013615D02*
X000941Y013615D01*
X003521Y010461D02*
X003595Y010461D01*
X003649Y010363D02*
X003521Y010363D01*
X003521Y010264D02*
X003552Y010264D01*
X004154Y010363D02*
X004649Y010363D01*
X004669Y010383D02*
X004554Y010268D01*
X004491Y010117D01*
X004491Y009394D01*
X004554Y009243D01*
X004669Y009128D01*
X004820Y009066D01*
X004983Y009066D01*
X005133Y009128D01*
X005249Y009243D01*
X005311Y009394D01*
X005311Y010117D01*
X005249Y010268D01*
X005133Y010383D01*
X004983Y010445D01*
X004820Y010445D01*
X004669Y010383D01*
X004552Y010264D02*
X004250Y010264D01*
X004291Y010166D02*
X004511Y010166D01*
X004491Y010067D02*
X004311Y010067D01*
X004311Y009969D02*
X004491Y009969D01*
X004491Y009870D02*
X004311Y009870D01*
X004311Y009771D02*
X004491Y009771D01*
X004491Y009673D02*
X004311Y009673D01*
X004311Y009574D02*
X004491Y009574D01*
X004491Y009476D02*
X004311Y009476D01*
X004360Y009377D02*
X004498Y009377D01*
X004458Y009279D02*
X004539Y009279D01*
X004557Y009180D02*
X004617Y009180D01*
X004655Y009082D02*
X004781Y009082D01*
X005022Y009082D02*
X005781Y009082D01*
X005617Y009180D02*
X005186Y009180D01*
X005263Y009279D02*
X005539Y009279D01*
X005498Y009377D02*
X005304Y009377D01*
X005311Y009476D02*
X005491Y009476D01*
X005491Y009574D02*
X005311Y009574D01*
X005311Y009673D02*
X005491Y009673D01*
X005491Y009771D02*
X005311Y009771D01*
X005311Y009870D02*
X005491Y009870D01*
X005491Y009969D02*
X005311Y009969D01*
X005311Y010067D02*
X005491Y010067D01*
X005511Y010166D02*
X005291Y010166D01*
X005250Y010264D02*
X005552Y010264D01*
X005649Y010363D02*
X005154Y010363D01*
X006154Y010363D02*
X006649Y010363D01*
X006552Y010264D02*
X006250Y010264D01*
X006291Y010166D02*
X006511Y010166D01*
X006491Y010067D02*
X006311Y010067D01*
X006311Y009969D02*
X006491Y009969D01*
X006491Y009870D02*
X006311Y009870D01*
X006311Y009771D02*
X006491Y009771D01*
X006491Y009673D02*
X006311Y009673D01*
X006311Y009574D02*
X006491Y009574D01*
X007311Y009574D02*
X007491Y009574D01*
X007491Y009476D02*
X007311Y009476D01*
X007304Y009377D02*
X007498Y009377D01*
X007491Y009394D02*
X007554Y009243D01*
X007669Y009128D01*
X007820Y009066D01*
X007983Y009066D01*
X008133Y009128D01*
X008249Y009243D01*
X008311Y009394D01*
X008311Y010117D01*
X008249Y010268D01*
X008133Y010383D01*
X007983Y010445D01*
X007820Y010445D01*
X007669Y010383D01*
X007554Y010268D01*
X007491Y010117D01*
X007491Y009394D01*
X007539Y009279D02*
X007338Y009279D01*
X007437Y009180D02*
X007617Y009180D01*
X007535Y009082D02*
X007781Y009082D01*
X007634Y008983D02*
X010588Y008983D01*
X010522Y009082D02*
X010687Y009082D01*
X010686Y009180D02*
X010786Y009180D01*
X010763Y009279D02*
X010884Y009279D01*
X010804Y009377D02*
X010983Y009377D01*
X010991Y009476D02*
X010811Y009476D01*
X010811Y009574D02*
X010991Y009574D01*
X010991Y009673D02*
X010811Y009673D01*
X010811Y009771D02*
X010991Y009771D01*
X010991Y009870D02*
X010811Y009870D01*
X010811Y009969D02*
X010991Y009969D01*
X010991Y010067D02*
X010811Y010067D01*
X010791Y010166D02*
X011011Y010166D01*
X011052Y010264D02*
X010750Y010264D01*
X010654Y010363D02*
X011149Y010363D01*
X011496Y010560D02*
X009737Y010560D01*
X009836Y010461D02*
X011595Y010461D01*
X011654Y010363D02*
X011694Y010363D01*
X011750Y010264D02*
X011792Y010264D01*
X011791Y010166D02*
X011891Y010166D01*
X011811Y010067D02*
X011989Y010067D01*
X011991Y009969D02*
X011811Y009969D01*
X011811Y009870D02*
X011991Y009870D01*
X011991Y009771D02*
X011811Y009771D01*
X011811Y009673D02*
X011991Y009673D01*
X011991Y009574D02*
X011811Y009574D01*
X011811Y009476D02*
X011991Y009476D01*
X011998Y009377D02*
X011804Y009377D01*
X011763Y009279D02*
X012039Y009279D01*
X012117Y009180D02*
X011686Y009180D01*
X011522Y009082D02*
X012281Y009082D01*
X012522Y009082D02*
X013281Y009082D01*
X013117Y009180D02*
X012686Y009180D01*
X012763Y009279D02*
X013039Y009279D01*
X012998Y009377D02*
X012804Y009377D01*
X012811Y009476D02*
X012991Y009476D01*
X012991Y009574D02*
X012811Y009574D01*
X012811Y009673D02*
X012991Y009673D01*
X012991Y009771D02*
X012811Y009771D01*
X012811Y009870D02*
X012991Y009870D01*
X012991Y009969D02*
X012811Y009969D01*
X012811Y010067D02*
X012991Y010067D01*
X013011Y010166D02*
X012791Y010166D01*
X012750Y010264D02*
X013052Y010264D01*
X013134Y010363D02*
X012654Y010363D01*
X012936Y010560D02*
X011977Y010560D01*
X011879Y010658D02*
X012838Y010658D01*
X012781Y010757D02*
X011780Y010757D01*
X011682Y010855D02*
X012781Y010855D01*
X012781Y010954D02*
X011583Y010954D01*
X011521Y011053D02*
X012781Y011053D01*
X012781Y011151D02*
X011521Y011151D01*
X011489Y011250D02*
X012781Y011250D01*
X012781Y011348D02*
X012221Y011348D01*
X012291Y011447D02*
X012781Y011447D01*
X012781Y011545D02*
X012321Y011545D01*
X012321Y011644D02*
X012781Y011644D01*
X012781Y011742D02*
X012283Y011742D01*
X012202Y011841D02*
X012781Y011841D01*
X012781Y011939D02*
X012161Y011939D01*
X012161Y012038D02*
X012781Y012038D01*
X012781Y012137D02*
X012642Y012137D01*
X012741Y012235D02*
X012781Y012235D01*
X011821Y012235D02*
X011741Y012235D01*
X011786Y012334D02*
X011821Y012334D01*
X011811Y012432D02*
X011821Y012432D01*
X011811Y012531D02*
X011821Y012531D01*
X011811Y012629D02*
X011821Y012629D01*
X011811Y012728D02*
X011821Y012728D01*
X011811Y012826D02*
X011821Y012826D01*
X011811Y012925D02*
X011821Y012925D01*
X011811Y013023D02*
X011821Y013023D01*
X011809Y013122D02*
X011821Y013122D01*
X011821Y013221D02*
X011768Y013221D01*
X011821Y013319D02*
X011697Y013319D01*
X011821Y013418D02*
X011550Y013418D01*
X011821Y013516D02*
X011041Y013516D01*
X011041Y013418D02*
X011252Y013418D01*
X011105Y013319D02*
X011041Y013319D01*
X010701Y013315D02*
X010633Y013383D01*
X010483Y013445D01*
X010320Y013445D01*
X010169Y013383D01*
X010054Y013268D01*
X009991Y013117D01*
X009991Y012394D01*
X009994Y012388D01*
X009514Y011908D01*
X009497Y011915D01*
X009366Y011915D01*
X009244Y011865D01*
X009151Y011772D01*
X009101Y011651D01*
X009101Y011520D01*
X009151Y011399D01*
X009244Y011306D01*
X009366Y011256D01*
X009497Y011256D01*
X009618Y011306D01*
X009711Y011399D01*
X009761Y011520D01*
X009761Y011651D01*
X009754Y011668D01*
X010201Y012115D01*
X010320Y012066D01*
X010483Y012066D01*
X010633Y012128D01*
X010701Y012196D01*
X010701Y011872D01*
X010684Y011865D01*
X010591Y011772D01*
X010541Y011651D01*
X010541Y011520D01*
X010591Y011399D01*
X010684Y011306D01*
X010806Y011256D01*
X010896Y011256D01*
X010861Y011171D01*
X010861Y011040D01*
X010896Y010955D01*
X007145Y010955D01*
X007218Y010986D01*
X007311Y011079D01*
X007354Y011182D01*
X007441Y011096D01*
X007582Y011096D01*
X008222Y011096D01*
X008321Y011195D01*
X008481Y011355D01*
X008481Y011496D01*
X008481Y013706D01*
X010701Y013706D01*
X010701Y013315D01*
X010701Y013319D02*
X010697Y013319D01*
X010701Y013418D02*
X010550Y013418D01*
X010701Y013516D02*
X008481Y013516D01*
X008481Y013418D02*
X009200Y013418D01*
X009158Y013400D02*
X009037Y013279D01*
X008971Y013121D01*
X008971Y012786D01*
X009371Y012786D01*
X009371Y013465D01*
X009316Y013465D01*
X009158Y013400D01*
X009077Y013319D02*
X008481Y013319D01*
X008481Y013221D02*
X009012Y013221D01*
X008972Y013122D02*
X008481Y013122D01*
X008481Y013023D02*
X008971Y013023D01*
X008971Y012925D02*
X008481Y012925D01*
X008481Y012826D02*
X008971Y012826D01*
X008971Y012725D02*
X008971Y012390D01*
X009037Y012232D01*
X009158Y012111D01*
X009316Y012046D01*
X009371Y012046D01*
X009371Y012725D01*
X009431Y012725D01*
X009431Y012046D01*
X009487Y012046D01*
X009645Y012111D01*
X009766Y012232D01*
X009831Y012390D01*
X009831Y012725D01*
X009431Y012725D01*
X009431Y012786D01*
X009371Y012786D01*
X009371Y012725D01*
X008971Y012725D01*
X008971Y012629D02*
X008481Y012629D01*
X008481Y012531D02*
X008971Y012531D01*
X008971Y012432D02*
X008481Y012432D01*
X008481Y012334D02*
X008994Y012334D01*
X009035Y012235D02*
X008481Y012235D01*
X008481Y012137D02*
X009132Y012137D01*
X009371Y012137D02*
X009431Y012137D01*
X009431Y012235D02*
X009371Y012235D01*
X009371Y012334D02*
X009431Y012334D01*
X009431Y012432D02*
X009371Y012432D01*
X009371Y012531D02*
X009431Y012531D01*
X009431Y012629D02*
X009371Y012629D01*
X009371Y012728D02*
X008481Y012728D01*
X009371Y012826D02*
X009431Y012826D01*
X009431Y012786D02*
X009431Y013465D01*
X009487Y013465D01*
X009645Y013400D01*
X009766Y013279D01*
X009831Y013121D01*
X009831Y012786D01*
X009431Y012786D01*
X009431Y012728D02*
X009991Y012728D01*
X009991Y012826D02*
X009831Y012826D01*
X009831Y012925D02*
X009991Y012925D01*
X009991Y013023D02*
X009831Y013023D01*
X009831Y013122D02*
X009993Y013122D01*
X010034Y013221D02*
X009790Y013221D01*
X009726Y013319D02*
X010105Y013319D01*
X010252Y013418D02*
X009602Y013418D01*
X009431Y013418D02*
X009371Y013418D01*
X009371Y013319D02*
X009431Y013319D01*
X009431Y013221D02*
X009371Y013221D01*
X009371Y013122D02*
X009431Y013122D01*
X009431Y013023D02*
X009371Y013023D01*
X009371Y012925D02*
X009431Y012925D01*
X009831Y012629D02*
X009991Y012629D01*
X009991Y012531D02*
X009831Y012531D01*
X009831Y012432D02*
X009991Y012432D01*
X009939Y012334D02*
X009808Y012334D01*
X009840Y012235D02*
X009767Y012235D01*
X009742Y012137D02*
X009670Y012137D01*
X009643Y012038D02*
X008481Y012038D01*
X008481Y011939D02*
X009545Y011939D01*
X009927Y011841D02*
X010660Y011841D01*
X010701Y011939D02*
X010025Y011939D01*
X010124Y012038D02*
X010701Y012038D01*
X010701Y012137D02*
X010642Y012137D01*
X011361Y011939D02*
X011821Y011939D01*
X011821Y012038D02*
X011404Y012038D01*
X011361Y011841D02*
X011780Y011841D01*
X011699Y011742D02*
X011361Y011742D01*
X011361Y011644D02*
X011661Y011644D01*
X011661Y011545D02*
X011361Y011545D01*
X011361Y011447D02*
X011691Y011447D01*
X011762Y011348D02*
X011415Y011348D01*
X010894Y011250D02*
X008376Y011250D01*
X008474Y011348D02*
X009202Y011348D01*
X009131Y011447D02*
X008481Y011447D01*
X008481Y011545D02*
X009101Y011545D01*
X009101Y011644D02*
X008481Y011644D01*
X008481Y011742D02*
X009139Y011742D01*
X009220Y011841D02*
X008481Y011841D01*
X008277Y011151D02*
X010861Y011151D01*
X010861Y011053D02*
X007285Y011053D01*
X007341Y011151D02*
X007385Y011151D01*
X007154Y010363D02*
X007649Y010363D01*
X007552Y010264D02*
X007250Y010264D01*
X007291Y010166D02*
X007511Y010166D01*
X007491Y010067D02*
X007311Y010067D01*
X007311Y009969D02*
X007491Y009969D01*
X007491Y009870D02*
X007311Y009870D01*
X007311Y009771D02*
X007491Y009771D01*
X007491Y009673D02*
X007311Y009673D01*
X008263Y009279D02*
X009039Y009279D01*
X008998Y009377D02*
X008304Y009377D01*
X008311Y009476D02*
X008991Y009476D01*
X008991Y009574D02*
X008311Y009574D01*
X008311Y009673D02*
X008991Y009673D01*
X008991Y009771D02*
X008311Y009771D01*
X008311Y009870D02*
X008991Y009870D01*
X008991Y009969D02*
X008311Y009969D01*
X008311Y010067D02*
X008991Y010067D01*
X009011Y010166D02*
X008291Y010166D01*
X008250Y010264D02*
X009052Y010264D01*
X009149Y010363D02*
X008154Y010363D01*
X009811Y009969D02*
X009991Y009969D01*
X009991Y009870D02*
X009811Y009870D01*
X009811Y009771D02*
X009991Y009771D01*
X009991Y009673D02*
X009811Y009673D01*
X009811Y009574D02*
X009991Y009574D01*
X009991Y009476D02*
X009811Y009476D01*
X009804Y009377D02*
X009998Y009377D01*
X010039Y009279D02*
X009763Y009279D01*
X009686Y009180D02*
X010117Y009180D01*
X010281Y009082D02*
X009522Y009082D01*
X009281Y009082D02*
X008022Y009082D01*
X008186Y009180D02*
X009117Y009180D01*
X010194Y008589D02*
X008028Y008589D01*
X007930Y008688D02*
X010293Y008688D01*
X010391Y008786D02*
X007831Y008786D01*
X007732Y008885D02*
X010490Y008885D01*
X010774Y008688D02*
X012178Y008688D01*
X012048Y008589D02*
X010675Y008589D01*
X010576Y008490D02*
X011997Y008490D01*
X011981Y008392D02*
X010478Y008392D01*
X010379Y008293D02*
X011979Y008293D01*
X011880Y008195D02*
X010281Y008195D01*
X010182Y008096D02*
X011782Y008096D01*
X011683Y007998D02*
X010084Y007998D01*
X010337Y007899D02*
X010966Y007899D01*
X010867Y007801D02*
X010435Y007801D01*
X010534Y007702D02*
X010768Y007702D01*
X010706Y007604D02*
X010596Y007604D01*
X010596Y007505D02*
X010706Y007505D01*
X010706Y007406D02*
X010596Y007406D01*
X010596Y007308D02*
X010706Y007308D01*
X010768Y007209D02*
X010534Y007209D01*
X010436Y007111D02*
X010867Y007111D01*
X010965Y007012D02*
X010337Y007012D01*
X009965Y007012D02*
X009578Y007012D01*
X009480Y006914D02*
X011501Y006914D01*
X011501Y007012D02*
X011337Y007012D01*
X011436Y007111D02*
X011501Y007111D01*
X011841Y007111D02*
X011867Y007111D01*
X011841Y007012D02*
X011965Y007012D01*
X011841Y006914D02*
X013421Y006914D01*
X013421Y007012D02*
X013337Y007012D01*
X013421Y006815D02*
X011841Y006815D01*
X011841Y006717D02*
X011903Y006717D01*
X011501Y006717D02*
X011400Y006717D01*
X011498Y006618D02*
X011501Y006618D01*
X011501Y006815D02*
X009381Y006815D01*
X009283Y006717D02*
X009903Y006717D01*
X009804Y006618D02*
X009741Y006467D01*
X009741Y006315D01*
X009484Y006315D01*
X009480Y006325D01*
X009371Y006434D01*
X009228Y006493D01*
X009074Y006493D01*
X008931Y006434D01*
X008822Y006325D01*
X008763Y006183D01*
X008763Y006028D01*
X008822Y005886D01*
X008931Y005777D01*
X009074Y005718D01*
X009228Y005718D01*
X009371Y005777D01*
X009480Y005886D01*
X009517Y005976D01*
X009741Y005976D01*
X009741Y005744D01*
X009804Y005593D01*
X009919Y005478D01*
X010070Y005416D01*
X010233Y005416D01*
X010383Y005478D01*
X010499Y005593D01*
X010561Y005744D01*
X010561Y006467D01*
X010499Y006618D01*
X010539Y006520D02*
X010763Y006520D01*
X010741Y006467D02*
X010741Y005744D01*
X010804Y005593D01*
X010919Y005478D01*
X011070Y005416D01*
X011181Y005416D01*
X010001Y004235D01*
X008222Y004235D01*
X008161Y004235D01*
X008161Y005435D01*
X008161Y005576D01*
X008041Y005696D01*
X008061Y005744D01*
X008061Y006467D01*
X008000Y006616D01*
X009041Y006616D01*
X009182Y006616D01*
X009384Y006421D02*
X009741Y006421D01*
X009741Y006322D02*
X009481Y006322D01*
X009763Y006520D02*
X008039Y006520D01*
X008061Y006421D02*
X008918Y006421D01*
X008821Y006322D02*
X008061Y006322D01*
X008061Y006224D02*
X008781Y006224D01*
X008763Y006125D02*
X008061Y006125D01*
X008061Y006027D02*
X008764Y006027D01*
X008805Y005928D02*
X008061Y005928D01*
X008061Y005830D02*
X008878Y005830D01*
X009041Y005731D02*
X008056Y005731D01*
X008104Y005633D02*
X009787Y005633D01*
X009746Y005731D02*
X009261Y005731D01*
X009424Y005830D02*
X009741Y005830D01*
X009741Y005928D02*
X009497Y005928D01*
X009382Y005451D02*
X009232Y005513D01*
X009170Y005513D01*
X009170Y005125D01*
X009132Y005125D01*
X009132Y005513D01*
X009070Y005513D01*
X008920Y005451D01*
X008805Y005336D01*
X008743Y005187D01*
X008743Y005124D01*
X009132Y005124D01*
X009132Y005087D01*
X008743Y005087D01*
X008743Y005024D01*
X008805Y004874D01*
X008920Y004760D01*
X009070Y004698D01*
X009132Y004698D01*
X009132Y005086D01*
X009170Y005086D01*
X009170Y004698D01*
X009232Y004698D01*
X009382Y004760D01*
X009497Y004874D01*
X009559Y005024D01*
X009559Y005087D01*
X009170Y005087D01*
X009170Y005124D01*
X009559Y005124D01*
X009559Y005187D01*
X009497Y005336D01*
X009382Y005451D01*
X009398Y005436D02*
X010021Y005436D01*
X009863Y005534D02*
X008161Y005534D01*
X008161Y005436D02*
X008905Y005436D01*
X008806Y005337D02*
X008161Y005337D01*
X008161Y005239D02*
X008765Y005239D01*
X008743Y005140D02*
X008161Y005140D01*
X008161Y005041D02*
X008743Y005041D01*
X008777Y004943D02*
X008161Y004943D01*
X008161Y004844D02*
X008836Y004844D01*
X008954Y004746D02*
X008161Y004746D01*
X008161Y004647D02*
X010413Y004647D01*
X010511Y004746D02*
X009348Y004746D01*
X009467Y004844D02*
X010610Y004844D01*
X010708Y004943D02*
X009525Y004943D01*
X009559Y005041D02*
X010807Y005041D01*
X010905Y005140D02*
X009559Y005140D01*
X009537Y005239D02*
X011004Y005239D01*
X011102Y005337D02*
X009496Y005337D01*
X009170Y005337D02*
X009132Y005337D01*
X009132Y005239D02*
X009170Y005239D01*
X009170Y005140D02*
X009132Y005140D01*
X009132Y005041D02*
X009170Y005041D01*
X009170Y004943D02*
X009132Y004943D01*
X009132Y004844D02*
X009170Y004844D01*
X009170Y004746D02*
X009132Y004746D01*
X008161Y004549D02*
X010314Y004549D01*
X010215Y004450D02*
X008161Y004450D01*
X008161Y004352D02*
X010117Y004352D01*
X010018Y004253D02*
X008161Y004253D01*
X007821Y004155D02*
X002241Y004155D01*
X002241Y004253D02*
X007515Y004253D01*
X007398Y004352D02*
X002241Y004352D01*
X002241Y004450D02*
X007353Y004450D01*
X007341Y004549D02*
X002241Y004549D01*
X002241Y004647D02*
X007329Y004647D01*
X007230Y004746D02*
X002241Y004746D01*
X002241Y004844D02*
X007132Y004844D01*
X007033Y004943D02*
X002241Y004943D01*
X002241Y005041D02*
X006935Y005041D01*
X006836Y005140D02*
X002241Y005140D01*
X002241Y005239D02*
X006738Y005239D01*
X006701Y005337D02*
X002241Y005337D01*
X002221Y005436D02*
X002521Y005436D01*
X002570Y005416D02*
X002419Y005478D01*
X002304Y005593D01*
X002241Y005744D01*
X002241Y006467D01*
X002241Y006421D02*
X002061Y006421D01*
X002061Y006322D02*
X002241Y006322D01*
X002241Y006224D02*
X002061Y006224D01*
X002061Y006125D02*
X002241Y006125D01*
X002241Y006027D02*
X002061Y006027D01*
X002061Y005928D02*
X002241Y005928D01*
X002241Y005830D02*
X002061Y005830D01*
X002056Y005731D02*
X002246Y005731D01*
X002287Y005633D02*
X002024Y005633D01*
X002123Y005534D02*
X002363Y005534D01*
X002570Y005416D02*
X002733Y005416D01*
X002883Y005478D01*
X002999Y005593D01*
X003061Y005744D01*
X003061Y006467D01*
X002999Y006618D01*
X003039Y006520D02*
X003263Y006520D01*
X003241Y006467D02*
X003304Y006618D01*
X003403Y006717D02*
X002900Y006717D01*
X003241Y006467D02*
X003241Y005744D01*
X003304Y005593D01*
X003419Y005478D01*
X003570Y005416D01*
X003733Y005416D01*
X003883Y005478D01*
X003999Y005593D01*
X004061Y005744D01*
X004061Y006467D01*
X003999Y006618D01*
X003883Y006733D01*
X003900Y006717D02*
X003980Y006717D01*
X003998Y006618D02*
X004078Y006618D01*
X004039Y006520D02*
X004177Y006520D01*
X004241Y006421D02*
X004061Y006421D01*
X004061Y006322D02*
X004241Y006322D01*
X004241Y006224D02*
X004061Y006224D01*
X004061Y006125D02*
X004241Y006125D01*
X004241Y006027D02*
X004061Y006027D01*
X004061Y005928D02*
X004241Y005928D01*
X004241Y005830D02*
X004061Y005830D01*
X004056Y005731D02*
X004246Y005731D01*
X004287Y005633D02*
X004015Y005633D01*
X003940Y005534D02*
X004363Y005534D01*
X004521Y005436D02*
X003781Y005436D01*
X003521Y005436D02*
X002781Y005436D01*
X002940Y005534D02*
X003363Y005534D01*
X003287Y005633D02*
X003015Y005633D01*
X003056Y005731D02*
X003246Y005731D01*
X003241Y005830D02*
X003061Y005830D01*
X003061Y005928D02*
X003241Y005928D01*
X003241Y006027D02*
X003061Y006027D01*
X003061Y006125D02*
X003241Y006125D01*
X003241Y006224D02*
X003061Y006224D01*
X003061Y006322D02*
X003241Y006322D01*
X003241Y006421D02*
X003061Y006421D01*
X002965Y007012D02*
X002366Y007012D01*
X002464Y007111D02*
X002867Y007111D01*
X002768Y007209D02*
X002563Y007209D01*
X002616Y007308D02*
X002706Y007308D01*
X002706Y007406D02*
X002616Y007406D01*
X002616Y007496D02*
X002616Y007648D01*
X002344Y007920D01*
X002191Y007920D01*
X002191Y007496D01*
X002616Y007496D01*
X002616Y007505D02*
X002706Y007505D01*
X002706Y007604D02*
X002616Y007604D01*
X002562Y007702D02*
X002768Y007702D01*
X002867Y007801D02*
X002464Y007801D01*
X002365Y007899D02*
X002966Y007899D01*
X002191Y007899D02*
X002111Y007899D01*
X002111Y007801D02*
X002191Y007801D01*
X002191Y007702D02*
X002111Y007702D01*
X002111Y007604D02*
X002191Y007604D01*
X002191Y007505D02*
X002111Y007505D01*
X002111Y007406D02*
X002191Y007406D01*
X002191Y007308D02*
X002111Y007308D01*
X002111Y007209D02*
X002191Y007209D01*
X002191Y007111D02*
X002111Y007111D01*
X002111Y007012D02*
X002191Y007012D01*
X001838Y007111D02*
X000321Y007111D01*
X000321Y007209D02*
X001740Y007209D01*
X001686Y007308D02*
X000321Y007308D01*
X000321Y007406D02*
X001686Y007406D01*
X001686Y007505D02*
X000321Y007505D01*
X000321Y007604D02*
X001686Y007604D01*
X001740Y007702D02*
X000321Y007702D01*
X000321Y007801D02*
X001839Y007801D01*
X001937Y007899D02*
X000321Y007899D01*
X003022Y009082D02*
X003375Y009082D01*
X003276Y009180D02*
X003186Y009180D01*
X006022Y009082D02*
X006415Y009082D01*
X008353Y008490D02*
X010096Y008490D01*
X009997Y008392D02*
X008439Y008392D01*
X008480Y008293D02*
X009899Y008293D01*
X009800Y008195D02*
X008481Y008195D01*
X008455Y008096D02*
X009702Y008096D01*
X009603Y007998D02*
X009259Y007998D01*
X009337Y007899D02*
X009504Y007899D01*
X009761Y007209D02*
X009768Y007209D01*
X009677Y007111D02*
X009867Y007111D01*
X010400Y006717D02*
X010903Y006717D01*
X010804Y006618D02*
X010741Y006467D01*
X010741Y006421D02*
X010561Y006421D01*
X010561Y006322D02*
X010741Y006322D01*
X010741Y006224D02*
X010561Y006224D01*
X010561Y006125D02*
X010741Y006125D01*
X010741Y006027D02*
X010561Y006027D01*
X010561Y005928D02*
X010741Y005928D01*
X010741Y005830D02*
X010561Y005830D01*
X010556Y005731D02*
X010746Y005731D01*
X010787Y005633D02*
X010515Y005633D01*
X010440Y005534D02*
X010863Y005534D01*
X011021Y005436D02*
X010281Y005436D01*
X011090Y004844D02*
X013261Y004844D01*
X013266Y004943D02*
X011189Y004943D01*
X011287Y005041D02*
X013307Y005041D01*
X013399Y005140D02*
X011386Y005140D01*
X011485Y005239D02*
X013421Y005239D01*
X013421Y005337D02*
X011583Y005337D01*
X011682Y005436D02*
X012021Y005436D01*
X011863Y005534D02*
X011780Y005534D01*
X012281Y005436D02*
X013021Y005436D01*
X012863Y005534D02*
X012440Y005534D01*
X012515Y005633D02*
X012787Y005633D01*
X012746Y005731D02*
X012556Y005731D01*
X012561Y005830D02*
X012741Y005830D01*
X012741Y005928D02*
X012561Y005928D01*
X012561Y006027D02*
X012741Y006027D01*
X012741Y006125D02*
X012561Y006125D01*
X012561Y006224D02*
X012741Y006224D01*
X012741Y006322D02*
X012561Y006322D01*
X012561Y006421D02*
X012741Y006421D01*
X013400Y006717D02*
X013421Y006717D01*
X013761Y006717D02*
X013874Y006717D01*
X013908Y006750D02*
X013787Y006629D01*
X013761Y006567D01*
X013761Y007216D01*
X013967Y007011D01*
X014335Y007011D01*
X014541Y007216D01*
X014541Y006567D01*
X014516Y006629D01*
X014395Y006750D01*
X014237Y006815D01*
X014541Y006815D01*
X014541Y006717D02*
X014428Y006717D01*
X014520Y006618D02*
X014541Y006618D01*
X014541Y006914D02*
X013761Y006914D01*
X013761Y007012D02*
X013965Y007012D01*
X013867Y007111D02*
X013761Y007111D01*
X013761Y007209D02*
X013768Y007209D01*
X013761Y006815D02*
X014065Y006815D01*
X014066Y006815D02*
X013908Y006750D01*
X014066Y006815D02*
X014121Y006815D01*
X014181Y006815D01*
X014181Y006136D01*
X014121Y006136D01*
X014121Y006815D01*
X014181Y006815D02*
X014237Y006815D01*
X014181Y006717D02*
X014121Y006717D01*
X014121Y006618D02*
X014181Y006618D01*
X014181Y006520D02*
X014121Y006520D01*
X014121Y006421D02*
X014181Y006421D01*
X014181Y006322D02*
X014121Y006322D01*
X014121Y006224D02*
X014181Y006224D01*
X014181Y006027D02*
X014121Y006027D01*
X014121Y005928D02*
X014181Y005928D01*
X014181Y005830D02*
X014121Y005830D01*
X014121Y005731D02*
X014181Y005731D01*
X014181Y005633D02*
X014121Y005633D01*
X014121Y005534D02*
X014181Y005534D01*
X014181Y005436D02*
X014121Y005436D01*
X013969Y005436D02*
X013761Y005436D01*
X013761Y005534D02*
X013834Y005534D01*
X013766Y005633D02*
X013761Y005633D01*
X013761Y005337D02*
X014541Y005337D01*
X014541Y005239D02*
X013761Y005239D01*
X013783Y005140D02*
X014541Y005140D01*
X014541Y005041D02*
X013875Y005041D01*
X013916Y004943D02*
X014541Y004943D01*
X014541Y004844D02*
X013921Y004844D01*
X013899Y004746D02*
X014541Y004746D01*
X014346Y004647D02*
X013840Y004647D01*
X013689Y004549D02*
X014262Y004549D01*
X014221Y004450D02*
X010696Y004450D01*
X010598Y004352D02*
X014221Y004352D01*
X014249Y004253D02*
X010499Y004253D01*
X010401Y004155D02*
X014315Y004155D01*
X014381Y004056D02*
X010321Y004056D01*
X010420Y003957D02*
X014419Y003957D01*
X014370Y003760D02*
X014985Y003760D01*
X014848Y003662D02*
X014483Y003662D01*
X014516Y003629D02*
X014395Y003750D01*
X014237Y003815D01*
X014181Y003815D01*
X014181Y003136D01*
X014121Y003136D01*
X014121Y003815D01*
X014066Y003815D01*
X013908Y003750D01*
X013787Y003629D01*
X013721Y003471D01*
X013721Y003136D01*
X014121Y003136D01*
X014121Y003075D01*
X014181Y003075D01*
X014181Y002396D01*
X014237Y002396D01*
X014395Y002461D01*
X014516Y002582D01*
X014581Y002740D01*
X014581Y003075D01*
X014181Y003075D01*
X014181Y003136D01*
X014581Y003136D01*
X014581Y003471D01*
X014516Y003629D01*
X014543Y003563D02*
X014781Y003563D01*
X014741Y003465D02*
X014581Y003465D01*
X014581Y003366D02*
X014741Y003366D01*
X014741Y003268D02*
X014581Y003268D01*
X014581Y003169D02*
X014741Y003169D01*
X014741Y003071D02*
X014581Y003071D01*
X014581Y002972D02*
X014741Y002972D01*
X014741Y002873D02*
X014581Y002873D01*
X014581Y002775D02*
X014741Y002775D01*
X014769Y002676D02*
X014555Y002676D01*
X014512Y002578D02*
X014819Y002578D01*
X014918Y002479D02*
X014413Y002479D01*
X014181Y002479D02*
X014121Y002479D01*
X014121Y002396D02*
X014121Y003075D01*
X013721Y003075D01*
X013721Y002740D01*
X013787Y002582D01*
X013908Y002461D01*
X014066Y002396D01*
X014121Y002396D01*
X014121Y002578D02*
X014181Y002578D01*
X014181Y002676D02*
X014121Y002676D01*
X014121Y002775D02*
X014181Y002775D01*
X014181Y002873D02*
X014121Y002873D01*
X014121Y002972D02*
X014181Y002972D01*
X014181Y003071D02*
X014121Y003071D01*
X014121Y003169D02*
X014181Y003169D01*
X014181Y003268D02*
X014121Y003268D01*
X014121Y003366D02*
X014181Y003366D01*
X014181Y003465D02*
X014121Y003465D01*
X014121Y003563D02*
X014181Y003563D01*
X014181Y003662D02*
X014121Y003662D01*
X014121Y003760D02*
X014181Y003760D01*
X013933Y003760D02*
X013370Y003760D01*
X013395Y003750D02*
X013237Y003815D01*
X013181Y003815D01*
X013181Y003136D01*
X013121Y003136D01*
X013121Y003815D01*
X013066Y003815D01*
X012908Y003750D01*
X012787Y003629D01*
X012721Y003471D01*
X012721Y003136D01*
X013121Y003136D01*
X013121Y003075D01*
X013181Y003075D01*
X013181Y002396D01*
X013237Y002396D01*
X013395Y002461D01*
X013516Y002582D01*
X013581Y002740D01*
X013581Y003075D01*
X013181Y003075D01*
X013181Y003136D01*
X013581Y003136D01*
X013581Y003471D01*
X013516Y003629D01*
X013395Y003750D01*
X013483Y003662D02*
X013819Y003662D01*
X013759Y003563D02*
X013543Y003563D01*
X013581Y003465D02*
X013721Y003465D01*
X013721Y003366D02*
X013581Y003366D01*
X013581Y003268D02*
X013721Y003268D01*
X013721Y003169D02*
X013581Y003169D01*
X013581Y003071D02*
X013721Y003071D01*
X013721Y002972D02*
X013581Y002972D01*
X013581Y002873D02*
X013721Y002873D01*
X013721Y002775D02*
X013581Y002775D01*
X013555Y002676D02*
X013748Y002676D01*
X013791Y002578D02*
X013512Y002578D01*
X013413Y002479D02*
X013889Y002479D01*
X013967Y002250D02*
X013706Y001990D01*
X013706Y001621D01*
X013967Y001361D01*
X014335Y001361D01*
X014596Y001621D01*
X014596Y001990D01*
X014335Y002250D01*
X013967Y002250D01*
X013900Y002184D02*
X013402Y002184D01*
X013335Y002250D02*
X013596Y001990D01*
X013596Y001621D01*
X013335Y001361D01*
X012967Y001361D01*
X012706Y001621D01*
X012706Y001990D01*
X012967Y002250D01*
X013335Y002250D01*
X013501Y002085D02*
X013801Y002085D01*
X013706Y001987D02*
X013596Y001987D01*
X013596Y001888D02*
X013706Y001888D01*
X013706Y001789D02*
X013596Y001789D01*
X013596Y001691D02*
X013706Y001691D01*
X013735Y001592D02*
X013567Y001592D01*
X013469Y001494D02*
X013834Y001494D01*
X013932Y001395D02*
X013370Y001395D01*
X012932Y001395D02*
X012370Y001395D01*
X012335Y001361D02*
X012596Y001621D01*
X012596Y001990D01*
X012335Y002250D01*
X011967Y002250D01*
X011706Y001990D01*
X011706Y001621D01*
X011967Y001361D01*
X012335Y001361D01*
X012469Y001494D02*
X012834Y001494D01*
X012735Y001592D02*
X012567Y001592D01*
X012596Y001691D02*
X012706Y001691D01*
X012706Y001789D02*
X012596Y001789D01*
X012596Y001888D02*
X012706Y001888D01*
X012706Y001987D02*
X012596Y001987D01*
X012501Y002085D02*
X012801Y002085D01*
X012900Y002184D02*
X012402Y002184D01*
X012233Y002416D02*
X012070Y002416D01*
X011919Y002478D01*
X011804Y002593D01*
X011741Y002744D01*
X011741Y003467D01*
X011804Y003618D01*
X011919Y003733D01*
X012070Y003795D01*
X012233Y003795D01*
X012383Y003733D01*
X012499Y003618D01*
X012561Y003467D01*
X012561Y002744D01*
X012499Y002593D01*
X012383Y002478D01*
X012233Y002416D01*
X012385Y002479D02*
X012889Y002479D01*
X012908Y002461D02*
X013066Y002396D01*
X013121Y002396D01*
X013121Y003075D01*
X012721Y003075D01*
X012721Y002740D01*
X012787Y002582D01*
X012908Y002461D01*
X012791Y002578D02*
X012483Y002578D01*
X012533Y002676D02*
X012748Y002676D01*
X012721Y002775D02*
X012561Y002775D01*
X012561Y002873D02*
X012721Y002873D01*
X012721Y002972D02*
X012561Y002972D01*
X012561Y003071D02*
X012721Y003071D01*
X012721Y003169D02*
X012561Y003169D01*
X012561Y003268D02*
X012721Y003268D01*
X012721Y003366D02*
X012561Y003366D01*
X012561Y003465D02*
X012721Y003465D01*
X012759Y003563D02*
X012521Y003563D01*
X012455Y003662D02*
X012819Y003662D01*
X012933Y003760D02*
X012318Y003760D01*
X011985Y003760D02*
X011318Y003760D01*
X011455Y003662D02*
X011848Y003662D01*
X011781Y003563D02*
X011521Y003563D01*
X011561Y003465D02*
X011741Y003465D01*
X011741Y003366D02*
X011561Y003366D01*
X011561Y003268D02*
X011741Y003268D01*
X011741Y003169D02*
X011561Y003169D01*
X011561Y003071D02*
X011741Y003071D01*
X011741Y002972D02*
X011561Y002972D01*
X011561Y002873D02*
X011741Y002873D01*
X011741Y002775D02*
X011561Y002775D01*
X011533Y002676D02*
X011769Y002676D01*
X011819Y002578D02*
X011483Y002578D01*
X011385Y002479D02*
X011918Y002479D01*
X011900Y002184D02*
X011402Y002184D01*
X011335Y002250D02*
X010967Y002250D01*
X010706Y001990D01*
X010706Y001621D01*
X010967Y001361D01*
X011335Y001361D01*
X011596Y001621D01*
X011596Y001990D01*
X011335Y002250D01*
X011501Y002085D02*
X011801Y002085D01*
X011706Y001987D02*
X011596Y001987D01*
X011596Y001888D02*
X011706Y001888D01*
X011706Y001789D02*
X011596Y001789D01*
X011596Y001691D02*
X011706Y001691D01*
X011735Y001592D02*
X011567Y001592D01*
X011469Y001494D02*
X011834Y001494D01*
X011932Y001395D02*
X011370Y001395D01*
X010932Y001395D02*
X010370Y001395D01*
X010335Y001361D02*
X010596Y001621D01*
X010596Y001990D01*
X010335Y002250D01*
X009967Y002250D01*
X009706Y001990D01*
X009706Y001621D01*
X009967Y001361D01*
X010335Y001361D01*
X010469Y001494D02*
X010834Y001494D01*
X010735Y001592D02*
X010567Y001592D01*
X010596Y001691D02*
X010706Y001691D01*
X010706Y001789D02*
X010596Y001789D01*
X010596Y001888D02*
X010706Y001888D01*
X010706Y001987D02*
X010596Y001987D01*
X010501Y002085D02*
X010801Y002085D01*
X010900Y002184D02*
X010402Y002184D01*
X009900Y002184D02*
X009402Y002184D01*
X009501Y002085D02*
X009801Y002085D01*
X009706Y001987D02*
X009596Y001987D01*
X009596Y001888D02*
X009706Y001888D01*
X009706Y001789D02*
X009596Y001789D01*
X009596Y001691D02*
X009706Y001691D01*
X009735Y001592D02*
X009567Y001592D01*
X009469Y001494D02*
X009834Y001494D01*
X009932Y001395D02*
X009370Y001395D01*
X008932Y001395D02*
X008601Y001395D01*
X008503Y001297D02*
X015501Y001297D01*
X015501Y001395D02*
X015370Y001395D01*
X015469Y001494D02*
X015501Y001494D01*
X015841Y001395D02*
X015932Y001395D01*
X016370Y001395D02*
X016932Y001395D01*
X016967Y001361D02*
X017335Y001361D01*
X017596Y001621D01*
X017596Y001990D01*
X017335Y002250D01*
X016967Y002250D01*
X016706Y001990D01*
X016706Y001621D01*
X016967Y001361D01*
X016834Y001494D02*
X016469Y001494D01*
X016567Y001592D02*
X016735Y001592D01*
X016706Y001691D02*
X016596Y001691D01*
X016596Y001789D02*
X016706Y001789D01*
X016706Y001888D02*
X016596Y001888D01*
X016596Y001987D02*
X016706Y001987D01*
X016801Y002085D02*
X016501Y002085D01*
X016402Y002184D02*
X016900Y002184D01*
X017402Y002184D02*
X017900Y002184D01*
X017967Y002250D02*
X017706Y001990D01*
X017706Y001621D01*
X017967Y001361D01*
X018335Y001361D01*
X018596Y001621D01*
X018596Y001990D01*
X018335Y002250D01*
X017967Y002250D01*
X017801Y002085D02*
X017501Y002085D01*
X017596Y001987D02*
X017706Y001987D01*
X017706Y001888D02*
X017596Y001888D01*
X017596Y001789D02*
X017706Y001789D01*
X017706Y001691D02*
X017596Y001691D01*
X017567Y001592D02*
X017735Y001592D01*
X017834Y001494D02*
X017469Y001494D01*
X017370Y001395D02*
X017932Y001395D01*
X018370Y001395D02*
X018932Y001395D01*
X018967Y001361D02*
X019335Y001361D01*
X019596Y001621D01*
X019596Y001990D01*
X019335Y002250D01*
X018967Y002250D01*
X018706Y001990D01*
X018706Y001621D01*
X018967Y001361D01*
X018834Y001494D02*
X018469Y001494D01*
X018567Y001592D02*
X018735Y001592D01*
X018706Y001691D02*
X018596Y001691D01*
X018596Y001789D02*
X018706Y001789D01*
X018706Y001888D02*
X018596Y001888D01*
X018596Y001987D02*
X018706Y001987D01*
X018801Y002085D02*
X018501Y002085D01*
X018402Y002184D02*
X018900Y002184D01*
X019402Y002184D02*
X019900Y002184D01*
X019967Y002250D02*
X019706Y001990D01*
X019706Y001621D01*
X019967Y001361D01*
X020335Y001361D01*
X020596Y001621D01*
X020596Y001990D01*
X020335Y002250D01*
X019967Y002250D01*
X019801Y002085D02*
X019501Y002085D01*
X019596Y001987D02*
X019706Y001987D01*
X019706Y001888D02*
X019596Y001888D01*
X019596Y001789D02*
X019706Y001789D01*
X019706Y001691D02*
X019596Y001691D01*
X019567Y001592D02*
X019735Y001592D01*
X019834Y001494D02*
X019469Y001494D01*
X019370Y001395D02*
X019932Y001395D01*
X020370Y001395D02*
X020932Y001395D01*
X020834Y001494D02*
X020469Y001494D01*
X020567Y001592D02*
X020735Y001592D01*
X020706Y001691D02*
X020596Y001691D01*
X020596Y001789D02*
X020706Y001789D01*
X020706Y001888D02*
X020596Y001888D01*
X020596Y001987D02*
X020706Y001987D01*
X020801Y002085D02*
X020501Y002085D01*
X020402Y002184D02*
X020900Y002184D01*
X020733Y002416D02*
X020570Y002416D01*
X020419Y002478D01*
X020304Y002593D01*
X020241Y002744D01*
X020241Y003467D01*
X020304Y003618D01*
X020419Y003733D01*
X020570Y003795D01*
X020733Y003795D01*
X020883Y003733D01*
X020999Y003618D01*
X021061Y003467D01*
X021061Y002744D01*
X020999Y002593D01*
X020883Y002478D01*
X020733Y002416D01*
X020885Y002479D02*
X021389Y002479D01*
X021408Y002461D02*
X021566Y002396D01*
X021621Y002396D01*
X021621Y003075D01*
X021681Y003075D01*
X021681Y002396D01*
X021737Y002396D01*
X021895Y002461D01*
X022016Y002582D01*
X022081Y002740D01*
X022081Y003075D01*
X021681Y003075D01*
X021681Y003136D01*
X021621Y003136D01*
X021621Y003815D01*
X021566Y003815D01*
X021408Y003750D01*
X021287Y003629D01*
X021221Y003471D01*
X021221Y003136D01*
X021621Y003136D01*
X021621Y003075D01*
X021221Y003075D01*
X021221Y002740D01*
X021287Y002582D01*
X021408Y002461D01*
X021291Y002578D02*
X020983Y002578D01*
X021033Y002676D02*
X021248Y002676D01*
X021221Y002775D02*
X021061Y002775D01*
X021061Y002873D02*
X021221Y002873D01*
X021221Y002972D02*
X021061Y002972D01*
X021061Y003071D02*
X021221Y003071D01*
X021221Y003169D02*
X021061Y003169D01*
X021061Y003268D02*
X021221Y003268D01*
X021221Y003366D02*
X021061Y003366D01*
X021061Y003465D02*
X021221Y003465D01*
X021259Y003563D02*
X021021Y003563D01*
X020955Y003662D02*
X021319Y003662D01*
X021433Y003760D02*
X020818Y003760D01*
X020485Y003760D02*
X019818Y003760D01*
X019955Y003662D02*
X020348Y003662D01*
X020281Y003563D02*
X020021Y003563D01*
X020061Y003465D02*
X020241Y003465D01*
X020241Y003366D02*
X020061Y003366D01*
X020061Y003268D02*
X020241Y003268D01*
X020241Y003169D02*
X020061Y003169D01*
X020061Y003071D02*
X020241Y003071D01*
X020241Y002972D02*
X020061Y002972D01*
X020061Y002873D02*
X020241Y002873D01*
X020241Y002775D02*
X020061Y002775D01*
X020033Y002676D02*
X020269Y002676D01*
X020319Y002578D02*
X019983Y002578D01*
X019885Y002479D02*
X020418Y002479D01*
X019418Y002479D02*
X018885Y002479D01*
X018983Y002578D02*
X019319Y002578D01*
X019269Y002676D02*
X019033Y002676D01*
X019061Y002775D02*
X019241Y002775D01*
X019241Y002873D02*
X019061Y002873D01*
X019061Y002972D02*
X019241Y002972D01*
X019241Y003071D02*
X019061Y003071D01*
X019061Y003169D02*
X019241Y003169D01*
X019241Y003268D02*
X019061Y003268D01*
X019061Y003366D02*
X019241Y003366D01*
X019241Y003465D02*
X019061Y003465D01*
X019021Y003563D02*
X019281Y003563D01*
X019194Y003662D02*
X018955Y003662D01*
X018818Y003760D02*
X019181Y003760D01*
X019181Y003859D02*
X018518Y003859D01*
X018420Y003957D02*
X019153Y003957D01*
X019064Y004056D02*
X018321Y004056D01*
X018223Y004155D02*
X019023Y004155D01*
X019550Y003957D02*
X023539Y003957D01*
X023637Y003859D02*
X019521Y003859D01*
X019638Y004056D02*
X023440Y004056D01*
X023342Y004155D02*
X019679Y004155D01*
X019681Y004253D02*
X023243Y004253D01*
X023145Y004352D02*
X019656Y004352D01*
X019593Y004450D02*
X023046Y004450D01*
X023021Y004549D02*
X019435Y004549D01*
X019533Y004647D02*
X023021Y004647D01*
X023021Y004746D02*
X019632Y004746D01*
X019730Y004844D02*
X023021Y004844D01*
X023021Y004943D02*
X022295Y004943D01*
X022369Y005041D02*
X023021Y005041D01*
X023021Y005140D02*
X022401Y005140D01*
X022401Y005239D02*
X023021Y005239D01*
X023021Y005337D02*
X022366Y005337D01*
X022288Y005436D02*
X022469Y005436D01*
X022621Y005436D02*
X022681Y005436D01*
X022681Y005534D02*
X022621Y005534D01*
X022621Y005633D02*
X022681Y005633D01*
X022681Y005731D02*
X022621Y005731D01*
X022621Y005830D02*
X022681Y005830D01*
X022681Y005928D02*
X022621Y005928D01*
X022621Y006027D02*
X022681Y006027D01*
X022681Y006136D02*
X022621Y006136D01*
X022621Y006815D01*
X022681Y006815D01*
X022681Y006136D01*
X022681Y006224D02*
X022621Y006224D01*
X022621Y006322D02*
X022681Y006322D01*
X022681Y006421D02*
X022621Y006421D01*
X022621Y006520D02*
X022681Y006520D01*
X022681Y006618D02*
X022621Y006618D01*
X022621Y006717D02*
X022681Y006717D01*
X022681Y006815D02*
X022737Y006815D01*
X022861Y006815D01*
X022861Y006764D02*
X022737Y006815D01*
X022621Y006815D02*
X022566Y006815D01*
X022408Y006750D01*
X022287Y006629D01*
X022241Y006519D01*
X022241Y007159D01*
X022255Y007124D01*
X022370Y007010D01*
X022520Y006948D01*
X022582Y006948D01*
X022582Y007336D01*
X022620Y007336D01*
X022620Y006948D01*
X022682Y006948D01*
X022832Y007010D01*
X022861Y007039D01*
X022861Y006764D01*
X022861Y006914D02*
X022241Y006914D01*
X022241Y007012D02*
X022368Y007012D01*
X022269Y007111D02*
X022241Y007111D01*
X022193Y007384D02*
X022142Y007435D01*
X021601Y007976D01*
X021601Y009196D01*
X021669Y009128D01*
X021820Y009066D01*
X021983Y009066D01*
X022133Y009128D01*
X022221Y009216D01*
X022221Y009115D01*
X022593Y008743D01*
X022524Y008743D01*
X022381Y008684D01*
X022272Y008575D01*
X022213Y008433D01*
X022213Y008278D01*
X022272Y008136D01*
X022381Y008027D01*
X022524Y007968D01*
X022678Y007968D01*
X022821Y008027D01*
X022861Y008067D01*
X022861Y007672D01*
X022832Y007701D01*
X022682Y007763D01*
X022620Y007763D01*
X022620Y007375D01*
X022582Y007375D01*
X022582Y007763D01*
X022520Y007763D01*
X022370Y007701D01*
X022255Y007586D01*
X022193Y007437D01*
X022193Y007384D01*
X022193Y007406D02*
X022171Y007406D01*
X022222Y007505D02*
X022072Y007505D01*
X021974Y007604D02*
X022273Y007604D01*
X022372Y007702D02*
X021875Y007702D01*
X021776Y007801D02*
X022861Y007801D01*
X022861Y007899D02*
X021678Y007899D01*
X021601Y007998D02*
X022452Y007998D01*
X022312Y008096D02*
X021601Y008096D01*
X021601Y008195D02*
X022248Y008195D01*
X022213Y008293D02*
X021601Y008293D01*
X021601Y008392D02*
X022213Y008392D01*
X022237Y008490D02*
X021601Y008490D01*
X021601Y008589D02*
X022286Y008589D01*
X022389Y008688D02*
X021601Y008688D01*
X021601Y008786D02*
X022550Y008786D01*
X022452Y008885D02*
X021601Y008885D01*
X021601Y008983D02*
X022353Y008983D01*
X022255Y009082D02*
X022022Y009082D01*
X022186Y009180D02*
X022221Y009180D01*
X021781Y009082D02*
X021601Y009082D01*
X021601Y009180D02*
X021617Y009180D01*
X023521Y009180D02*
X023617Y009180D01*
X023669Y009128D02*
X023820Y009066D01*
X023983Y009066D01*
X024133Y009128D01*
X024141Y009136D01*
X024141Y006696D01*
X024081Y006635D01*
X024018Y006572D01*
X023999Y006618D01*
X023883Y006733D01*
X023733Y006795D01*
X023582Y006795D01*
X023361Y007016D01*
X023361Y007119D01*
X023470Y007010D01*
X023620Y006948D01*
X023682Y006948D01*
X023682Y007336D01*
X023720Y007336D01*
X023720Y006948D01*
X023782Y006948D01*
X023932Y007010D01*
X024047Y007124D01*
X024109Y007274D01*
X024109Y007337D01*
X023720Y007337D01*
X023720Y007374D01*
X024109Y007374D01*
X024109Y007437D01*
X024047Y007586D01*
X023932Y007701D01*
X023782Y007763D01*
X023720Y007763D01*
X023720Y007375D01*
X023682Y007375D01*
X023682Y007763D01*
X023620Y007763D01*
X023470Y007701D01*
X023361Y007592D01*
X023361Y008163D01*
X023372Y008136D01*
X023481Y008027D01*
X023624Y007968D01*
X023778Y007968D01*
X023921Y008027D01*
X024030Y008136D01*
X024089Y008278D01*
X024089Y008433D01*
X024030Y008575D01*
X023921Y008684D01*
X023778Y008743D01*
X023624Y008743D01*
X023521Y008701D01*
X023521Y009322D01*
X023554Y009243D01*
X023669Y009128D01*
X023781Y009082D02*
X023521Y009082D01*
X023521Y008983D02*
X024141Y008983D01*
X024141Y008885D02*
X023521Y008885D01*
X023521Y008786D02*
X024141Y008786D01*
X024141Y008688D02*
X023913Y008688D01*
X024016Y008589D02*
X024141Y008589D01*
X024141Y008490D02*
X024065Y008490D01*
X024089Y008392D02*
X024141Y008392D01*
X024141Y008293D02*
X024089Y008293D01*
X024054Y008195D02*
X024141Y008195D01*
X024141Y008096D02*
X023990Y008096D01*
X023851Y007998D02*
X024141Y007998D01*
X024141Y007899D02*
X023361Y007899D01*
X023361Y007801D02*
X024141Y007801D01*
X024141Y007702D02*
X023930Y007702D01*
X024030Y007604D02*
X024141Y007604D01*
X024141Y007505D02*
X024081Y007505D01*
X024109Y007406D02*
X024141Y007406D01*
X024141Y007308D02*
X024109Y007308D01*
X024082Y007209D02*
X024141Y007209D01*
X024141Y007111D02*
X024033Y007111D01*
X023935Y007012D02*
X024141Y007012D01*
X024141Y006914D02*
X023463Y006914D01*
X023468Y007012D02*
X023365Y007012D01*
X023361Y007111D02*
X023369Y007111D01*
X023682Y007111D02*
X023720Y007111D01*
X023720Y007209D02*
X023682Y007209D01*
X023682Y007308D02*
X023720Y007308D01*
X023720Y007406D02*
X023682Y007406D01*
X023682Y007505D02*
X023720Y007505D01*
X023720Y007604D02*
X023682Y007604D01*
X023682Y007702D02*
X023720Y007702D01*
X023472Y007702D02*
X023361Y007702D01*
X023361Y007604D02*
X023373Y007604D01*
X023361Y007998D02*
X023552Y007998D01*
X023412Y008096D02*
X023361Y008096D01*
X022861Y007998D02*
X022751Y007998D01*
X022830Y007702D02*
X022861Y007702D01*
X022620Y007702D02*
X022582Y007702D01*
X022582Y007604D02*
X022620Y007604D01*
X022620Y007505D02*
X022582Y007505D01*
X022582Y007406D02*
X022620Y007406D01*
X022620Y007308D02*
X022582Y007308D01*
X022582Y007209D02*
X022620Y007209D01*
X022620Y007111D02*
X022582Y007111D01*
X022582Y007012D02*
X022620Y007012D01*
X022565Y006815D02*
X022241Y006815D01*
X022241Y006717D02*
X022374Y006717D01*
X022282Y006618D02*
X022241Y006618D01*
X022241Y006520D02*
X022241Y006520D01*
X021901Y006717D02*
X021900Y006717D01*
X021901Y006815D02*
X020741Y006815D01*
X020801Y006914D02*
X021901Y006914D01*
X021901Y007012D02*
X021337Y007012D01*
X021436Y007111D02*
X021901Y007111D01*
X021887Y007209D02*
X021534Y007209D01*
X021596Y007308D02*
X021788Y007308D01*
X021690Y007406D02*
X021596Y007406D01*
X020965Y007012D02*
X020801Y007012D01*
X020801Y007111D02*
X020867Y007111D01*
X021061Y006421D02*
X021241Y006421D01*
X021241Y006322D02*
X021061Y006322D01*
X021061Y006224D02*
X021241Y006224D01*
X021241Y006125D02*
X021061Y006125D01*
X021061Y006027D02*
X021241Y006027D01*
X021241Y005928D02*
X021061Y005928D01*
X021061Y005830D02*
X021241Y005830D01*
X021246Y005731D02*
X021056Y005731D01*
X021015Y005633D02*
X021287Y005633D01*
X021363Y005534D02*
X020940Y005534D01*
X020781Y005436D02*
X021521Y005436D01*
X021781Y005436D02*
X021855Y005436D01*
X021777Y005337D02*
X020223Y005337D01*
X020321Y005436D02*
X020521Y005436D01*
X020363Y005534D02*
X020321Y005534D01*
X020125Y005239D02*
X021741Y005239D01*
X021741Y005140D02*
X020026Y005140D01*
X019927Y005041D02*
X021774Y005041D01*
X021847Y004943D02*
X019829Y004943D01*
X019108Y004703D02*
X018961Y004555D01*
X015966Y004555D01*
X016001Y004640D01*
X016001Y004771D01*
X015994Y004788D01*
X017263Y006057D01*
X017263Y006028D01*
X017322Y005886D01*
X017431Y005777D01*
X017574Y005718D01*
X017728Y005718D01*
X017871Y005777D01*
X017980Y005886D01*
X018017Y005976D01*
X018241Y005976D01*
X018241Y005744D01*
X018304Y005593D01*
X018419Y005478D01*
X018570Y005416D01*
X018733Y005416D01*
X018883Y005478D01*
X018999Y005593D01*
X019021Y005648D01*
X019021Y005312D01*
X019004Y005305D01*
X018911Y005212D01*
X018861Y005091D01*
X018861Y004960D01*
X018911Y004839D01*
X019004Y004746D01*
X017848Y004746D01*
X017882Y004760D02*
X017997Y004874D01*
X018059Y005024D01*
X018059Y005087D01*
X017670Y005087D01*
X017670Y005124D01*
X018059Y005124D01*
X018059Y005187D01*
X017997Y005336D01*
X017882Y005451D01*
X017732Y005513D01*
X017670Y005513D01*
X017670Y005125D01*
X017632Y005125D01*
X017632Y005513D01*
X017570Y005513D01*
X017420Y005451D01*
X017305Y005336D01*
X017243Y005187D01*
X017243Y005124D01*
X017632Y005124D01*
X017632Y005087D01*
X017243Y005087D01*
X017243Y005024D01*
X017305Y004874D01*
X017420Y004760D01*
X017570Y004698D01*
X017632Y004698D01*
X017632Y005086D01*
X017670Y005086D01*
X017670Y004698D01*
X017732Y004698D01*
X017882Y004760D01*
X017967Y004844D02*
X018909Y004844D01*
X018868Y004943D02*
X018025Y004943D01*
X018059Y005041D02*
X018861Y005041D01*
X018881Y005140D02*
X018059Y005140D01*
X018037Y005239D02*
X018938Y005239D01*
X019021Y005337D02*
X017996Y005337D01*
X017898Y005436D02*
X018521Y005436D01*
X018363Y005534D02*
X016740Y005534D01*
X016642Y005436D02*
X017405Y005436D01*
X017306Y005337D02*
X016543Y005337D01*
X016445Y005239D02*
X017265Y005239D01*
X017243Y005140D02*
X016346Y005140D01*
X016247Y005041D02*
X017243Y005041D01*
X017277Y004943D02*
X016149Y004943D01*
X016050Y004844D02*
X017336Y004844D01*
X017454Y004746D02*
X016001Y004746D01*
X016001Y004647D02*
X019053Y004647D01*
X019108Y004703D02*
X019004Y004746D01*
X019021Y005436D02*
X018781Y005436D01*
X018940Y005534D02*
X019021Y005534D01*
X019015Y005633D02*
X019021Y005633D01*
X018287Y005633D02*
X016839Y005633D01*
X016937Y005731D02*
X017541Y005731D01*
X017378Y005830D02*
X017036Y005830D01*
X017134Y005928D02*
X017305Y005928D01*
X017264Y006027D02*
X017233Y006027D01*
X017761Y005731D02*
X018246Y005731D01*
X018241Y005830D02*
X017924Y005830D01*
X017997Y005928D02*
X018241Y005928D01*
X017670Y005436D02*
X017632Y005436D01*
X017632Y005337D02*
X017670Y005337D01*
X017670Y005239D02*
X017632Y005239D01*
X017632Y005140D02*
X017670Y005140D01*
X017670Y005041D02*
X017632Y005041D01*
X017632Y004943D02*
X017670Y004943D01*
X017670Y004844D02*
X017632Y004844D01*
X017632Y004746D02*
X017670Y004746D01*
X018037Y003859D02*
X010518Y003859D01*
X010617Y003760D02*
X010985Y003760D01*
X010741Y003366D02*
X010561Y003366D01*
X010561Y003268D02*
X010741Y003268D01*
X010741Y003169D02*
X010561Y003169D01*
X010561Y003071D02*
X010741Y003071D01*
X010741Y002972D02*
X010561Y002972D01*
X010561Y002873D02*
X010741Y002873D01*
X010741Y002775D02*
X010561Y002775D01*
X010533Y002676D02*
X010769Y002676D01*
X010819Y002578D02*
X010483Y002578D01*
X010385Y002479D02*
X010918Y002479D01*
X009918Y002479D02*
X008801Y002479D01*
X008801Y002381D02*
X015196Y002381D01*
X015294Y002282D02*
X008801Y002282D01*
X008801Y002184D02*
X008900Y002184D01*
X008801Y002578D02*
X009819Y002578D01*
X008834Y001494D02*
X008700Y001494D01*
X008404Y001198D02*
X015501Y001198D01*
X015517Y001100D02*
X008306Y001100D01*
X005389Y002479D02*
X004913Y002479D01*
X005012Y002578D02*
X005291Y002578D01*
X005248Y002676D02*
X005055Y002676D01*
X005081Y002775D02*
X005221Y002775D01*
X005221Y002873D02*
X005081Y002873D01*
X005081Y002972D02*
X005221Y002972D01*
X005221Y003071D02*
X005081Y003071D01*
X005081Y003169D02*
X005221Y003169D01*
X005221Y003268D02*
X005081Y003268D01*
X005081Y003366D02*
X005221Y003366D01*
X005221Y003465D02*
X005081Y003465D01*
X005043Y003563D02*
X005259Y003563D01*
X005319Y003662D02*
X004983Y003662D01*
X004870Y003760D02*
X005433Y003760D01*
X005621Y003760D02*
X005681Y003760D01*
X005681Y003662D02*
X005621Y003662D01*
X005621Y003563D02*
X005681Y003563D01*
X005681Y003465D02*
X005621Y003465D01*
X005621Y003366D02*
X005681Y003366D01*
X005681Y003268D02*
X005621Y003268D01*
X005621Y003169D02*
X005681Y003169D01*
X004681Y003169D02*
X004621Y003169D01*
X004621Y003268D02*
X004681Y003268D01*
X004681Y003366D02*
X004621Y003366D01*
X004621Y003465D02*
X004681Y003465D01*
X004681Y003563D02*
X004621Y003563D01*
X004621Y003662D02*
X004681Y003662D01*
X004681Y003760D02*
X004621Y003760D01*
X004433Y003760D02*
X003818Y003760D01*
X003955Y003662D02*
X004319Y003662D01*
X004259Y003563D02*
X004021Y003563D01*
X004061Y003465D02*
X004221Y003465D01*
X004221Y003366D02*
X004061Y003366D01*
X004061Y003268D02*
X004221Y003268D01*
X004221Y003169D02*
X004061Y003169D01*
X004061Y003071D02*
X004221Y003071D01*
X004221Y002972D02*
X004061Y002972D01*
X004061Y002873D02*
X004221Y002873D01*
X004221Y002775D02*
X004061Y002775D01*
X004033Y002676D02*
X004248Y002676D01*
X004291Y002578D02*
X004001Y002578D01*
X004001Y002479D02*
X004389Y002479D01*
X003661Y002381D02*
X002241Y002381D01*
X002241Y002479D02*
X002418Y002479D01*
X002419Y002478D02*
X002570Y002416D01*
X002733Y002416D01*
X002883Y002478D01*
X002999Y002593D01*
X003061Y002744D01*
X003061Y003467D01*
X002999Y003618D01*
X002883Y003733D01*
X002733Y003795D01*
X002570Y003795D01*
X002419Y003733D01*
X002304Y003618D01*
X002241Y003467D01*
X002241Y002744D01*
X002304Y002593D01*
X002419Y002478D01*
X002319Y002578D02*
X002241Y002578D01*
X002241Y002676D02*
X002269Y002676D01*
X002241Y002775D02*
X002241Y002775D01*
X002241Y002873D02*
X002241Y002873D01*
X002241Y002972D02*
X002241Y002972D01*
X002241Y003071D02*
X002241Y003071D01*
X002241Y003169D02*
X002241Y003169D01*
X002241Y003268D02*
X002241Y003268D01*
X002241Y003366D02*
X002241Y003366D01*
X002241Y003465D02*
X002241Y003465D01*
X002241Y003563D02*
X002281Y003563D01*
X002241Y003662D02*
X002348Y003662D01*
X002241Y003760D02*
X002485Y003760D01*
X002241Y003859D02*
X005901Y003859D01*
X005901Y003957D02*
X002241Y003957D01*
X002241Y004056D02*
X005981Y004056D01*
X005901Y003760D02*
X005870Y003760D01*
X006801Y004056D02*
X007821Y004056D01*
X007821Y003957D02*
X006900Y003957D01*
X006998Y003859D02*
X007821Y003859D01*
X007485Y003760D02*
X007097Y003760D01*
X007195Y003662D02*
X007348Y003662D01*
X010795Y004549D02*
X013494Y004549D01*
X013343Y004647D02*
X010893Y004647D01*
X010992Y004746D02*
X013284Y004746D01*
X013281Y005436D02*
X013421Y005436D01*
X014333Y005436D02*
X014541Y005436D01*
X014541Y005534D02*
X014468Y005534D01*
X014537Y005633D02*
X014541Y005633D01*
X013782Y006618D02*
X013761Y006618D01*
X014337Y007012D02*
X014541Y007012D01*
X014541Y007111D02*
X014436Y007111D01*
X014534Y007209D02*
X014541Y007209D01*
X012965Y007012D02*
X012337Y007012D01*
X012436Y007111D02*
X012867Y007111D01*
X012768Y007209D02*
X012534Y007209D01*
X012596Y007308D02*
X012706Y007308D01*
X012706Y007406D02*
X012596Y007406D01*
X012596Y007505D02*
X012706Y007505D01*
X012706Y007604D02*
X012596Y007604D01*
X012534Y007702D02*
X012768Y007702D01*
X012867Y007801D02*
X012435Y007801D01*
X012337Y007899D02*
X012966Y007899D01*
X013123Y007998D02*
X012164Y007998D01*
X012475Y008096D02*
X013222Y008096D01*
X013320Y008195D02*
X012587Y008195D01*
X012630Y008293D02*
X013419Y008293D01*
X013517Y008392D02*
X012641Y008392D01*
X012625Y008490D02*
X013616Y008490D01*
X013714Y008589D02*
X012574Y008589D01*
X012444Y008688D02*
X013741Y008688D01*
X013747Y008786D02*
X010872Y008786D01*
X010971Y008885D02*
X013788Y008885D01*
X013882Y008983D02*
X011069Y008983D01*
X011168Y009082D02*
X011281Y009082D01*
X011337Y007899D02*
X011584Y007899D01*
X011501Y007801D02*
X011435Y007801D01*
X013522Y009082D02*
X014281Y009082D01*
X014260Y008983D02*
X014381Y008983D01*
X014381Y008885D02*
X014354Y008885D01*
X014117Y009180D02*
X013686Y009180D01*
X013763Y009279D02*
X014039Y009279D01*
X013998Y009377D02*
X013804Y009377D01*
X013811Y009476D02*
X013991Y009476D01*
X013991Y009574D02*
X013811Y009574D01*
X013811Y009673D02*
X013991Y009673D01*
X013991Y009771D02*
X013811Y009771D01*
X013811Y009870D02*
X013991Y009870D01*
X013991Y009969D02*
X013811Y009969D01*
X013811Y010067D02*
X013991Y010067D01*
X014011Y010166D02*
X013791Y010166D01*
X013750Y010264D02*
X014052Y010264D01*
X014149Y010363D02*
X013654Y010363D01*
X013520Y010461D02*
X014221Y010461D01*
X014221Y010560D02*
X013417Y010560D01*
X013319Y010658D02*
X014221Y010658D01*
X014221Y010757D02*
X013220Y010757D01*
X013122Y010855D02*
X014221Y010855D01*
X014221Y010954D02*
X013121Y010954D01*
X013121Y011053D02*
X014221Y011053D01*
X014221Y011151D02*
X013121Y011151D01*
X013121Y011250D02*
X014221Y011250D01*
X014221Y011348D02*
X013121Y011348D01*
X013121Y011447D02*
X013770Y011447D01*
X013645Y011545D02*
X013121Y011545D01*
X014052Y011447D02*
X014221Y011447D01*
X014221Y011545D02*
X014178Y011545D01*
X013035Y010461D02*
X012076Y010461D01*
X010642Y011348D02*
X009661Y011348D01*
X009731Y011447D02*
X010571Y011447D01*
X010541Y011545D02*
X009761Y011545D01*
X009761Y011644D02*
X010541Y011644D01*
X010579Y011742D02*
X009828Y011742D01*
X011642Y012137D02*
X011821Y012137D01*
X011821Y013615D02*
X011041Y013615D01*
X010701Y013615D02*
X008481Y013615D01*
X009934Y010363D02*
X010149Y010363D01*
X016161Y013375D02*
X016161Y013706D01*
X016161Y013896D01*
X016151Y013906D01*
X016151Y015206D01*
X016251Y015206D01*
X016251Y014855D01*
X016601Y014855D01*
X016601Y014756D01*
X016251Y014756D01*
X016251Y014243D01*
X016339Y014156D01*
X016601Y014156D01*
X016601Y014755D01*
X016701Y014755D01*
X016701Y014156D01*
X016963Y014156D01*
X017051Y014243D01*
X017051Y014756D01*
X016701Y014756D01*
X016701Y014855D01*
X017051Y014855D01*
X017051Y015206D01*
X017151Y015206D01*
X017151Y013946D01*
X017101Y013896D01*
X017101Y013706D01*
X016161Y013706D01*
X017101Y013706D01*
X017101Y011561D01*
X017017Y011595D01*
X016886Y011595D01*
X016764Y011545D01*
X016671Y011452D01*
X016621Y011331D01*
X016621Y011219D01*
X016591Y011292D01*
X016498Y011385D01*
X016481Y011392D01*
X016481Y012066D01*
X016483Y012066D01*
X016633Y012128D01*
X016749Y012243D01*
X016811Y012394D01*
X016811Y013117D01*
X016749Y013268D01*
X016633Y013383D01*
X016483Y013445D01*
X016320Y013445D01*
X016169Y013383D01*
X016161Y013375D01*
X016161Y013418D02*
X016252Y013418D01*
X016161Y013516D02*
X017101Y013516D01*
X017101Y013418D02*
X016550Y013418D01*
X016697Y013319D02*
X017101Y013319D01*
X017101Y013221D02*
X016768Y013221D01*
X016809Y013122D02*
X017101Y013122D01*
X017101Y013023D02*
X016811Y013023D01*
X016811Y012925D02*
X017101Y012925D01*
X017101Y012826D02*
X016811Y012826D01*
X016811Y012728D02*
X017101Y012728D01*
X017101Y012629D02*
X016811Y012629D01*
X016811Y012531D02*
X017101Y012531D01*
X017101Y012432D02*
X016811Y012432D01*
X016786Y012334D02*
X017101Y012334D01*
X017101Y012235D02*
X016741Y012235D01*
X016642Y012137D02*
X017101Y012137D01*
X017101Y012038D02*
X016481Y012038D01*
X016481Y011939D02*
X017101Y011939D01*
X017101Y011841D02*
X016481Y011841D01*
X016481Y011742D02*
X017101Y011742D01*
X017101Y011644D02*
X016481Y011644D01*
X016481Y011545D02*
X016764Y011545D01*
X016669Y011447D02*
X016481Y011447D01*
X016535Y011348D02*
X016628Y011348D01*
X016621Y011250D02*
X016609Y011250D01*
X016161Y013615D02*
X017101Y013615D01*
X017101Y013713D02*
X016161Y013713D01*
X016161Y013812D02*
X017101Y013812D01*
X017116Y013910D02*
X016151Y013910D01*
X016151Y014009D02*
X017151Y014009D01*
X017151Y014107D02*
X016151Y014107D01*
X016151Y014206D02*
X016289Y014206D01*
X016251Y014304D02*
X016151Y014304D01*
X016151Y014403D02*
X016251Y014403D01*
X016251Y014502D02*
X016151Y014502D01*
X016151Y014600D02*
X016251Y014600D01*
X016251Y014699D02*
X016151Y014699D01*
X016151Y014797D02*
X016601Y014797D01*
X016601Y014699D02*
X016701Y014699D01*
X016701Y014797D02*
X017151Y014797D01*
X017151Y014699D02*
X017051Y014699D01*
X017051Y014600D02*
X017151Y014600D01*
X017151Y014502D02*
X017051Y014502D01*
X017051Y014403D02*
X017151Y014403D01*
X017151Y014304D02*
X017051Y014304D01*
X017014Y014206D02*
X017151Y014206D01*
X016701Y014206D02*
X016601Y014206D01*
X016601Y014304D02*
X016701Y014304D01*
X016701Y014403D02*
X016601Y014403D01*
X016601Y014502D02*
X016701Y014502D01*
X016701Y014600D02*
X016601Y014600D01*
X016251Y014896D02*
X016151Y014896D01*
X016151Y014994D02*
X016251Y014994D01*
X016251Y015093D02*
X016151Y015093D01*
X016151Y015191D02*
X016251Y015191D01*
X017051Y015191D02*
X017151Y015191D01*
X017151Y015093D02*
X017051Y015093D01*
X017051Y014994D02*
X017151Y014994D01*
X017151Y014896D02*
X017051Y014896D01*
X024481Y013706D02*
X024481Y012156D01*
X024561Y012236D01*
X024554Y012243D01*
X024491Y012394D01*
X024491Y013117D01*
X024554Y013268D01*
X024669Y013383D01*
X024820Y013445D01*
X024983Y013445D01*
X025133Y013383D01*
X025249Y013268D01*
X025311Y013117D01*
X025311Y012394D01*
X025249Y012243D01*
X025133Y012128D01*
X024983Y012066D01*
X024872Y012066D01*
X024641Y011835D01*
X024641Y010355D01*
X024669Y010383D01*
X024820Y010445D01*
X024983Y010445D01*
X025133Y010383D01*
X025249Y010268D01*
X025311Y010117D01*
X025311Y009394D01*
X025249Y009243D01*
X025133Y009128D01*
X024983Y009066D01*
X024820Y009066D01*
X024669Y009128D01*
X024641Y009156D01*
X024641Y007816D01*
X024988Y007469D01*
X024967Y007519D01*
X024967Y007656D01*
X025851Y007656D01*
X025851Y007755D01*
X024967Y007755D01*
X024967Y007892D01*
X025111Y008238D01*
X025375Y008502D01*
X025720Y008645D01*
X025851Y008645D01*
X025851Y010906D01*
X027981Y010906D01*
X027981Y011035D01*
X027576Y011440D01*
X027520Y011440D01*
X027363Y011505D01*
X027243Y011625D01*
X027178Y011782D01*
X027178Y011952D01*
X027243Y012109D01*
X027363Y012229D01*
X027487Y012280D01*
X027363Y012332D01*
X027243Y012452D01*
X027178Y012609D01*
X027178Y012779D01*
X027243Y012936D01*
X027363Y013056D01*
X027520Y013121D01*
X027690Y013121D01*
X027847Y013056D01*
X027967Y012936D01*
X028032Y012779D01*
X028032Y012609D01*
X027967Y012452D01*
X027847Y012332D01*
X027723Y012280D01*
X027847Y012229D01*
X027967Y012109D01*
X028032Y011952D01*
X028032Y011782D01*
X027967Y011625D01*
X027919Y011578D01*
X028151Y011346D01*
X028151Y015236D01*
X025151Y015236D01*
X025151Y013706D01*
X024481Y013706D01*
X024481Y013615D02*
X027185Y013615D01*
X027178Y013632D02*
X027243Y013475D01*
X027363Y013355D01*
X027520Y013290D01*
X027690Y013290D01*
X027847Y013355D01*
X027967Y013475D01*
X028032Y013632D01*
X028032Y013802D01*
X027967Y013959D01*
X027847Y014079D01*
X027749Y014120D01*
X027858Y014165D01*
X027984Y014291D01*
X028052Y014455D01*
X028052Y014505D01*
X027644Y014505D01*
X027644Y014583D01*
X028052Y014583D01*
X028052Y014633D01*
X027984Y014797D01*
X028151Y014797D01*
X028151Y014699D02*
X028025Y014699D01*
X028052Y014600D02*
X028151Y014600D01*
X028151Y014502D02*
X028052Y014502D01*
X028030Y014403D02*
X028151Y014403D01*
X028151Y014304D02*
X027989Y014304D01*
X027899Y014206D02*
X028151Y014206D01*
X028151Y014107D02*
X027779Y014107D01*
X027917Y014009D02*
X028151Y014009D01*
X028151Y013910D02*
X027987Y013910D01*
X028028Y013812D02*
X028151Y013812D01*
X028151Y013713D02*
X028032Y013713D01*
X028025Y013615D02*
X028151Y013615D01*
X028151Y013516D02*
X027984Y013516D01*
X027909Y013418D02*
X028151Y013418D01*
X028151Y013319D02*
X027759Y013319D01*
X027450Y013319D02*
X025197Y013319D01*
X025268Y013221D02*
X028151Y013221D01*
X028151Y013122D02*
X025309Y013122D01*
X025311Y013023D02*
X027330Y013023D01*
X027238Y012925D02*
X025311Y012925D01*
X025311Y012826D02*
X027197Y012826D01*
X027178Y012728D02*
X025311Y012728D01*
X025311Y012629D02*
X027178Y012629D01*
X027210Y012531D02*
X025311Y012531D01*
X025311Y012432D02*
X027262Y012432D01*
X027361Y012334D02*
X025286Y012334D01*
X025241Y012235D02*
X026393Y012235D01*
X026379Y012229D02*
X026258Y012109D01*
X026193Y011952D01*
X026193Y011782D01*
X026258Y011625D01*
X026379Y011505D01*
X026535Y011440D01*
X026705Y011440D01*
X026862Y011505D01*
X026983Y011625D01*
X027048Y011782D01*
X027048Y011952D01*
X026983Y012109D01*
X026862Y012229D01*
X026705Y012294D01*
X026535Y012294D01*
X026379Y012229D01*
X026286Y012137D02*
X025142Y012137D01*
X024844Y012038D02*
X026229Y012038D01*
X026193Y011939D02*
X024745Y011939D01*
X024647Y011841D02*
X026193Y011841D01*
X026210Y011742D02*
X024641Y011742D01*
X024641Y011644D02*
X026251Y011644D01*
X026338Y011545D02*
X024641Y011545D01*
X024641Y011447D02*
X026519Y011447D01*
X026722Y011447D02*
X027503Y011447D01*
X027668Y011348D02*
X024641Y011348D01*
X024641Y011250D02*
X027767Y011250D01*
X027865Y011151D02*
X024641Y011151D01*
X024641Y011053D02*
X027964Y011053D01*
X027981Y010954D02*
X024641Y010954D01*
X024641Y010855D02*
X025851Y010855D01*
X025851Y010757D02*
X024641Y010757D01*
X024641Y010658D02*
X025851Y010658D01*
X025851Y010560D02*
X024641Y010560D01*
X024641Y010461D02*
X025851Y010461D01*
X025851Y010363D02*
X025154Y010363D01*
X025250Y010264D02*
X025851Y010264D01*
X025851Y010166D02*
X025291Y010166D01*
X025311Y010067D02*
X025851Y010067D01*
X025851Y009969D02*
X025311Y009969D01*
X025311Y009870D02*
X025851Y009870D01*
X025851Y009771D02*
X025311Y009771D01*
X025311Y009673D02*
X025851Y009673D01*
X025851Y009574D02*
X025311Y009574D01*
X025311Y009476D02*
X025851Y009476D01*
X025851Y009377D02*
X025304Y009377D01*
X025263Y009279D02*
X025851Y009279D01*
X025851Y009180D02*
X025186Y009180D01*
X025022Y009082D02*
X025851Y009082D01*
X025851Y008983D02*
X024641Y008983D01*
X024641Y008885D02*
X025851Y008885D01*
X025851Y008786D02*
X024641Y008786D01*
X024641Y008688D02*
X025851Y008688D01*
X025584Y008589D02*
X024641Y008589D01*
X024641Y008490D02*
X025363Y008490D01*
X025265Y008392D02*
X024641Y008392D01*
X024641Y008293D02*
X025166Y008293D01*
X025093Y008195D02*
X024641Y008195D01*
X024641Y008096D02*
X025052Y008096D01*
X025011Y007998D02*
X024641Y007998D01*
X024641Y007899D02*
X024970Y007899D01*
X024967Y007801D02*
X024656Y007801D01*
X024755Y007702D02*
X025851Y007702D01*
X024967Y007604D02*
X024854Y007604D01*
X024952Y007505D02*
X024973Y007505D01*
X025281Y006914D02*
X025370Y006914D01*
X025281Y006815D02*
X025601Y006815D01*
X025851Y006717D02*
X025281Y006717D01*
X025281Y006618D02*
X025851Y006618D01*
X025851Y006520D02*
X025281Y006520D01*
X025281Y006421D02*
X025851Y006421D01*
X025851Y006322D02*
X025281Y006322D01*
X025281Y006224D02*
X025851Y006224D01*
X025851Y006125D02*
X025281Y006125D01*
X025281Y006027D02*
X025851Y006027D01*
X025851Y005928D02*
X025281Y005928D01*
X025281Y005830D02*
X025851Y005830D01*
X025851Y005731D02*
X025281Y005731D01*
X025281Y005633D02*
X025851Y005633D01*
X025851Y005534D02*
X025281Y005534D01*
X025281Y005436D02*
X025851Y005436D01*
X025851Y005337D02*
X025281Y005337D01*
X025281Y005239D02*
X025851Y005239D01*
X025281Y005140D02*
X027981Y005140D01*
X027981Y005041D02*
X025281Y005041D01*
X025281Y004943D02*
X027981Y004943D01*
X027981Y004844D02*
X025281Y004844D01*
X025281Y004746D02*
X027981Y004746D01*
X027981Y004647D02*
X027800Y004647D01*
X027643Y004647D02*
X027566Y004647D01*
X027566Y004549D02*
X027643Y004549D01*
X027643Y004450D02*
X027566Y004450D01*
X027566Y004352D02*
X027643Y004352D01*
X027566Y004253D02*
X027048Y004253D01*
X027048Y004329D02*
X026983Y004486D01*
X026862Y004606D01*
X026705Y004671D01*
X026535Y004671D01*
X026379Y004606D01*
X026258Y004486D01*
X026193Y004329D01*
X026193Y004159D01*
X026258Y004002D01*
X026379Y003882D01*
X026535Y003817D01*
X026705Y003817D01*
X026862Y003882D01*
X026983Y004002D01*
X027048Y004159D01*
X027048Y004329D01*
X027038Y004352D02*
X027165Y004352D01*
X027206Y004450D02*
X026997Y004450D01*
X026920Y004549D02*
X027277Y004549D01*
X027410Y004647D02*
X026763Y004647D01*
X026478Y004647D02*
X025281Y004647D01*
X025281Y004549D02*
X026321Y004549D01*
X026244Y004450D02*
X025281Y004450D01*
X025281Y004352D02*
X026203Y004352D01*
X026193Y004253D02*
X025281Y004253D01*
X025281Y004155D02*
X026195Y004155D01*
X026236Y004056D02*
X025281Y004056D01*
X025281Y003957D02*
X026303Y003957D01*
X026434Y003859D02*
X025281Y003859D01*
X025281Y003760D02*
X027344Y003760D01*
X027366Y003859D02*
X026807Y003859D01*
X026938Y003957D02*
X027259Y003957D01*
X027199Y004056D02*
X027005Y004056D01*
X027046Y004155D02*
X027158Y004155D01*
X027245Y003662D02*
X025281Y003662D01*
X025281Y003563D02*
X027203Y003563D01*
X027178Y003465D02*
X025281Y003465D01*
X025281Y003366D02*
X027178Y003366D01*
X027204Y003268D02*
X025281Y003268D01*
X025281Y003169D02*
X027249Y003169D01*
X027347Y003071D02*
X025281Y003071D01*
X025281Y002972D02*
X027981Y002972D01*
X027981Y002873D02*
X025281Y002873D01*
X025281Y002775D02*
X027409Y002775D01*
X027283Y002676D02*
X025281Y002676D01*
X025281Y002578D02*
X027219Y002578D01*
X027189Y002282D02*
X025281Y002282D01*
X025281Y002184D02*
X027229Y002184D01*
X027309Y002085D02*
X025281Y002085D01*
X025193Y001987D02*
X026517Y001987D01*
X026535Y001994D02*
X026379Y001929D01*
X026258Y001809D01*
X026193Y001652D01*
X026193Y001482D01*
X026258Y001325D01*
X026379Y001205D01*
X026535Y001140D01*
X026705Y001140D01*
X026862Y001205D01*
X026983Y001325D01*
X027048Y001482D01*
X027048Y001652D01*
X026983Y001809D01*
X026862Y001929D01*
X026705Y001994D01*
X026535Y001994D01*
X026724Y001987D02*
X027471Y001987D01*
X027322Y001888D02*
X026903Y001888D01*
X026991Y001789D02*
X027235Y001789D01*
X027194Y001691D02*
X027031Y001691D01*
X027048Y001592D02*
X027178Y001592D01*
X027178Y001494D02*
X027048Y001494D01*
X027012Y001395D02*
X027213Y001395D01*
X027271Y001297D02*
X026954Y001297D01*
X026846Y001198D02*
X027379Y001198D01*
X027831Y001198D02*
X028151Y001198D01*
X028151Y001100D02*
X024146Y001100D01*
X024244Y001198D02*
X024613Y001198D01*
X024789Y001198D02*
X026394Y001198D01*
X026287Y001297D02*
X024972Y001297D01*
X025058Y001395D02*
X026229Y001395D01*
X026193Y001494D02*
X025099Y001494D01*
X025111Y001592D02*
X026193Y001592D01*
X026210Y001691D02*
X025110Y001691D01*
X025069Y001789D02*
X026250Y001789D01*
X026338Y001888D02*
X025094Y001888D01*
X024430Y001297D02*
X024321Y001297D01*
X024321Y001395D02*
X024344Y001395D01*
X023323Y001395D02*
X021370Y001395D01*
X021469Y001494D02*
X023282Y001494D01*
X023981Y002184D02*
X021402Y002184D01*
X021621Y002479D02*
X021681Y002479D01*
X021681Y002578D02*
X021621Y002578D01*
X021621Y002676D02*
X021681Y002676D01*
X021681Y002775D02*
X021621Y002775D01*
X021621Y002873D02*
X021681Y002873D01*
X021681Y002972D02*
X021621Y002972D01*
X021621Y003071D02*
X021681Y003071D01*
X021681Y003136D02*
X022081Y003136D01*
X022081Y003471D01*
X022016Y003629D01*
X021895Y003750D01*
X021737Y003815D01*
X021681Y003815D01*
X021681Y003136D01*
X021681Y003169D02*
X021621Y003169D01*
X021621Y003268D02*
X021681Y003268D01*
X021681Y003366D02*
X021621Y003366D01*
X021621Y003465D02*
X021681Y003465D01*
X021681Y003563D02*
X021621Y003563D01*
X021621Y003662D02*
X021681Y003662D01*
X021681Y003760D02*
X021621Y003760D01*
X021870Y003760D02*
X022433Y003760D01*
X022408Y003750D02*
X022287Y003629D01*
X022221Y003471D01*
X022221Y003136D01*
X022621Y003136D01*
X022621Y003815D01*
X022566Y003815D01*
X022408Y003750D01*
X022319Y003662D02*
X021983Y003662D01*
X022043Y003563D02*
X022259Y003563D01*
X022221Y003465D02*
X022081Y003465D01*
X022081Y003366D02*
X022221Y003366D01*
X022221Y003268D02*
X022081Y003268D01*
X022081Y003169D02*
X022221Y003169D01*
X022221Y003075D02*
X022221Y002740D01*
X022287Y002582D01*
X022408Y002461D01*
X022566Y002396D01*
X022621Y002396D01*
X022621Y003075D01*
X022681Y003075D01*
X022681Y002396D01*
X022737Y002396D01*
X022895Y002461D01*
X023016Y002582D01*
X023081Y002740D01*
X023081Y003075D01*
X022681Y003075D01*
X022681Y003136D01*
X022621Y003136D01*
X022621Y003075D01*
X022221Y003075D01*
X022221Y003071D02*
X022081Y003071D01*
X022081Y002972D02*
X022221Y002972D01*
X022221Y002873D02*
X022081Y002873D01*
X022081Y002775D02*
X022221Y002775D01*
X022248Y002676D02*
X022055Y002676D01*
X022012Y002578D02*
X022291Y002578D01*
X022389Y002479D02*
X021913Y002479D01*
X022621Y002479D02*
X022681Y002479D01*
X022681Y002578D02*
X022621Y002578D01*
X022621Y002676D02*
X022681Y002676D01*
X022681Y002775D02*
X022621Y002775D01*
X022621Y002873D02*
X022681Y002873D01*
X022681Y002972D02*
X022621Y002972D01*
X022621Y003071D02*
X022681Y003071D01*
X022681Y003136D02*
X023081Y003136D01*
X023081Y003471D01*
X023016Y003629D01*
X022895Y003750D01*
X022737Y003815D01*
X022681Y003815D01*
X022681Y003136D01*
X022681Y003169D02*
X022621Y003169D01*
X022621Y003268D02*
X022681Y003268D01*
X022681Y003366D02*
X022621Y003366D01*
X022621Y003465D02*
X022681Y003465D01*
X022681Y003563D02*
X022621Y003563D01*
X022621Y003662D02*
X022681Y003662D01*
X022681Y003760D02*
X022621Y003760D01*
X022870Y003760D02*
X023485Y003760D01*
X023348Y003662D02*
X022983Y003662D01*
X023043Y003563D02*
X023281Y003563D01*
X023241Y003465D02*
X023081Y003465D01*
X023081Y003366D02*
X023241Y003366D01*
X023241Y003268D02*
X023081Y003268D01*
X023081Y003169D02*
X023241Y003169D01*
X023241Y003071D02*
X023081Y003071D01*
X023081Y002972D02*
X023241Y002972D01*
X023241Y002873D02*
X023081Y002873D01*
X023081Y002775D02*
X023241Y002775D01*
X023269Y002676D02*
X023055Y002676D01*
X023012Y002578D02*
X023319Y002578D01*
X023418Y002479D02*
X022913Y002479D01*
X023885Y002479D02*
X023981Y002479D01*
X023981Y002381D02*
X015676Y002381D01*
X015578Y002479D02*
X015918Y002479D01*
X015919Y002478D02*
X016070Y002416D01*
X016233Y002416D01*
X016383Y002478D01*
X016499Y002593D01*
X016561Y002744D01*
X016561Y003467D01*
X016499Y003618D01*
X016383Y003733D01*
X016233Y003795D01*
X016070Y003795D01*
X015919Y003733D01*
X015804Y003618D01*
X015741Y003467D01*
X015741Y002744D01*
X015804Y002593D01*
X015919Y002478D01*
X015819Y002578D02*
X015483Y002578D01*
X015533Y002676D02*
X015769Y002676D01*
X015741Y002775D02*
X015561Y002775D01*
X015561Y002873D02*
X015741Y002873D01*
X015741Y002972D02*
X015561Y002972D01*
X015561Y003071D02*
X015741Y003071D01*
X015741Y003169D02*
X015561Y003169D01*
X015561Y003268D02*
X015741Y003268D01*
X015741Y003366D02*
X015561Y003366D01*
X015561Y003465D02*
X015741Y003465D01*
X015781Y003563D02*
X015521Y003563D01*
X015455Y003662D02*
X015848Y003662D01*
X015985Y003760D02*
X015318Y003760D01*
X016318Y003760D02*
X018136Y003760D01*
X018234Y003662D02*
X016455Y003662D01*
X016521Y003563D02*
X018281Y003563D01*
X018241Y003465D02*
X016561Y003465D01*
X016561Y003366D02*
X018241Y003366D01*
X018241Y003268D02*
X016561Y003268D01*
X016561Y003169D02*
X018241Y003169D01*
X018241Y003071D02*
X016561Y003071D01*
X016561Y002972D02*
X018241Y002972D01*
X018241Y002873D02*
X016561Y002873D01*
X016561Y002775D02*
X018241Y002775D01*
X018269Y002676D02*
X016533Y002676D01*
X016483Y002578D02*
X018319Y002578D01*
X018418Y002479D02*
X016385Y002479D01*
X015900Y002184D02*
X015841Y002184D01*
X015775Y002282D02*
X023981Y002282D01*
X027801Y002775D02*
X027981Y002775D01*
X027981Y002676D02*
X027926Y002676D01*
X027981Y003071D02*
X027862Y003071D01*
X027961Y003169D02*
X027981Y003169D01*
X028073Y001987D02*
X028151Y001987D01*
X028151Y001888D02*
X027974Y001888D01*
X027975Y001789D02*
X028151Y001789D01*
X028151Y001691D02*
X028016Y001691D01*
X028032Y001592D02*
X028151Y001592D01*
X028151Y001494D02*
X028032Y001494D01*
X027996Y001395D02*
X028151Y001395D01*
X028151Y001297D02*
X027939Y001297D01*
X028151Y001001D02*
X000321Y001001D01*
X000321Y000903D02*
X028151Y000903D01*
X027981Y004549D02*
X027932Y004549D01*
X024141Y006717D02*
X023900Y006717D01*
X023998Y006618D02*
X024063Y006618D01*
X024141Y006815D02*
X023562Y006815D01*
X023682Y007012D02*
X023720Y007012D01*
X022861Y007012D02*
X022835Y007012D01*
X022968Y005534D02*
X023021Y005534D01*
X023021Y005436D02*
X022833Y005436D01*
X022334Y005534D02*
X022241Y005534D01*
X022241Y005633D02*
X022266Y005633D01*
X024022Y009082D02*
X024141Y009082D01*
X023539Y009279D02*
X023521Y009279D01*
X024641Y009082D02*
X024781Y009082D01*
X024649Y010363D02*
X024641Y010363D01*
X026903Y011545D02*
X027322Y011545D01*
X027235Y011644D02*
X026990Y011644D01*
X027031Y011742D02*
X027194Y011742D01*
X027178Y011841D02*
X027048Y011841D01*
X027048Y011939D02*
X027178Y011939D01*
X027213Y012038D02*
X027012Y012038D01*
X026955Y012137D02*
X027270Y012137D01*
X027377Y012235D02*
X026848Y012235D01*
X027832Y012235D02*
X028151Y012235D01*
X028151Y012137D02*
X027939Y012137D01*
X027996Y012038D02*
X028151Y012038D01*
X028151Y011939D02*
X028032Y011939D01*
X028032Y011841D02*
X028151Y011841D01*
X028151Y011742D02*
X028015Y011742D01*
X027975Y011644D02*
X028151Y011644D01*
X028151Y011545D02*
X027952Y011545D01*
X028050Y011447D02*
X028151Y011447D01*
X028149Y011348D02*
X028151Y011348D01*
X028151Y012334D02*
X027849Y012334D01*
X027947Y012432D02*
X028151Y012432D01*
X028151Y012531D02*
X028000Y012531D01*
X028032Y012629D02*
X028151Y012629D01*
X028151Y012728D02*
X028032Y012728D01*
X028012Y012826D02*
X028151Y012826D01*
X028151Y012925D02*
X027971Y012925D01*
X027879Y013023D02*
X028151Y013023D01*
X027300Y013418D02*
X025050Y013418D01*
X024752Y013418D02*
X024481Y013418D01*
X024481Y013516D02*
X027226Y013516D01*
X027178Y013632D02*
X027178Y013802D01*
X027243Y013959D01*
X027363Y014079D01*
X027460Y014120D01*
X027351Y014165D01*
X027226Y014291D01*
X027158Y014455D01*
X027158Y014505D01*
X027566Y014505D01*
X027566Y014583D01*
X027566Y014991D01*
X027516Y014991D01*
X027351Y014923D01*
X027226Y014797D01*
X026971Y014797D01*
X026983Y014786D02*
X026862Y014906D01*
X026705Y014971D01*
X026535Y014971D01*
X026379Y014906D01*
X026258Y014786D01*
X026193Y014629D01*
X026193Y014459D01*
X026258Y014302D01*
X026379Y014182D01*
X026535Y014117D01*
X026705Y014117D01*
X026862Y014182D01*
X026983Y014302D01*
X027048Y014459D01*
X027048Y014629D01*
X026983Y014786D01*
X027019Y014699D02*
X027185Y014699D01*
X027158Y014633D02*
X027226Y014797D01*
X027324Y014896D02*
X026873Y014896D01*
X027048Y014600D02*
X027158Y014600D01*
X027158Y014583D02*
X027566Y014583D01*
X027643Y014583D01*
X027643Y014991D01*
X027694Y014991D01*
X027858Y014923D01*
X027984Y014797D01*
X027885Y014896D02*
X028151Y014896D01*
X028151Y014994D02*
X025151Y014994D01*
X025151Y014896D02*
X026368Y014896D01*
X026270Y014797D02*
X025151Y014797D01*
X025151Y014699D02*
X026222Y014699D01*
X026193Y014600D02*
X025151Y014600D01*
X025151Y014502D02*
X026193Y014502D01*
X026217Y014403D02*
X025151Y014403D01*
X025151Y014304D02*
X026257Y014304D01*
X026355Y014206D02*
X025151Y014206D01*
X025151Y014107D02*
X027430Y014107D01*
X027310Y014206D02*
X026886Y014206D01*
X026984Y014304D02*
X027220Y014304D01*
X027179Y014403D02*
X027024Y014403D01*
X027048Y014502D02*
X027158Y014502D01*
X027158Y014583D02*
X027158Y014633D01*
X027566Y014600D02*
X027643Y014600D01*
X027643Y014699D02*
X027566Y014699D01*
X027566Y014797D02*
X027643Y014797D01*
X027643Y014896D02*
X027566Y014896D01*
X028151Y015093D02*
X025151Y015093D01*
X025151Y015191D02*
X028151Y015191D01*
X027292Y014009D02*
X025151Y014009D01*
X025151Y013910D02*
X027222Y013910D01*
X027181Y013812D02*
X025151Y013812D01*
X025151Y013713D02*
X027178Y013713D01*
X024605Y013319D02*
X024481Y013319D01*
X024481Y013221D02*
X024534Y013221D01*
X024493Y013122D02*
X024481Y013122D01*
X024481Y013023D02*
X024491Y013023D01*
X024481Y012925D02*
X024491Y012925D01*
X024481Y012826D02*
X024491Y012826D01*
X024481Y012728D02*
X024491Y012728D01*
X024481Y012629D02*
X024491Y012629D01*
X024481Y012531D02*
X024491Y012531D01*
X024481Y012432D02*
X024491Y012432D01*
X024481Y012334D02*
X024516Y012334D01*
X024481Y012235D02*
X024560Y012235D01*
X009170Y005436D02*
X009132Y005436D01*
X006521Y005436D02*
X005833Y005436D01*
X005681Y005436D02*
X005621Y005436D01*
X005621Y005534D02*
X005681Y005534D01*
X005681Y005633D02*
X005621Y005633D01*
X005621Y005731D02*
X005681Y005731D01*
X005681Y005830D02*
X005621Y005830D01*
X005621Y005928D02*
X005681Y005928D01*
X005681Y006027D02*
X005621Y006027D01*
X005621Y006125D02*
X005061Y006125D01*
X005061Y006027D02*
X005221Y006027D01*
X005221Y005928D02*
X005061Y005928D01*
X005061Y005830D02*
X005221Y005830D01*
X005225Y005731D02*
X005056Y005731D01*
X005015Y005633D02*
X005266Y005633D01*
X005334Y005534D02*
X004940Y005534D01*
X004781Y005436D02*
X005469Y005436D01*
X005968Y005534D02*
X006363Y005534D01*
X006287Y005633D02*
X006037Y005633D01*
X006078Y005731D02*
X006246Y005731D01*
X006241Y005830D02*
X006081Y005830D01*
X006081Y005928D02*
X006241Y005928D01*
X006241Y006027D02*
X006081Y006027D01*
X006241Y006125D02*
X005681Y006125D01*
X005221Y006224D02*
X005061Y006224D01*
X005061Y006322D02*
X005221Y006322D01*
X005221Y006421D02*
X005061Y006421D01*
X005039Y006520D02*
X005241Y006520D01*
X006061Y006520D02*
X006263Y006520D01*
X006241Y006421D02*
X006081Y006421D01*
X006081Y006322D02*
X006241Y006322D01*
X006241Y006224D02*
X006081Y006224D01*
X001901Y005275D02*
X001901Y003715D01*
X001883Y003733D01*
X001485Y003760D02*
X000321Y003760D01*
X000321Y003662D02*
X001348Y003662D01*
X001281Y003563D02*
X000321Y003563D01*
X000321Y003465D02*
X001241Y003465D01*
X001241Y003366D02*
X000321Y003366D01*
X000321Y003268D02*
X001241Y003268D01*
X001241Y003169D02*
X000321Y003169D01*
X000321Y003071D02*
X001241Y003071D01*
X001241Y002972D02*
X000321Y002972D01*
X000321Y002873D02*
X001241Y002873D01*
X001241Y002775D02*
X000321Y002775D01*
X000321Y002676D02*
X001269Y002676D01*
X001319Y002578D02*
X000321Y002578D01*
X000321Y002479D02*
X001418Y002479D01*
X001885Y002479D02*
X001901Y002479D01*
X001901Y002381D02*
X000321Y002381D01*
X000321Y002282D02*
X001901Y002282D01*
X001900Y002184D02*
X000321Y002184D01*
X000321Y002085D02*
X001801Y002085D01*
X001706Y001987D02*
X000321Y001987D01*
X000321Y001888D02*
X001706Y001888D01*
X001706Y001789D02*
X000321Y001789D01*
X000321Y001691D02*
X001706Y001691D01*
X001735Y001592D02*
X000321Y001592D01*
X000321Y001494D02*
X001834Y001494D01*
X001932Y001395D02*
X000321Y001395D01*
X000321Y001297D02*
X003981Y001297D01*
X003981Y001198D02*
X000321Y001198D01*
X000321Y001100D02*
X003997Y001100D01*
X003932Y001395D02*
X003370Y001395D01*
X003335Y001361D02*
X003596Y001621D01*
X003596Y001990D01*
X003335Y002250D01*
X002967Y002250D01*
X002706Y001990D01*
X002706Y001621D01*
X002967Y001361D01*
X003335Y001361D01*
X003469Y001494D02*
X003834Y001494D01*
X003735Y001592D02*
X003567Y001592D01*
X003596Y001691D02*
X003706Y001691D01*
X003706Y001789D02*
X003596Y001789D01*
X003596Y001888D02*
X003706Y001888D01*
X003706Y001987D02*
X003596Y001987D01*
X003501Y002085D02*
X003802Y002085D01*
X003713Y002184D02*
X003402Y002184D01*
X003661Y002282D02*
X002241Y002282D01*
X002402Y002184D02*
X002900Y002184D01*
X002801Y002085D02*
X002501Y002085D01*
X002596Y001987D02*
X002706Y001987D01*
X002706Y001888D02*
X002596Y001888D01*
X002596Y001789D02*
X002706Y001789D01*
X002706Y001691D02*
X002596Y001691D01*
X002567Y001592D02*
X002735Y001592D01*
X002834Y001494D02*
X002469Y001494D01*
X002370Y001395D02*
X002932Y001395D01*
X002885Y002479D02*
X003418Y002479D01*
X003319Y002578D02*
X002983Y002578D01*
X003033Y002676D02*
X003269Y002676D01*
X003241Y002775D02*
X003061Y002775D01*
X003061Y002873D02*
X003241Y002873D01*
X003241Y002972D02*
X003061Y002972D01*
X003061Y003071D02*
X003241Y003071D01*
X003241Y003169D02*
X003061Y003169D01*
X003061Y003268D02*
X003241Y003268D01*
X003241Y003366D02*
X003061Y003366D01*
X003061Y003465D02*
X003241Y003465D01*
X003281Y003563D02*
X003021Y003563D01*
X002955Y003662D02*
X003348Y003662D01*
X003485Y003760D02*
X002818Y003760D01*
X001901Y004746D02*
X000968Y004746D01*
X001055Y004844D02*
X001901Y004844D01*
X001901Y004943D02*
X001096Y004943D01*
X001108Y005140D02*
X001901Y005140D01*
X001901Y005239D02*
X001067Y005239D01*
X000996Y005337D02*
X001839Y005337D01*
X001901Y005275D02*
X001753Y005424D01*
X001733Y005416D01*
X001570Y005416D01*
X001419Y005478D01*
X001304Y005593D01*
X001241Y005744D01*
X001241Y006467D01*
X001241Y006421D02*
X000832Y006421D01*
X000983Y006322D02*
X001241Y006322D01*
X001241Y006224D02*
X001051Y006224D01*
X001089Y006125D02*
X001241Y006125D01*
X001241Y006027D02*
X001089Y006027D01*
X001068Y005928D02*
X001241Y005928D01*
X001241Y005830D02*
X001024Y005830D01*
X000925Y005731D02*
X001246Y005731D01*
X001287Y005633D02*
X000321Y005633D01*
X000321Y005731D02*
X000477Y005731D01*
X000378Y005830D02*
X000321Y005830D01*
X000321Y005928D02*
X000334Y005928D01*
X000321Y006224D02*
X000351Y006224D01*
X000321Y006322D02*
X000420Y006322D01*
X000321Y006421D02*
X000570Y006421D01*
X000321Y005534D02*
X001363Y005534D01*
X001521Y005436D02*
X000849Y005436D01*
X000720Y005436D02*
X000682Y005436D01*
X000682Y005337D02*
X000720Y005337D01*
X000720Y005239D02*
X000682Y005239D01*
X000682Y005140D02*
X000720Y005140D01*
X000720Y005041D02*
X001901Y005041D01*
X000720Y004943D02*
X000682Y004943D01*
X000682Y004844D02*
X000720Y004844D01*
X000720Y004746D02*
X000682Y004746D01*
X000336Y005239D02*
X000321Y005239D01*
X000321Y005337D02*
X000406Y005337D01*
X000321Y005436D02*
X000553Y005436D01*
X013121Y003760D02*
X013181Y003760D01*
X013181Y003662D02*
X013121Y003662D01*
X013121Y003563D02*
X013181Y003563D01*
X013181Y003465D02*
X013121Y003465D01*
X013121Y003366D02*
X013181Y003366D01*
X013181Y003268D02*
X013121Y003268D01*
X013121Y003169D02*
X013181Y003169D01*
X013181Y003071D02*
X013121Y003071D01*
X013121Y002972D02*
X013181Y002972D01*
X013181Y002873D02*
X013121Y002873D01*
X013121Y002775D02*
X013181Y002775D01*
X013181Y002676D02*
X013121Y002676D01*
X013121Y002578D02*
X013181Y002578D01*
X013181Y002479D02*
X013121Y002479D01*
X014402Y002184D02*
X014900Y002184D01*
X014801Y002085D02*
X014501Y002085D01*
X014596Y001987D02*
X014706Y001987D01*
X014706Y001888D02*
X014596Y001888D01*
X014596Y001789D02*
X014706Y001789D01*
X014706Y001691D02*
X014596Y001691D01*
X014567Y001592D02*
X014735Y001592D01*
X014834Y001494D02*
X014469Y001494D01*
X014370Y001395D02*
X014932Y001395D01*
M02*
