G75*
G70*
%OFA0B0*%
%FSLAX24Y24*%
%IPPOS*%
%LPD*%
%AMOC8*
5,1,8,0,0,1.08239X$1,22.5*
%
%ADD10C,0.0040*%
%ADD11C,0.0030*%
D10*
X000151Y000706D02*
X000151Y015406D01*
X030151Y015406D01*
X030151Y000706D01*
X000151Y000706D01*
X003943Y013536D02*
X004173Y013536D01*
X004250Y013612D01*
X004250Y013689D01*
X004173Y013766D01*
X003943Y013766D01*
X003943Y013996D02*
X004173Y013996D01*
X004250Y013919D01*
X004250Y013842D01*
X004173Y013766D01*
X004403Y013842D02*
X004403Y013612D01*
X004480Y013536D01*
X004710Y013536D01*
X004710Y013842D01*
X004863Y013842D02*
X004863Y013536D01*
X004863Y013689D02*
X005017Y013842D01*
X005094Y013842D01*
X005247Y013689D02*
X005477Y013842D01*
X005631Y013766D02*
X005707Y013842D01*
X005861Y013842D01*
X005938Y013766D01*
X005938Y013689D01*
X005631Y013689D01*
X005631Y013612D02*
X005631Y013766D01*
X005631Y013612D02*
X005707Y013536D01*
X005861Y013536D01*
X005477Y013536D02*
X005247Y013689D01*
X005247Y013536D02*
X005247Y013996D01*
X003943Y013996D02*
X003943Y013536D01*
X011251Y013672D02*
X011328Y013596D01*
X011481Y013596D01*
X011558Y013672D01*
X011558Y013749D01*
X011481Y013826D01*
X011405Y013826D01*
X011481Y013826D02*
X011558Y013902D01*
X011558Y013979D01*
X011481Y014056D01*
X011328Y014056D01*
X011251Y013979D01*
X011712Y013826D02*
X011942Y013826D01*
X012019Y013749D01*
X012019Y013672D01*
X011942Y013596D01*
X011788Y013596D01*
X011712Y013672D01*
X011712Y013826D01*
X011865Y013979D01*
X012019Y014056D01*
X012172Y013979D02*
X012249Y014056D01*
X012402Y014056D01*
X012479Y013979D01*
X012172Y013672D01*
X012249Y013596D01*
X012402Y013596D01*
X012479Y013672D01*
X012479Y013979D01*
X012632Y014056D02*
X012786Y014056D01*
X012709Y014056D02*
X012709Y013596D01*
X012632Y013596D02*
X012786Y013596D01*
X012939Y013596D02*
X012939Y014056D01*
X013246Y014056D01*
X013400Y013902D02*
X013553Y013596D01*
X013707Y013902D01*
X013860Y013979D02*
X013937Y014056D01*
X014090Y014056D01*
X014167Y013979D01*
X014167Y013902D01*
X013860Y013596D01*
X014167Y013596D01*
X014320Y013596D02*
X014397Y013596D01*
X014397Y013672D01*
X014320Y013672D01*
X014320Y013596D01*
X014551Y013672D02*
X014857Y013979D01*
X014857Y013672D01*
X014781Y013596D01*
X014627Y013596D01*
X014551Y013672D01*
X014551Y013979D01*
X014627Y014056D01*
X014781Y014056D01*
X014857Y013979D01*
X013093Y013826D02*
X012939Y013826D01*
X012172Y013672D02*
X012172Y013979D01*
X019187Y013919D02*
X019187Y013612D01*
X019494Y013919D01*
X019494Y013612D01*
X019417Y013536D01*
X019264Y013536D01*
X019187Y013612D01*
X019648Y013612D02*
X019724Y013536D01*
X019878Y013536D01*
X019955Y013612D01*
X019955Y013766D01*
X019878Y013842D01*
X019801Y013842D01*
X019648Y013766D01*
X019648Y013996D01*
X019955Y013996D01*
X020108Y013766D02*
X020415Y013766D01*
X020568Y013842D02*
X020722Y013996D01*
X020722Y013536D01*
X020875Y013536D02*
X020568Y013536D01*
X021029Y013612D02*
X021105Y013536D01*
X021259Y013536D01*
X021336Y013612D01*
X021336Y013766D01*
X021259Y013842D01*
X021182Y013842D01*
X021029Y013766D01*
X021029Y013996D01*
X021336Y013996D01*
X021489Y013766D02*
X021796Y013766D01*
X021949Y013919D02*
X022026Y013996D01*
X022180Y013996D01*
X022256Y013919D01*
X022256Y013842D01*
X021949Y013536D01*
X022256Y013536D01*
X022410Y013612D02*
X022486Y013536D01*
X022640Y013536D01*
X022717Y013612D01*
X022717Y013919D01*
X022410Y013612D01*
X022410Y013919D01*
X022486Y013996D01*
X022640Y013996D01*
X022717Y013919D01*
X022870Y013919D02*
X022947Y013996D01*
X023100Y013996D01*
X023177Y013919D01*
X022870Y013612D01*
X022947Y013536D01*
X023100Y013536D01*
X023177Y013612D01*
X023177Y013919D01*
X023330Y013919D02*
X023330Y013842D01*
X023407Y013766D01*
X023637Y013766D01*
X023637Y013919D02*
X023637Y013612D01*
X023561Y013536D01*
X023407Y013536D01*
X023330Y013612D01*
X023330Y013919D02*
X023407Y013996D01*
X023561Y013996D01*
X023637Y013919D01*
X022870Y013919D02*
X022870Y013612D01*
X019494Y013919D02*
X019417Y013996D01*
X019264Y013996D01*
X019187Y013919D01*
D11*
X019506Y014551D02*
X019506Y014696D01*
X019554Y014745D01*
X019651Y014745D01*
X019699Y014696D01*
X019699Y014551D01*
X019699Y014648D02*
X019796Y014745D01*
X019796Y014551D02*
X019506Y014551D01*
X019506Y014846D02*
X019506Y015039D01*
X019506Y014943D02*
X019796Y014943D01*
X020526Y014953D02*
X020816Y014953D01*
X020816Y014755D02*
X020816Y014561D01*
X020526Y014561D01*
X020526Y014856D02*
X020526Y015049D01*
X021516Y015006D02*
X021806Y015199D01*
X021806Y015006D02*
X021516Y015199D01*
X021564Y014905D02*
X021516Y014856D01*
X021516Y014760D01*
X021564Y014711D01*
X021613Y014711D01*
X021661Y014760D01*
X021661Y014856D01*
X021709Y014905D01*
X021758Y014905D01*
X021806Y014856D01*
X021806Y014760D01*
X021758Y014711D01*
X021806Y014610D02*
X021709Y014513D01*
X021709Y014562D02*
X021709Y014417D01*
X021806Y014417D02*
X021516Y014417D01*
X021516Y014562D01*
X021564Y014610D01*
X021661Y014610D01*
X021709Y014562D01*
X022516Y014552D02*
X022516Y014407D01*
X022806Y014407D01*
X022709Y014407D02*
X022709Y014552D01*
X022661Y014600D01*
X022564Y014600D01*
X022516Y014552D01*
X022564Y014701D02*
X022613Y014701D01*
X022661Y014750D01*
X022661Y014846D01*
X022709Y014895D01*
X022758Y014895D01*
X022806Y014846D01*
X022806Y014750D01*
X022758Y014701D01*
X022806Y014600D02*
X022709Y014503D01*
X022564Y014701D02*
X022516Y014750D01*
X022516Y014846D01*
X022564Y014895D01*
X022564Y014996D02*
X022661Y015093D01*
X022806Y015093D01*
X022661Y015093D02*
X022564Y015189D01*
X022516Y015189D01*
X022516Y014996D02*
X022564Y014996D01*
X023496Y015001D02*
X023786Y015194D01*
X023786Y015001D02*
X023496Y015194D01*
X023544Y014900D02*
X023496Y014851D01*
X023496Y014754D01*
X023544Y014706D01*
X023593Y014706D01*
X023641Y014754D01*
X023641Y014851D01*
X023689Y014900D01*
X023738Y014900D01*
X023786Y014851D01*
X023786Y014754D01*
X023738Y014706D01*
X023786Y014605D02*
X023786Y014411D01*
X023496Y014411D01*
X024506Y014421D02*
X024796Y014421D01*
X024796Y014615D01*
X024748Y014716D02*
X024796Y014764D01*
X024796Y014861D01*
X024748Y014910D01*
X024699Y014910D01*
X024651Y014861D01*
X024651Y014764D01*
X024603Y014716D01*
X024554Y014716D01*
X024506Y014764D01*
X024506Y014861D01*
X024554Y014910D01*
X024554Y015011D02*
X024651Y015107D01*
X024796Y015107D01*
X024651Y015107D02*
X024554Y015204D01*
X024506Y015204D01*
X024506Y015011D02*
X024554Y015011D01*
X018796Y015044D02*
X018796Y014851D01*
X018506Y014851D01*
X018506Y015044D01*
X018651Y014947D02*
X018651Y014851D01*
X018651Y014750D02*
X018699Y014701D01*
X018699Y014556D01*
X018699Y014653D02*
X018796Y014750D01*
X018651Y014750D02*
X018554Y014750D01*
X018506Y014701D01*
X018506Y014556D01*
X018796Y014556D01*
X017296Y014615D02*
X017296Y014711D01*
X017248Y014760D01*
X017151Y014760D01*
X017151Y014663D01*
X017054Y014566D02*
X017248Y014566D01*
X017296Y014615D01*
X017054Y014566D02*
X017006Y014615D01*
X017006Y014711D01*
X017054Y014760D01*
X017054Y014861D02*
X017006Y014909D01*
X017006Y015006D01*
X017054Y015054D01*
X017103Y015054D01*
X017151Y015006D01*
X017199Y015054D01*
X017248Y015054D01*
X017296Y015006D01*
X017296Y014909D01*
X017248Y014861D01*
X017151Y014958D02*
X017151Y015006D01*
X015801Y015069D02*
X015801Y015166D01*
X015753Y015214D01*
X015801Y015069D02*
X015753Y015021D01*
X015559Y015021D01*
X015511Y015069D01*
X015511Y015166D01*
X015559Y015214D01*
X015559Y014920D02*
X015511Y014871D01*
X015511Y014774D01*
X015559Y014726D01*
X015608Y014726D01*
X015656Y014774D01*
X015656Y014871D01*
X015704Y014920D01*
X015753Y014920D01*
X015801Y014871D01*
X015801Y014774D01*
X015753Y014726D01*
X015801Y014625D02*
X015704Y014528D01*
X015704Y014577D02*
X015704Y014431D01*
X015801Y014431D02*
X015511Y014431D01*
X015511Y014577D01*
X015559Y014625D01*
X015656Y014625D01*
X015704Y014577D01*
X014801Y014605D02*
X014801Y014411D01*
X014511Y014411D01*
X014559Y014706D02*
X014608Y014706D01*
X014656Y014754D01*
X014656Y014851D01*
X014704Y014900D01*
X014753Y014900D01*
X014801Y014851D01*
X014801Y014754D01*
X014753Y014706D01*
X014559Y014706D02*
X014511Y014754D01*
X014511Y014851D01*
X014559Y014900D01*
X014559Y015001D02*
X014753Y015001D01*
X014801Y015049D01*
X014801Y015146D01*
X014753Y015194D01*
X014559Y015194D02*
X014511Y015146D01*
X014511Y015049D01*
X014559Y015001D01*
X013811Y015006D02*
X013811Y014909D01*
X013763Y014861D01*
X013521Y014861D01*
X013569Y014760D02*
X013521Y014711D01*
X013521Y014614D01*
X013569Y014566D01*
X013763Y014566D01*
X013811Y014614D01*
X013811Y014711D01*
X013763Y014760D01*
X013666Y014760D01*
X013666Y014663D01*
X012811Y014701D02*
X012811Y014604D01*
X012763Y014556D01*
X012666Y014604D02*
X012666Y014701D01*
X012714Y014750D01*
X012763Y014750D01*
X012811Y014701D01*
X012666Y014604D02*
X012618Y014556D01*
X012569Y014556D01*
X012521Y014604D01*
X012521Y014701D01*
X012569Y014750D01*
X012521Y014851D02*
X012521Y015044D01*
X012521Y014947D02*
X012811Y014947D01*
X013521Y015054D02*
X013763Y015054D01*
X013811Y015006D01*
X011801Y015054D02*
X011656Y014909D01*
X011704Y014861D02*
X011511Y015054D01*
X011511Y014861D02*
X011801Y014861D01*
X011753Y014760D02*
X011801Y014711D01*
X011801Y014566D01*
X011511Y014566D01*
X011511Y014711D01*
X011559Y014760D01*
X011608Y014760D01*
X011656Y014711D01*
X011656Y014566D01*
X011656Y014711D02*
X011704Y014760D01*
X011753Y014760D01*
X010801Y014760D02*
X010801Y014566D01*
X010511Y014566D01*
X010511Y014861D02*
X010511Y015006D01*
X010559Y015054D01*
X010608Y015054D01*
X010656Y015006D01*
X010656Y014861D01*
X010656Y015006D02*
X010704Y015054D01*
X010753Y015054D01*
X010801Y015006D01*
X010801Y014861D01*
X010511Y014861D01*
X009811Y014851D02*
X009811Y014996D01*
X009763Y015044D01*
X009714Y015044D01*
X009666Y014996D01*
X009666Y014851D01*
X009666Y014750D02*
X009714Y014701D01*
X009714Y014556D01*
X009714Y014653D02*
X009811Y014750D01*
X009811Y014851D02*
X009521Y014851D01*
X009521Y014996D01*
X009569Y015044D01*
X009618Y015044D01*
X009666Y014996D01*
X009666Y014750D02*
X009569Y014750D01*
X009521Y014701D01*
X009521Y014556D01*
X009811Y014556D01*
X008811Y014566D02*
X008811Y014711D01*
X008763Y014760D01*
X008569Y014760D01*
X008521Y014711D01*
X008521Y014566D01*
X008811Y014566D01*
X008811Y014861D02*
X008521Y014861D01*
X008521Y015006D01*
X008569Y015054D01*
X008666Y015054D01*
X008714Y015006D01*
X008714Y014861D01*
X008714Y014957D02*
X008811Y015054D01*
X007791Y015044D02*
X007791Y014851D01*
X007501Y014851D01*
X007549Y014750D02*
X007501Y014701D01*
X007501Y014556D01*
X007791Y014556D01*
X007791Y014701D01*
X007743Y014750D01*
X007549Y014750D01*
X006791Y014711D02*
X006791Y014566D01*
X006501Y014566D01*
X006501Y014711D01*
X006549Y014760D01*
X006743Y014760D01*
X006791Y014711D01*
X006791Y014861D02*
X006501Y014861D01*
X006501Y015006D01*
X006549Y015054D01*
X006743Y015054D01*
X006791Y015006D01*
X006791Y014861D01*
X005791Y014899D02*
X005791Y014996D01*
X005743Y015044D01*
X005501Y015044D01*
X005501Y014851D02*
X005743Y014851D01*
X005791Y014899D01*
X005743Y014750D02*
X005549Y014750D01*
X005501Y014701D01*
X005501Y014556D01*
X005791Y014556D01*
X005791Y014701D01*
X005743Y014750D01*
X004816Y014808D02*
X004671Y014808D01*
X004574Y014904D01*
X004526Y014904D01*
X004671Y014808D02*
X004574Y014711D01*
X004526Y014711D01*
X003806Y014706D02*
X003516Y014899D01*
X003516Y014706D02*
X003806Y014899D01*
X002796Y014861D02*
X002796Y014716D01*
X002506Y014716D01*
X002506Y014861D01*
X002554Y014909D01*
X002603Y014909D01*
X002651Y014861D01*
X002651Y014716D01*
X002651Y014861D02*
X002699Y014909D01*
X002748Y014909D01*
X002796Y014861D01*
X001786Y014899D02*
X001593Y014899D01*
X001496Y014803D01*
X001593Y014706D01*
X001786Y014706D01*
X001641Y014706D02*
X001641Y014899D01*
X000536Y009853D02*
X000536Y009660D01*
X000536Y009757D02*
X000246Y009757D01*
X000343Y009660D01*
X000246Y009559D02*
X000536Y009559D01*
X000246Y009365D01*
X000536Y009365D01*
X000536Y009264D02*
X000439Y009167D01*
X000439Y009216D02*
X000439Y009071D01*
X000536Y009071D02*
X000246Y009071D01*
X000246Y009216D01*
X000294Y009264D01*
X000391Y009264D01*
X000439Y009216D01*
X001306Y006219D02*
X001306Y006026D01*
X001306Y006123D02*
X001016Y006123D01*
X001113Y006026D01*
X001161Y005925D02*
X001209Y005876D01*
X001209Y005731D01*
X001306Y005731D02*
X001016Y005731D01*
X001016Y005876D01*
X001064Y005925D01*
X001161Y005925D01*
X001139Y003309D02*
X001188Y003309D01*
X001236Y003260D01*
X001236Y003164D01*
X001188Y003115D01*
X001188Y003014D02*
X000946Y003014D01*
X000994Y003115D02*
X000946Y003164D01*
X000946Y003260D01*
X000994Y003309D01*
X001043Y003309D01*
X001091Y003260D01*
X001139Y003309D01*
X001091Y003260D02*
X001091Y003212D01*
X001188Y003014D02*
X001236Y002966D01*
X001236Y002869D01*
X001188Y002821D01*
X000946Y002821D01*
X009496Y002821D02*
X009738Y002821D01*
X009786Y002869D01*
X009786Y002966D01*
X009738Y003014D01*
X009496Y003014D01*
X009544Y003115D02*
X009496Y003164D01*
X009496Y003260D01*
X009544Y003309D01*
X009593Y003309D01*
X009786Y003115D01*
X009786Y003309D01*
X009806Y005781D02*
X009516Y005781D01*
X009516Y005926D01*
X009564Y005975D01*
X009661Y005975D01*
X009709Y005926D01*
X009709Y005781D01*
X009806Y006076D02*
X009613Y006269D01*
X009564Y006269D01*
X009516Y006221D01*
X009516Y006124D01*
X009564Y006076D01*
X009806Y006076D02*
X009806Y006269D01*
X008936Y009071D02*
X008646Y009071D01*
X008646Y009216D01*
X008694Y009264D01*
X008791Y009264D01*
X008839Y009216D01*
X008839Y009071D01*
X008839Y009167D02*
X008936Y009264D01*
X008936Y009365D02*
X008646Y009365D01*
X008936Y009559D01*
X008646Y009559D01*
X008694Y009660D02*
X008646Y009708D01*
X008646Y009805D01*
X008694Y009853D01*
X008743Y009853D01*
X008791Y009805D01*
X008839Y009853D01*
X008888Y009853D01*
X008936Y009805D01*
X008936Y009708D01*
X008888Y009660D01*
X008791Y009757D02*
X008791Y009805D01*
X017196Y009805D02*
X017196Y009708D01*
X017244Y009660D01*
X017196Y009559D02*
X017486Y009559D01*
X017196Y009365D01*
X017486Y009365D01*
X017486Y009264D02*
X017389Y009167D01*
X017389Y009216D02*
X017389Y009071D01*
X017486Y009071D02*
X017196Y009071D01*
X017196Y009216D01*
X017244Y009264D01*
X017341Y009264D01*
X017389Y009216D01*
X017486Y009660D02*
X017293Y009853D01*
X017244Y009853D01*
X017196Y009805D01*
X017486Y009853D02*
X017486Y009660D01*
X021916Y008519D02*
X021916Y008326D01*
X022061Y008326D01*
X022013Y008423D01*
X022013Y008471D01*
X022061Y008519D01*
X022158Y008519D01*
X022206Y008471D01*
X022206Y008374D01*
X022158Y008326D01*
X022061Y008225D02*
X022109Y008176D01*
X022109Y008031D01*
X022206Y008031D02*
X021916Y008031D01*
X021916Y008176D01*
X021964Y008225D01*
X022061Y008225D01*
X024166Y008226D02*
X024166Y008081D01*
X024456Y008081D01*
X024359Y008081D02*
X024359Y008226D01*
X024311Y008275D01*
X024214Y008275D01*
X024166Y008226D01*
X024311Y008376D02*
X024166Y008521D01*
X024456Y008521D01*
X024311Y008569D02*
X024311Y008376D01*
X026146Y006760D02*
X026194Y006809D01*
X026243Y006809D01*
X026436Y006615D01*
X026436Y006809D01*
X026146Y006760D02*
X026146Y006664D01*
X026194Y006615D01*
X026146Y006514D02*
X026146Y006417D01*
X026146Y006466D02*
X026388Y006466D01*
X026436Y006417D01*
X026436Y006369D01*
X026388Y006321D01*
X026466Y005219D02*
X026756Y005219D01*
X026756Y005026D02*
X026466Y005026D01*
X026563Y005123D01*
X026466Y005219D01*
X023236Y001937D02*
X023236Y001790D01*
X023236Y001864D02*
X023016Y001864D01*
X023089Y001790D01*
X023053Y001707D02*
X023016Y001670D01*
X023016Y001560D01*
X023236Y001560D01*
X023236Y001670D01*
X023199Y001707D01*
X023053Y001707D01*
X023016Y001477D02*
X023016Y001330D01*
X023236Y001330D01*
X023236Y001477D01*
X023126Y001403D02*
X023126Y001330D01*
X023236Y001247D02*
X023236Y001100D01*
X023016Y001100D01*
X018286Y002919D02*
X018238Y002871D01*
X017996Y002871D01*
X018286Y002919D02*
X018286Y003016D01*
X018238Y003064D01*
X017996Y003064D01*
X018093Y003165D02*
X017996Y003262D01*
X018286Y003262D01*
X018286Y003165D02*
X018286Y003359D01*
X018306Y005781D02*
X018016Y005781D01*
X018016Y005926D01*
X018064Y005975D01*
X018161Y005975D01*
X018209Y005926D01*
X018209Y005781D01*
X018258Y006076D02*
X018306Y006124D01*
X018306Y006221D01*
X018258Y006269D01*
X018209Y006269D01*
X018161Y006221D01*
X018161Y006173D01*
X018161Y006221D02*
X018113Y006269D01*
X018064Y006269D01*
X018016Y006221D01*
X018016Y006124D01*
X018064Y006076D01*
X026316Y010676D02*
X026606Y010676D01*
X026509Y010676D02*
X026316Y010869D01*
X026461Y010724D02*
X026606Y010869D01*
M02*
