G75*
G70*
%OFA0B0*%
%FSLAX24Y24*%
%IPPOS*%
%LPD*%
%AMOC8*
5,1,8,0,0,1.08239X$1,22.5*
%
%ADD10C,0.0060*%
%ADD11C,0.0030*%
D10*
X001851Y001506D02*
X001851Y001606D01*
X001851Y001506D02*
X001951Y001506D01*
X002351Y001506D02*
X002451Y001506D01*
X002451Y001606D01*
X002851Y001606D02*
X002851Y001506D01*
X002951Y001506D01*
X003351Y001506D02*
X003451Y001506D01*
X003451Y001606D01*
X003851Y001606D02*
X003851Y001506D01*
X003951Y001506D01*
X004351Y001506D02*
X004451Y001506D01*
X004451Y001606D01*
X004851Y001606D02*
X004851Y001506D01*
X004951Y001506D01*
X005351Y001506D02*
X005451Y001506D01*
X005451Y001606D01*
X005851Y001606D02*
X005851Y001506D01*
X005951Y001506D01*
X006351Y001506D02*
X006451Y001506D01*
X006451Y001606D01*
X006851Y001606D02*
X006851Y001506D01*
X006951Y001506D01*
X007351Y001506D02*
X007451Y001506D01*
X007451Y001606D01*
X007851Y001606D02*
X007851Y001506D01*
X007951Y001506D01*
X008351Y001506D02*
X008451Y001506D01*
X008451Y001606D01*
X008851Y001606D02*
X008851Y001506D01*
X008951Y001506D01*
X009351Y001506D02*
X009451Y001506D01*
X009451Y001606D01*
X009851Y001606D02*
X009851Y001506D01*
X009951Y001506D01*
X010351Y001506D02*
X010451Y001506D01*
X010451Y001606D01*
X010851Y001606D02*
X010851Y001506D01*
X010951Y001506D01*
X011351Y001506D02*
X011451Y001506D01*
X011451Y001606D01*
X011851Y001606D02*
X011851Y001506D01*
X011951Y001506D01*
X012351Y001506D02*
X012451Y001506D01*
X012451Y001606D01*
X012851Y001606D02*
X012851Y001506D01*
X012951Y001506D01*
X013351Y001506D02*
X013451Y001506D01*
X013451Y001606D01*
X013851Y001606D02*
X013851Y001506D01*
X013951Y001506D01*
X014351Y001506D02*
X014451Y001506D01*
X014451Y001606D01*
X014851Y001606D02*
X014851Y001506D01*
X014951Y001506D01*
X015351Y001506D02*
X015451Y001506D01*
X015451Y001606D01*
X015851Y001606D02*
X015851Y001506D01*
X015951Y001506D01*
X016351Y001506D02*
X016451Y001506D01*
X016451Y001606D01*
X016851Y001606D02*
X016851Y001506D01*
X016951Y001506D01*
X017351Y001506D02*
X017451Y001506D01*
X017451Y001606D01*
X017851Y001606D02*
X017851Y001506D01*
X017951Y001506D01*
X018351Y001506D02*
X018451Y001506D01*
X018451Y001606D01*
X018851Y001606D02*
X018851Y001506D01*
X018951Y001506D01*
X019351Y001506D02*
X019451Y001506D01*
X019451Y001606D01*
X019851Y001606D02*
X019851Y001506D01*
X019951Y001506D01*
X020351Y001506D02*
X020451Y001506D01*
X020451Y001606D01*
X020851Y001606D02*
X020851Y001506D01*
X020951Y001506D01*
X021351Y001506D02*
X021451Y001506D01*
X021451Y001606D01*
X021451Y002006D02*
X021451Y002106D01*
X021351Y002106D01*
X020951Y002106D02*
X020851Y002106D01*
X020851Y002006D01*
X020451Y002006D02*
X020451Y002106D01*
X020351Y002106D01*
X019951Y002106D02*
X019851Y002106D01*
X019851Y002006D01*
X019451Y002006D02*
X019451Y002106D01*
X019351Y002106D01*
X018951Y002106D02*
X018851Y002106D01*
X018851Y002006D01*
X018451Y002006D02*
X018451Y002106D01*
X018351Y002106D01*
X017951Y002106D02*
X017851Y002106D01*
X017851Y002006D01*
X017451Y002006D02*
X017451Y002106D01*
X017351Y002106D01*
X016951Y002106D02*
X016851Y002106D01*
X016851Y002006D01*
X016451Y002006D02*
X016451Y002106D01*
X016351Y002106D01*
X015951Y002106D02*
X015851Y002106D01*
X015851Y002006D01*
X015451Y002006D02*
X015451Y002106D01*
X015351Y002106D01*
X014951Y002106D02*
X014851Y002106D01*
X014851Y002006D01*
X014451Y002006D02*
X014451Y002106D01*
X014351Y002106D01*
X013951Y002106D02*
X013851Y002106D01*
X013851Y002006D01*
X013451Y002006D02*
X013451Y002106D01*
X013351Y002106D01*
X012951Y002106D02*
X012851Y002106D01*
X012851Y002006D01*
X012451Y002006D02*
X012451Y002106D01*
X012351Y002106D01*
X011951Y002106D02*
X011851Y002106D01*
X011851Y002006D01*
X011451Y002006D02*
X011451Y002106D01*
X011351Y002106D01*
X010951Y002106D02*
X010851Y002106D01*
X010851Y002006D01*
X010451Y002006D02*
X010451Y002106D01*
X010351Y002106D01*
X009951Y002106D02*
X009851Y002106D01*
X009851Y002006D01*
X009451Y002006D02*
X009451Y002106D01*
X009351Y002106D01*
X008951Y002106D02*
X008851Y002106D01*
X008851Y002006D01*
X008451Y002006D02*
X008451Y002106D01*
X008351Y002106D01*
X007951Y002106D02*
X007851Y002106D01*
X007851Y002006D01*
X007451Y002006D02*
X007451Y002106D01*
X007351Y002106D01*
X006951Y002106D02*
X006851Y002106D01*
X006851Y002006D01*
X006451Y002006D02*
X006451Y002106D01*
X006351Y002106D01*
X005951Y002106D02*
X005851Y002106D01*
X005851Y002006D01*
X005451Y002006D02*
X005451Y002106D01*
X005351Y002106D01*
X004951Y002106D02*
X004851Y002106D01*
X004851Y002006D01*
X004451Y002006D02*
X004451Y002106D01*
X004351Y002106D01*
X003951Y002106D02*
X003851Y002106D01*
X003851Y002006D01*
X003451Y002006D02*
X003451Y002106D01*
X003351Y002106D01*
X002951Y002106D02*
X002851Y002106D01*
X002851Y002006D01*
X002451Y002006D02*
X002451Y002106D01*
X002351Y002106D01*
X001951Y002106D02*
X001851Y002106D01*
X001851Y002006D01*
X001851Y007156D02*
X001851Y007256D01*
X001851Y007156D02*
X001951Y007156D01*
X002351Y007156D02*
X002451Y007156D01*
X002451Y007256D01*
X002851Y007256D02*
X002851Y007156D01*
X002951Y007156D01*
X003351Y007156D02*
X003451Y007156D01*
X003451Y007256D01*
X003451Y007656D02*
X003451Y007756D01*
X003351Y007756D01*
X002951Y007756D02*
X002851Y007756D01*
X002851Y007656D01*
X002451Y007656D02*
X002451Y007756D01*
X002351Y007756D01*
X001951Y007756D02*
X001851Y007756D01*
X001851Y007656D01*
X003851Y007656D02*
X003851Y007756D01*
X003951Y007756D01*
X004351Y007756D02*
X004451Y007756D01*
X004451Y007656D01*
X004851Y007656D02*
X004851Y007756D01*
X004951Y007756D01*
X005351Y007756D02*
X005451Y007756D01*
X005451Y007656D01*
X005851Y007656D02*
X005851Y007756D01*
X005951Y007756D01*
X006351Y007756D02*
X006451Y007756D01*
X006451Y007656D01*
X006851Y007656D02*
X006851Y007756D01*
X006951Y007756D01*
X007351Y007756D02*
X007451Y007756D01*
X007451Y007656D01*
X007851Y007656D02*
X007851Y007756D01*
X007951Y007756D01*
X008351Y007756D02*
X008451Y007756D01*
X008451Y007656D01*
X008851Y007656D02*
X008851Y007756D01*
X008951Y007756D01*
X009351Y007756D02*
X009451Y007756D01*
X009451Y007656D01*
X009851Y007656D02*
X009851Y007756D01*
X009951Y007756D01*
X010351Y007756D02*
X010451Y007756D01*
X010451Y007656D01*
X010851Y007656D02*
X010851Y007756D01*
X010951Y007756D01*
X011351Y007756D02*
X011451Y007756D01*
X011451Y007656D01*
X011851Y007656D02*
X011851Y007756D01*
X011951Y007756D01*
X012351Y007756D02*
X012451Y007756D01*
X012451Y007656D01*
X012851Y007656D02*
X012851Y007756D01*
X012951Y007756D01*
X013351Y007756D02*
X013451Y007756D01*
X013451Y007656D01*
X013851Y007656D02*
X013851Y007756D01*
X013951Y007756D01*
X014351Y007756D02*
X014451Y007756D01*
X014451Y007656D01*
X014851Y007656D02*
X014851Y007756D01*
X014951Y007756D01*
X015351Y007756D02*
X015451Y007756D01*
X015451Y007656D01*
X015851Y007656D02*
X015851Y007756D01*
X015951Y007756D01*
X016351Y007756D02*
X016451Y007756D01*
X016451Y007656D01*
X016851Y007656D02*
X016851Y007756D01*
X016951Y007756D01*
X017351Y007756D02*
X017451Y007756D01*
X017451Y007656D01*
X017851Y007656D02*
X017851Y007756D01*
X017951Y007756D01*
X018351Y007756D02*
X018451Y007756D01*
X018451Y007656D01*
X018851Y007656D02*
X018851Y007756D01*
X018951Y007756D01*
X019351Y007756D02*
X019451Y007756D01*
X019451Y007656D01*
X019851Y007656D02*
X019851Y007756D01*
X019951Y007756D01*
X020351Y007756D02*
X020451Y007756D01*
X020451Y007656D01*
X020851Y007656D02*
X020851Y007756D01*
X020951Y007756D01*
X021351Y007756D02*
X021451Y007756D01*
X021451Y007656D01*
X021451Y007256D02*
X021451Y007156D01*
X021351Y007156D01*
X020951Y007156D02*
X020851Y007156D01*
X020851Y007256D01*
X020451Y007256D02*
X020451Y007156D01*
X020351Y007156D01*
X019951Y007156D02*
X019851Y007156D01*
X019851Y007256D01*
X019451Y007256D02*
X019451Y007156D01*
X019351Y007156D01*
X018951Y007156D02*
X018851Y007156D01*
X018851Y007256D01*
X018451Y007256D02*
X018451Y007156D01*
X018351Y007156D01*
X017951Y007156D02*
X017851Y007156D01*
X017851Y007256D01*
X017451Y007256D02*
X017451Y007156D01*
X017351Y007156D01*
X016951Y007156D02*
X016851Y007156D01*
X016851Y007256D01*
X016451Y007256D02*
X016451Y007156D01*
X016351Y007156D01*
X015951Y007156D02*
X015851Y007156D01*
X015851Y007256D01*
X015451Y007256D02*
X015451Y007156D01*
X015351Y007156D01*
X014951Y007156D02*
X014851Y007156D01*
X014851Y007256D01*
X014451Y007256D02*
X014451Y007156D01*
X014351Y007156D01*
X013951Y007156D02*
X013851Y007156D01*
X013851Y007256D01*
X013451Y007256D02*
X013451Y007156D01*
X013351Y007156D01*
X012951Y007156D02*
X012851Y007156D01*
X012851Y007256D01*
X012451Y007256D02*
X012451Y007156D01*
X012351Y007156D01*
X011951Y007156D02*
X011851Y007156D01*
X011851Y007256D01*
X011451Y007256D02*
X011451Y007156D01*
X011351Y007156D01*
X010951Y007156D02*
X010851Y007156D01*
X010851Y007256D01*
X010451Y007256D02*
X010451Y007156D01*
X010351Y007156D01*
X009951Y007156D02*
X009851Y007156D01*
X009851Y007256D01*
X009451Y007256D02*
X009451Y007156D01*
X009351Y007156D01*
X008951Y007156D02*
X008851Y007156D01*
X008851Y007256D01*
X008451Y007256D02*
X008451Y007156D01*
X008351Y007156D01*
X007951Y007156D02*
X007851Y007156D01*
X007851Y007256D01*
X007451Y007256D02*
X007451Y007156D01*
X007351Y007156D01*
X006951Y007156D02*
X006851Y007156D01*
X006851Y007256D01*
X006451Y007256D02*
X006451Y007156D01*
X006351Y007156D01*
X005951Y007156D02*
X005851Y007156D01*
X005851Y007256D01*
X005451Y007256D02*
X005451Y007156D01*
X005351Y007156D01*
X004951Y007156D02*
X004851Y007156D01*
X004851Y007256D01*
X004451Y007256D02*
X004451Y007156D01*
X004351Y007156D01*
X003951Y007156D02*
X003851Y007156D01*
X003851Y007256D01*
D11*
X003986Y007041D02*
X003937Y006992D01*
X004131Y006799D01*
X004082Y006751D01*
X003986Y006751D01*
X003937Y006799D01*
X003937Y006992D01*
X003986Y007041D02*
X004082Y007041D01*
X004131Y006992D01*
X004131Y006799D01*
X004232Y006799D02*
X004280Y006751D01*
X004425Y006751D01*
X004425Y007041D01*
X004280Y007041D01*
X004232Y006992D01*
X004232Y006799D01*
X004937Y006751D02*
X005131Y006751D01*
X005034Y006751D02*
X005034Y007041D01*
X005131Y006944D01*
X005232Y006992D02*
X005280Y007041D01*
X005425Y007041D01*
X005425Y006751D01*
X005280Y006751D01*
X005232Y006799D01*
X005232Y006992D01*
X005937Y006992D02*
X005986Y007041D01*
X006082Y007041D01*
X006131Y006992D01*
X006232Y006992D02*
X006280Y007041D01*
X006425Y007041D01*
X006425Y006751D01*
X006280Y006751D01*
X006232Y006799D01*
X006232Y006992D01*
X006131Y006751D02*
X005937Y006944D01*
X005937Y006992D01*
X005937Y006751D02*
X006131Y006751D01*
X006937Y006799D02*
X006986Y006751D01*
X007082Y006751D01*
X007131Y006799D01*
X007232Y006799D02*
X007232Y006992D01*
X007280Y007041D01*
X007425Y007041D01*
X007425Y006751D01*
X007280Y006751D01*
X007232Y006799D01*
X007131Y006992D02*
X007082Y007041D01*
X006986Y007041D01*
X006937Y006992D01*
X006937Y006944D01*
X006986Y006896D01*
X006937Y006847D01*
X006937Y006799D01*
X006986Y006896D02*
X007034Y006896D01*
X007937Y006896D02*
X008131Y006896D01*
X007986Y007041D01*
X007986Y006751D01*
X008232Y006799D02*
X008232Y006992D01*
X008280Y007041D01*
X008425Y007041D01*
X008425Y006751D01*
X008280Y006751D01*
X008232Y006799D01*
X008937Y006799D02*
X008986Y006751D01*
X009082Y006751D01*
X009131Y006799D01*
X009131Y006896D02*
X009034Y006944D01*
X008986Y006944D01*
X008937Y006896D01*
X008937Y006799D01*
X009131Y006896D02*
X009131Y007041D01*
X008937Y007041D01*
X009232Y006992D02*
X009232Y006799D01*
X009280Y006751D01*
X009425Y006751D01*
X009425Y007041D01*
X009280Y007041D01*
X009232Y006992D01*
X009937Y007041D02*
X010034Y006992D01*
X010131Y006896D01*
X009986Y006896D01*
X009937Y006847D01*
X009937Y006799D01*
X009986Y006751D01*
X010082Y006751D01*
X010131Y006799D01*
X010131Y006896D01*
X010232Y006992D02*
X010280Y007041D01*
X010425Y007041D01*
X010425Y006751D01*
X010280Y006751D01*
X010232Y006799D01*
X010232Y006992D01*
X010937Y006992D02*
X011131Y006799D01*
X011131Y006751D01*
X011232Y006799D02*
X011232Y006992D01*
X011280Y007041D01*
X011425Y007041D01*
X011425Y006751D01*
X011280Y006751D01*
X011232Y006799D01*
X011131Y007041D02*
X010937Y007041D01*
X010937Y006992D01*
X011937Y006992D02*
X011937Y006799D01*
X011986Y006751D01*
X012082Y006751D01*
X012131Y006799D01*
X011937Y006992D01*
X011986Y007041D01*
X012082Y007041D01*
X012131Y006992D01*
X012131Y006799D01*
X012232Y006751D02*
X012425Y006751D01*
X012425Y007041D01*
X012232Y007041D01*
X012329Y006896D02*
X012425Y006896D01*
X012937Y006751D02*
X013131Y006751D01*
X013034Y006751D02*
X013034Y007041D01*
X013131Y006944D01*
X013232Y007041D02*
X013425Y007041D01*
X013425Y006751D01*
X013232Y006751D01*
X013329Y006896D02*
X013425Y006896D01*
X013937Y006992D02*
X014131Y006799D01*
X014082Y006751D01*
X013986Y006751D01*
X013937Y006799D01*
X013937Y006992D01*
X013986Y007041D01*
X014082Y007041D01*
X014131Y006992D01*
X014131Y006799D01*
X014232Y006799D02*
X014280Y006751D01*
X014377Y006751D01*
X014425Y006799D01*
X014425Y006992D01*
X014377Y007041D01*
X014280Y007041D01*
X014232Y006992D01*
X014937Y006751D02*
X015131Y006751D01*
X015034Y006751D02*
X015034Y007041D01*
X015131Y006944D01*
X015232Y006992D02*
X015280Y007041D01*
X015377Y007041D01*
X015425Y006992D01*
X015425Y006799D01*
X015377Y006751D01*
X015280Y006751D01*
X015232Y006799D01*
X015937Y006751D02*
X016131Y006751D01*
X015937Y006944D01*
X015937Y006992D01*
X015986Y007041D01*
X016082Y007041D01*
X016131Y006992D01*
X016232Y006992D02*
X016280Y007041D01*
X016377Y007041D01*
X016425Y006992D01*
X016425Y006799D01*
X016377Y006751D01*
X016280Y006751D01*
X016232Y006799D01*
X016937Y006799D02*
X016986Y006751D01*
X017082Y006751D01*
X017131Y006799D01*
X017232Y006799D02*
X017280Y006751D01*
X017377Y006751D01*
X017425Y006799D01*
X017425Y006992D01*
X017377Y007041D01*
X017280Y007041D01*
X017232Y006992D01*
X017131Y006992D02*
X017082Y007041D01*
X016986Y007041D01*
X016937Y006992D01*
X016937Y006944D01*
X016986Y006896D01*
X016937Y006847D01*
X016937Y006799D01*
X016986Y006896D02*
X017034Y006896D01*
X017937Y006896D02*
X018131Y006896D01*
X017986Y007041D01*
X017986Y006751D01*
X018232Y006799D02*
X018280Y006751D01*
X018377Y006751D01*
X018425Y006799D01*
X018425Y006992D01*
X018377Y007041D01*
X018280Y007041D01*
X018232Y006992D01*
X018937Y007041D02*
X019131Y007041D01*
X019131Y006896D01*
X019034Y006944D01*
X018986Y006944D01*
X018937Y006896D01*
X018937Y006799D01*
X018986Y006751D01*
X019082Y006751D01*
X019131Y006799D01*
X019232Y006799D02*
X019280Y006751D01*
X019377Y006751D01*
X019425Y006799D01*
X019425Y006992D01*
X019377Y007041D01*
X019280Y007041D01*
X019232Y006992D01*
X019937Y007041D02*
X020034Y006992D01*
X020131Y006896D01*
X019986Y006896D01*
X019937Y006847D01*
X019937Y006799D01*
X019986Y006751D01*
X020082Y006751D01*
X020131Y006799D01*
X020131Y006896D01*
X020232Y006992D02*
X020280Y007041D01*
X020377Y007041D01*
X020425Y006992D01*
X020425Y006799D01*
X020377Y006751D01*
X020280Y006751D01*
X020232Y006799D01*
X020937Y006992D02*
X021131Y006799D01*
X021131Y006751D01*
X021232Y006799D02*
X021280Y006751D01*
X021377Y006751D01*
X021425Y006799D01*
X021425Y006992D01*
X021377Y007041D01*
X021280Y007041D01*
X021232Y006992D01*
X021131Y007041D02*
X020937Y007041D01*
X020937Y006992D01*
X020948Y002511D02*
X020948Y002462D01*
X021142Y002269D01*
X021142Y002221D01*
X021339Y002366D02*
X021436Y002366D01*
X021436Y002511D02*
X021243Y002511D01*
X021142Y002511D02*
X020948Y002511D01*
X020436Y002511D02*
X020243Y002511D01*
X020339Y002366D02*
X020436Y002366D01*
X020436Y002221D02*
X020436Y002511D01*
X020142Y002366D02*
X019996Y002366D01*
X019948Y002317D01*
X019948Y002269D01*
X019996Y002221D01*
X020093Y002221D01*
X020142Y002269D01*
X020142Y002366D01*
X020045Y002462D01*
X019948Y002511D01*
X019436Y002511D02*
X019243Y002511D01*
X019142Y002511D02*
X019142Y002366D01*
X019045Y002414D01*
X018996Y002414D01*
X018948Y002366D01*
X018948Y002269D01*
X018996Y002221D01*
X019093Y002221D01*
X019142Y002269D01*
X019339Y002366D02*
X019436Y002366D01*
X019436Y002221D02*
X019436Y002511D01*
X019142Y002511D02*
X018948Y002511D01*
X018436Y002511D02*
X018436Y002221D01*
X018436Y002366D02*
X018339Y002366D01*
X018243Y002511D02*
X018436Y002511D01*
X018142Y002366D02*
X017948Y002366D01*
X017996Y002221D02*
X017996Y002511D01*
X018142Y002366D01*
X017366Y002356D02*
X017269Y002356D01*
X017173Y002501D02*
X017366Y002501D01*
X017366Y002211D01*
X017072Y002259D02*
X017023Y002211D01*
X016926Y002211D01*
X016878Y002259D01*
X016878Y002307D01*
X016926Y002356D01*
X016975Y002356D01*
X016926Y002356D02*
X016878Y002404D01*
X016878Y002452D01*
X016926Y002501D01*
X017023Y002501D01*
X017072Y002452D01*
X016436Y002511D02*
X016436Y002221D01*
X016436Y002366D02*
X016339Y002366D01*
X016243Y002511D02*
X016436Y002511D01*
X016142Y002462D02*
X016093Y002511D01*
X015996Y002511D01*
X015948Y002462D01*
X015948Y002414D01*
X016142Y002221D01*
X015948Y002221D01*
X015436Y002221D02*
X015436Y002511D01*
X015243Y002511D01*
X015142Y002414D02*
X015045Y002511D01*
X015045Y002221D01*
X015142Y002221D02*
X014948Y002221D01*
X014436Y002221D02*
X014436Y002511D01*
X014243Y002511D01*
X014142Y002462D02*
X014093Y002511D01*
X013996Y002511D01*
X013948Y002462D01*
X014142Y002269D01*
X014093Y002221D01*
X013996Y002221D01*
X013948Y002269D01*
X013948Y002462D01*
X014142Y002462D02*
X014142Y002269D01*
X014339Y002366D02*
X014436Y002366D01*
X015339Y002366D02*
X015436Y002366D01*
X013436Y002317D02*
X013291Y002317D01*
X013243Y002366D01*
X013243Y002462D01*
X013291Y002511D01*
X013436Y002511D01*
X013436Y002221D01*
X013339Y002317D02*
X013243Y002221D01*
X012436Y002221D02*
X012436Y002511D01*
X012243Y002511D01*
X012339Y002366D02*
X012436Y002366D01*
X012436Y002221D02*
X012243Y002221D01*
X011436Y002221D02*
X011243Y002221D01*
X011142Y002269D02*
X011093Y002221D01*
X010996Y002221D01*
X010948Y002269D01*
X010948Y002317D01*
X010996Y002366D01*
X011142Y002366D01*
X011142Y002269D01*
X011142Y002366D02*
X011045Y002462D01*
X010948Y002511D01*
X011243Y002511D02*
X011436Y002511D01*
X011436Y002221D01*
X011436Y002366D02*
X011339Y002366D01*
X010436Y002366D02*
X010339Y002366D01*
X010243Y002511D02*
X010436Y002511D01*
X010436Y002221D01*
X010243Y002221D01*
X010142Y002221D02*
X010142Y002269D01*
X009948Y002462D01*
X009948Y002511D01*
X010142Y002511D01*
X009436Y002511D02*
X009436Y002221D01*
X009291Y002221D01*
X009243Y002269D01*
X009243Y002317D01*
X009291Y002366D01*
X009436Y002366D01*
X009436Y002511D02*
X009291Y002511D01*
X009243Y002462D01*
X009243Y002414D01*
X009291Y002366D01*
X009142Y002462D02*
X009093Y002511D01*
X008996Y002511D01*
X008948Y002462D01*
X009142Y002269D01*
X009093Y002221D01*
X008996Y002221D01*
X008948Y002269D01*
X008948Y002462D01*
X009142Y002462D02*
X009142Y002269D01*
X008436Y002221D02*
X008291Y002221D01*
X008243Y002269D01*
X008243Y002317D01*
X008291Y002366D01*
X008436Y002366D01*
X008436Y002221D02*
X008436Y002511D01*
X008291Y002511D01*
X008243Y002462D01*
X008243Y002414D01*
X008291Y002366D01*
X008142Y002414D02*
X008045Y002511D01*
X008045Y002221D01*
X008142Y002221D02*
X007948Y002221D01*
X007436Y002221D02*
X007291Y002221D01*
X007243Y002269D01*
X007243Y002317D01*
X007291Y002366D01*
X007436Y002366D01*
X007436Y002511D02*
X007291Y002511D01*
X007243Y002462D01*
X007243Y002414D01*
X007291Y002366D01*
X007142Y002462D02*
X007093Y002511D01*
X006996Y002511D01*
X006948Y002462D01*
X006948Y002414D01*
X007142Y002221D01*
X006948Y002221D01*
X006436Y002221D02*
X006291Y002221D01*
X006243Y002269D01*
X006243Y002317D01*
X006291Y002366D01*
X006436Y002366D01*
X006436Y002511D02*
X006291Y002511D01*
X006243Y002462D01*
X006243Y002414D01*
X006291Y002366D01*
X006142Y002462D02*
X006093Y002511D01*
X005996Y002511D01*
X005948Y002462D01*
X005948Y002414D01*
X005996Y002366D01*
X005948Y002317D01*
X005948Y002269D01*
X005996Y002221D01*
X006093Y002221D01*
X006142Y002269D01*
X006045Y002366D02*
X005996Y002366D01*
X005436Y002366D02*
X005291Y002366D01*
X005243Y002317D01*
X005243Y002269D01*
X005291Y002221D01*
X005436Y002221D01*
X005436Y002511D01*
X005291Y002511D01*
X005243Y002462D01*
X005243Y002414D01*
X005291Y002366D01*
X005142Y002366D02*
X004948Y002366D01*
X004996Y002221D02*
X004996Y002511D01*
X005142Y002366D01*
X004436Y002366D02*
X004291Y002366D01*
X004243Y002317D01*
X004243Y002269D01*
X004291Y002221D01*
X004436Y002221D01*
X004436Y002511D01*
X004291Y002511D01*
X004243Y002462D01*
X004243Y002414D01*
X004291Y002366D01*
X004142Y002366D02*
X004045Y002414D01*
X003996Y002414D01*
X003948Y002366D01*
X003948Y002269D01*
X003996Y002221D01*
X004093Y002221D01*
X004142Y002269D01*
X004142Y002366D02*
X004142Y002511D01*
X003948Y002511D01*
X003436Y002511D02*
X003436Y002221D01*
X003291Y002221D01*
X003243Y002269D01*
X003243Y002317D01*
X003291Y002366D01*
X003436Y002366D01*
X003436Y002511D02*
X003291Y002511D01*
X003243Y002462D01*
X003243Y002414D01*
X003291Y002366D01*
X003142Y002366D02*
X003045Y002462D01*
X002948Y002511D01*
X002996Y002366D02*
X003142Y002366D01*
X003142Y002269D01*
X003093Y002221D01*
X002996Y002221D01*
X002948Y002269D01*
X002948Y002317D01*
X002996Y002366D01*
X002186Y002317D02*
X002089Y002221D01*
X001993Y002317D01*
X001993Y002511D01*
X002186Y002511D02*
X002186Y002317D01*
X006436Y002221D02*
X006436Y002511D01*
X007436Y002511D02*
X007436Y002221D01*
X003425Y006751D02*
X003280Y006751D01*
X003232Y006799D01*
X003232Y006847D01*
X003280Y006896D01*
X003425Y006896D01*
X003280Y006896D02*
X003232Y006944D01*
X003232Y006992D01*
X003280Y007041D01*
X003425Y007041D01*
X003425Y006751D01*
X003131Y006751D02*
X003131Y006799D01*
X002937Y006992D01*
X002937Y007041D01*
X003131Y007041D01*
X002381Y006992D02*
X002381Y006799D01*
X002332Y006751D01*
X002236Y006751D01*
X002187Y006799D01*
X002187Y006896D01*
X002284Y006896D01*
X002187Y006992D02*
X002236Y007041D01*
X002332Y007041D01*
X002381Y006992D01*
X021436Y002511D02*
X021436Y002221D01*
M02*
