%
M48
M72
T01C0.0200
T02C0.0276
T03C0.0320
T04C0.0354
T05C0.0360
T06C0.0866
T07C0.1180
%
T01
X7671Y4546
X13591Y4866
X14551Y4386
X15031Y4386
X15671Y4706
X19191Y5026
X19351Y4226
X22071Y5186
X24151Y4066
X16151Y8386
X14871Y8546
X14231Y8226
X14071Y8706
X12311Y8386
X8151Y8226
X11191Y11106
X10871Y11586
X11991Y11586
X13911Y11746
X14871Y11906
X15991Y11906
X16951Y11746
X16951Y11266
X16311Y11106
X15671Y10786
X17751Y10626
X18391Y11266
X18871Y10946
X19351Y10946
X19831Y10626
X20311Y10626
X21751Y11106
X22391Y11106
X22871Y10946
X18711Y8706
X9431Y11586
X7991Y11586
X7511Y11586
X7031Y11266
X3671Y11106
T02
X701Y6056
X701Y5056
X9151Y5106
X9151Y6106
X17651Y6106
X17651Y5106
X22601Y7356
X23701Y7356
X23701Y8356
X22601Y8356
T03
X22901Y9756
X21901Y9756
X20901Y9756
X19901Y9756
X18901Y9756
X17901Y9756
X16401Y9756
X15401Y9756
X14401Y9756
X13401Y9756
X12401Y9756
X11401Y9756
X10401Y9756
X9401Y9756
X7901Y9756
X6901Y9756
X5901Y9756
X4901Y9756
X3901Y9756
X2901Y9756
X1901Y9756
X901Y9756
X901Y12756
X1901Y12756
X2901Y12756
X3901Y12756
X4901Y12756
X5901Y12756
X6901Y12756
X7901Y12756
X9401Y12756
X10401Y12756
X11401Y12756
X12401Y12756
X13401Y12756
X14401Y12756
X15401Y12756
X16401Y12756
X17901Y12756
X18901Y12756
X19901Y12756
X20901Y12756
X21901Y12756
X22901Y12756
X23901Y12756
X24901Y12756
X24901Y9756
X23901Y9756
X23651Y6106
X22651Y6106
X21651Y6106
X20651Y6106
X19651Y6106
X18651Y6106
X16151Y6106
X15151Y6106
X14151Y6106
X13151Y6106
X12151Y6106
X11151Y6106
X10151Y6106
X7651Y6106
X6651Y6106
X5651Y6106
X4651Y6106
X3651Y6106
X2651Y6106
X1651Y6106
X1651Y3106
X2651Y3106
X3651Y3106
X4651Y3106
X5651Y3106
X6651Y3106
X7651Y3106
X10151Y3106
X11151Y3106
X12151Y3106
X13151Y3106
X14151Y3106
X15151Y3106
X16151Y3106
X18651Y3106
X19651Y3106
X20651Y3106
X21651Y3106
X22651Y3106
X23651Y3106
X24651Y3106
X24701Y1606
X23701Y1606
X24651Y6106
T04
X26620Y4244
X27605Y4244
X27605Y3417
X27605Y2394
X27605Y1567
X26620Y1567
X26620Y11867
X27605Y11867
X27605Y12694
X27605Y13717
X27605Y14544
X26620Y14544
T05
X2151Y1806
X3151Y1806
X4151Y1806
X5151Y1806
X6151Y1806
X7151Y1806
X8151Y1806
X9151Y1806
X10151Y1806
X11151Y1806
X12151Y1806
X13151Y1806
X14151Y1806
X15151Y1806
X16151Y1806
X17151Y1806
X18151Y1806
X19151Y1806
X20151Y1806
X21151Y1806
X21151Y7456
X20151Y7456
X19151Y7456
X18151Y7456
X17151Y7456
X16151Y7456
X15151Y7456
X14151Y7456
X13151Y7456
X12151Y7456
X11151Y7456
X10151Y7456
X9151Y7456
X8151Y7456
X7151Y7456
X6151Y7456
X5151Y7456
X4151Y7456
X3151Y7456
X2151Y7456
T06
X29101Y2906
X29101Y13206
T07
X27089Y9556
X28270Y7706
X25907Y7706
M30
